<svg width="14" height="16" viewBox="0 0 14 16" fill="none" xmlns="http://www.w3.org/2000/svg">
<path d="M11.2382 15.3557C10.3703 16.1979 9.41279 16.0667 8.50009 15.6695C7.52975 15.2644 6.64268 15.2388 5.6179 15.6695C4.34173 16.2204 3.66441 16.0602 2.89582 15.3557C-1.44348 10.8883 -0.802992 4.08311 4.12876 3.82691C5.32487 3.89096 6.16231 4.48822 6.86685 4.53786C7.91405 4.32489 8.91641 3.71483 10.0373 3.79489C11.3838 3.90377 12.3911 4.43538 13.0636 5.3913C10.2935 7.05657 10.95 10.7074 13.4943 11.7322C12.9851 13.0692 12.3318 14.3902 11.2366 15.3669L11.2382 15.3557ZM6.77077 3.77888C6.64108 1.79337 8.2503 0.160122 10.1013 0C10.3559 2.28974 8.01973 4.00305 6.77077 3.77888Z" fill="black"/>
</svg>
