<svg width="24" height="24" viewBox="0 0 24 24" fill="none" xmlns="http://www.w3.org/2000/svg">
<g clip-path="url(#clip0_52_2354)">
<path fill-rule="evenodd" clip-rule="evenodd" d="M19.2 3.2H21.6C22.2365 3.2 22.847 3.45286 23.2971 3.90294C23.7471 4.35303 24 4.96348 24 5.6V21.6C24 22.2365 23.7471 22.847 23.2971 23.2971C22.847 23.7471 22.2365 24 21.6 24H2.4C1.76348 24 1.15303 23.7471 0.702944 23.2971C0.252856 22.847 0 22.2365 0 21.6L0 5.6C0 4.96348 0.252856 4.35303 0.702944 3.90294C1.15303 3.45286 1.76348 3.2 2.4 3.2H4.8V0H6.4V3.2H17.6V0H19.2V3.2ZM9.6 12.8H4.8V11.2H9.6V12.8ZM19.2 11.2H14.4V12.8H19.2V11.2ZM9.6 17.6H4.8V16H9.6V17.6ZM14.4 17.6H19.2V16H14.4V17.6Z" fill="white"/>
</g>
<defs>
<clipPath id="clip0_52_2354">
<rect width="24" height="24" fill="white"/>
</clipPath>
</defs>
</svg>
