<svg width="40" height="40" viewBox="0 0 40 40" fill="none" xmlns="http://www.w3.org/2000/svg">
<path d="M36.6667 15.0013V13.3346C36.6667 12.418 35.9167 11.668 35 11.668C34.0833 11.668 33.3333 12.418 33.3333 13.3346V15.0013H31.6667C30.75 15.0013 30 15.7513 30 16.668C30 17.5846 30.75 18.3346 31.6667 18.3346H33.3333V20.0013C33.3333 20.918 34.0833 21.668 35 21.668C35.9167 21.668 36.6667 20.918 36.6667 20.0013V18.3346H38.3333C39.25 18.3346 40 17.5846 40 16.668C40 15.7513 39.25 15.0013 38.3333 15.0013H36.6667ZM13.3333 20.0013C17.0167 20.0013 20 17.018 20 13.3346C20 9.6513 17.0167 6.66797 13.3333 6.66797C9.65 6.66797 6.66667 9.6513 6.66667 13.3346C6.66667 17.018 9.65 20.0013 13.3333 20.0013ZM13.3333 21.668C8.88333 21.668 0 23.9013 0 28.3346V33.3346H26.6667V28.3346C26.6667 23.9013 17.7833 21.668 13.3333 21.668ZM20.85 6.7513C22.3833 8.51797 23.3333 10.818 23.3333 13.3346C23.3333 15.8513 22.3833 18.1513 20.85 19.918C24.1167 19.5013 26.6667 16.7346 26.6667 13.3346C26.6667 9.93464 24.1167 7.16797 20.85 6.7513ZM27.55 23.0513C29.0333 24.4346 30 26.168 30 28.3346V33.3346H33.3333V28.3346C33.3333 25.918 30.6833 24.1513 27.55 23.0513Z" fill="white"/>
</svg>
