<svg width="25" height="25" viewBox="0 0 25 25" fill="none" xmlns="http://www.w3.org/2000/svg">
<circle cx="12.5937" cy="12.2239" r="12" fill="#CDE7E2"/>
<path d="M8.01876 12.2239C8.01876 12.0906 8.04376 11.9616 8.09376 11.8369C8.14376 11.7116 8.21042 11.6073 8.29376 11.5239L12.8938 6.92393C13.0771 6.74059 13.3104 6.64893 13.5938 6.64893C13.8771 6.64893 14.1104 6.74059 14.2938 6.92393C14.4771 7.10726 14.5688 7.34059 14.5688 7.62393C14.5688 7.90726 14.4771 8.14059 14.2938 8.32393L10.3938 12.2239L14.2938 16.1239C14.4771 16.3073 14.5688 16.5406 14.5688 16.8239C14.5688 17.1073 14.4771 17.3406 14.2938 17.5239C14.1104 17.7073 13.8771 17.7989 13.5938 17.7989C13.3104 17.7989 13.0771 17.7073 12.8938 17.5239L8.29376 12.9239C8.19376 12.8239 8.12309 12.7156 8.08176 12.5989C8.03976 12.4823 8.01876 12.3573 8.01876 12.2239Z" fill="#11282E"/>
<path d="M8.01836 12.2247C8.01836 12.0913 8.04336 11.9623 8.09336 11.8377C8.14336 11.7123 8.21003 11.608 8.29336 11.5247L12.8934 6.92466C13.0767 6.74132 13.31 6.64966 13.5934 6.64966C13.8767 6.64966 14.11 6.74132 14.2934 6.92466C14.4767 7.10799 14.5684 7.34132 14.5684 7.62466C14.5684 7.90799 14.4767 8.14133 14.2934 8.32466L10.3934 12.2247L14.2934 16.1247C14.4767 16.308 14.5684 16.5413 14.5684 16.8247C14.5684 17.108 14.4767 17.3413 14.2934 17.5247C14.11 17.708 13.8767 17.7997 13.5934 17.7997C13.31 17.7997 13.0767 17.708 12.8934 17.5247L8.29336 12.9247C8.19336 12.8247 8.12269 12.7163 8.08136 12.5997C8.03936 12.483 8.01836 12.358 8.01836 12.2247Z" fill="#11282E"/>
</svg>
