<svg width="26" height="26" viewBox="0 0 26 26" fill="none" xmlns="http://www.w3.org/2000/svg">
<circle cx="13" cy="13.0007" r="13" fill="#CDE7E2"/>
<path d="M8.04382 13C8.04382 12.8555 8.0709 12.7158 8.12507 12.5807C8.17923 12.4449 8.25146 12.3319 8.34173 12.2416L13.3251 7.2583C13.5237 7.05969 13.7765 6.96039 14.0834 6.96039C14.3903 6.96039 14.6431 7.05969 14.8417 7.2583C15.0403 7.45692 15.1396 7.70969 15.1396 8.01664C15.1396 8.32358 15.0403 8.57636 14.8417 8.77497L10.6167 13L14.8417 17.225C15.0403 17.4236 15.1396 17.6764 15.1396 17.9833C15.1396 18.2903 15.0403 18.543 14.8417 18.7416C14.6431 18.9402 14.3903 19.0396 14.0834 19.0396C13.7765 19.0396 13.5237 18.9402 13.3251 18.7416L8.34173 13.7583C8.2334 13.65 8.15684 13.5326 8.11207 13.4062C8.06657 13.2798 8.04382 13.1444 8.04382 13Z" fill="#11282E"/>
</svg>
