<svg width="25" height="25" viewBox="0 0 25 25" fill="none" xmlns="http://www.w3.org/2000/svg">
<path d="M7.125 17.875C7.35417 18.1042 7.64583 18.2188 8 18.2188C8.35417 18.2188 8.64583 18.1042 8.875 17.875L12.5 14.25L16.1562 17.9062C16.3854 18.1354 16.6721 18.2446 17.0162 18.2337C17.3596 18.2237 17.6458 18.1042 17.875 17.875C18.1042 17.6458 18.2188 17.3542 18.2188 17C18.2188 16.6458 18.1042 16.3542 17.875 16.125L14.25 12.5L17.9062 8.84375C18.1354 8.61458 18.2446 8.32792 18.2337 7.98375C18.2237 7.64042 18.1042 7.35417 17.875 7.125C17.6458 6.89583 17.3542 6.78125 17 6.78125C16.6458 6.78125 16.3542 6.89583 16.125 7.125L12.5 10.75L8.84375 7.09375C8.61458 6.86458 8.32833 6.755 7.985 6.765C7.64083 6.77583 7.35417 6.89583 7.125 7.125C6.89583 7.35417 6.78125 7.64583 6.78125 8C6.78125 8.35417 6.89583 8.64583 7.125 8.875L10.75 12.5L7.09375 16.1562C6.86458 16.3854 6.75542 16.6717 6.76625 17.015C6.77625 17.3592 6.89583 17.6458 7.125 17.875ZM12.5 25C10.7708 25 9.14583 24.6717 7.625 24.015C6.10417 23.3592 4.78125 22.4688 3.65625 21.3438C2.53125 20.2188 1.64083 18.8958 0.985 17.375C0.328333 15.8542 0 14.2292 0 12.5C0 10.7708 0.328333 9.14583 0.985 7.625C1.64083 6.10417 2.53125 4.78125 3.65625 3.65625C4.78125 2.53125 6.10417 1.64042 7.625 0.98375C9.14583 0.327917 10.7708 0 12.5 0C14.2292 0 15.8542 0.327917 17.375 0.98375C18.8958 1.64042 20.2188 2.53125 21.3438 3.65625C22.4688 4.78125 23.3592 6.10417 24.015 7.625C24.6717 9.14583 25 10.7708 25 12.5C25 14.2292 24.6717 15.8542 24.015 17.375C23.3592 18.8958 22.4688 20.2188 21.3438 21.3438C20.2188 22.4688 18.8958 23.3592 17.375 24.015C15.8542 24.6717 14.2292 25 12.5 25Z" fill="#11282E"/>
</svg>
