<svg width="60" height="60" viewBox="0 0 60 60" fill="none" xmlns="http://www.w3.org/2000/svg">
<circle cx="30.0003" cy="30.0007" r="15" transform="rotate(-1.73214 30.0003 30.0007)" fill="black"/>
<path d="M21.8279 38.2251C21.4928 37.9021 21.3214 37.518 21.314 37.0727C21.305 36.6275 21.4619 36.2373 21.7849 35.9021L27.4848 29.9873L21.57 24.2874C21.2348 23.9644 21.0631 23.5799 21.0548 23.1339C21.0466 22.6894 21.204 22.2996 21.527 21.9644C21.85 21.6292 22.2341 21.4571 22.6793 21.4481C23.1245 21.4407 23.5148 21.5984 23.8499 21.9214L29.7648 27.6213L35.4647 21.7064C35.7877 21.3713 36.1722 21.1996 36.6182 21.1913C37.0627 21.1831 37.4525 21.3405 37.7876 21.6635C38.1228 21.9864 38.2949 22.3706 38.3039 22.8158C38.3114 23.261 38.1536 23.6512 37.8306 23.9864L32.1307 29.9013L38.0456 35.6012C38.3808 35.9242 38.5525 36.3079 38.5607 36.7524C38.569 37.1984 38.4116 37.5889 38.0886 37.9241C37.7656 38.2593 37.3815 38.4306 36.9362 38.4381C36.491 38.4471 36.1008 38.2901 35.7656 37.9671L29.8508 32.2672L24.1509 38.1821C23.8279 38.5173 23.4442 38.689 22.9997 38.6972C22.5537 38.7054 22.1631 38.5481 21.8279 38.2251Z" fill="white"/>
</svg>
