<svg width="86" height="87" viewBox="0 0 86 87" fill="none" xmlns="http://www.w3.org/2000/svg">
<g filter="url(#filter0_d_52_2245)">
<circle cx="43" cy="40" r="40" fill="#64B4A3"/>
<path d="M28.4933 54.3366L39.0999 43.73M52.4566 39.0133L49.2816 48.5383C49.2309 48.691 49.1442 48.8292 49.0287 48.9412C48.9132 49.0532 48.7724 49.1357 48.6183 49.1816L29.1549 54.9666C28.9796 55.0187 28.7933 55.0217 28.6164 54.9753C28.4395 54.9288 28.2787 54.8348 28.1515 54.7033C28.0243 54.5718 27.9356 54.408 27.8951 54.2296C27.8546 54.0512 27.8637 53.8652 27.9216 53.6916L34.2416 34.735C34.2869 34.5989 34.361 34.4741 34.4587 34.3691C34.5565 34.2642 34.6757 34.1815 34.8083 34.1266L43.7866 30.43C43.9691 30.3546 44.1699 30.3349 44.3636 30.3735C44.5573 30.4121 44.7352 30.5071 44.8749 30.6466L52.2149 37.9883C52.3466 38.1198 52.4389 38.2853 52.4816 38.4664C52.5243 38.6475 52.5157 38.8369 52.4566 39.0133V39.0133Z" stroke="white" stroke-width="1.5" stroke-linecap="round" stroke-linejoin="round"/>
<path d="M52.6532 38.4267L57.3666 33.7117C57.9915 33.0866 58.3425 32.2389 58.3425 31.355C58.3425 30.4711 57.9915 29.6234 57.3666 28.9983L53.8332 25.4617C53.5237 25.152 53.1562 24.9063 52.7517 24.7387C52.3471 24.5711 51.9136 24.4849 51.4757 24.4849C51.0379 24.4849 50.6043 24.5711 50.1998 24.7387C49.7953 24.9063 49.4278 25.152 49.1182 25.4617L44.4049 30.1767M42.6349 40.1933C42.4027 39.9612 42.127 39.7771 41.8236 39.6515C41.5203 39.526 41.1951 39.4614 40.8668 39.4614C40.5385 39.4615 40.2134 39.5263 39.9101 39.652C39.6068 39.7777 39.3312 39.9619 39.0991 40.1942C38.867 40.4264 38.6829 40.702 38.5573 41.0054C38.4317 41.3088 38.3671 41.6339 38.3672 41.9622C38.3673 42.2906 38.432 42.6157 38.5577 42.919C38.6834 43.2223 38.8677 43.4979 39.0999 43.73C39.5689 44.1988 40.2049 44.462 40.868 44.4619C41.5311 44.4617 42.167 44.1981 42.6357 43.7292C43.1045 43.2602 43.3678 42.6242 43.3676 41.9611C43.3675 41.298 43.1039 40.6621 42.6349 40.1933Z" stroke="white" stroke-width="1.5" stroke-linecap="round" stroke-linejoin="round"/>
</g>
<defs>
<filter id="filter0_d_52_2245" x="0" y="0" width="86" height="87" filterUnits="userSpaceOnUse" color-interpolation-filters="sRGB">
<feFlood flood-opacity="0" result="BackgroundImageFix"/>
<feColorMatrix in="SourceAlpha" type="matrix" values="0 0 0 0 0 0 0 0 0 0 0 0 0 0 0 0 0 0 127 0" result="hardAlpha"/>
<feOffset dy="4"/>
<feGaussianBlur stdDeviation="1.5"/>
<feComposite in2="hardAlpha" operator="out"/>
<feColorMatrix type="matrix" values="0 0 0 0 0 0 0 0 0 0 0 0 0 0 0 0 0 0 0.25 0"/>
<feBlend mode="normal" in2="BackgroundImageFix" result="effect1_dropShadow_52_2245"/>
<feBlend mode="normal" in="SourceGraphic" in2="effect1_dropShadow_52_2245" result="shape"/>
</filter>
</defs>
</svg>
