<svg width="60" height="60" viewBox="0 0 60 60" fill="none" xmlns="http://www.w3.org/2000/svg">
<path d="M30 47.5C29.2917 47.5 28.6983 47.26 28.22 46.78C27.74 46.3017 27.5 45.7083 27.5 45V32.5H15C14.2917 32.5 13.6975 32.26 13.2175 31.78C12.7392 31.3017 12.5 30.7083 12.5 30C12.5 29.2917 12.7392 28.6975 13.2175 28.2175C13.6975 27.7392 14.2917 27.5 15 27.5H27.5V15C27.5 14.2917 27.74 13.6975 28.22 13.2175C28.6983 12.7392 29.2917 12.5 30 12.5C30.7083 12.5 31.3025 12.7392 31.7825 13.2175C32.2608 13.6975 32.5 14.2917 32.5 15V27.5H45C45.7083 27.5 46.3017 27.7392 46.78 28.2175C47.26 28.6975 47.5 29.2917 47.5 30C47.5 30.7083 47.26 31.3017 46.78 31.78C46.3017 32.26 45.7083 32.5 45 32.5H32.5V45C32.5 45.7083 32.2608 46.3017 31.7825 46.78C31.3025 47.26 30.7083 47.5 30 47.5Z" fill="white"/>
</svg>
