<svg width="17" height="17" viewBox="0 0 17 17" fill="none" xmlns="http://www.w3.org/2000/svg">
<circle cx="8.5" cy="8.5" r="8.5" fill="#CDE7E2"/>
<path d="M8.50001 10.0052C8.43255 10.0052 8.36728 9.99256 8.3042 9.96726C8.24079 9.94197 8.188 9.90824 8.14584 9.86607L5.81846 7.53869C5.7257 7.44594 5.67932 7.32788 5.67932 7.18453C5.67932 7.04117 5.7257 6.92312 5.81846 6.83036C5.91122 6.7376 6.02927 6.69122 6.17262 6.69122C6.31598 6.69122 6.43403 6.7376 6.52679 6.83036L8.50001 8.80357L10.4732 6.83036C10.566 6.7376 10.684 6.69122 10.8274 6.69122C10.9707 6.69122 11.0888 6.7376 11.1816 6.83036C11.2743 6.92312 11.3207 7.04117 11.3207 7.18453C11.3207 7.32788 11.2743 7.44594 11.1816 7.53869L8.85417 9.86607C8.80358 9.91667 8.74877 9.95242 8.68974 9.97334C8.63071 9.99459 8.56747 10.0052 8.50001 10.0052Z" fill="#11282E"/>
</svg>
