<svg width="40" height="40" viewBox="0 0 40 40" fill="none" xmlns="http://www.w3.org/2000/svg">
<path d="M11.2024 15.1873L5.43679 19.9998L11.2024 24.8123C11.3974 24.9683 11.5592 25.1617 11.6785 25.3811C11.7977 25.6005 11.8719 25.8415 11.8967 26.09C11.9215 26.3385 11.8965 26.5894 11.823 26.8281C11.7495 27.0667 11.6291 27.2883 11.4688 27.4798C11.3086 27.6713 11.1117 27.8288 10.8897 27.9432C10.6677 28.0575 10.4251 28.1264 10.1762 28.1457C9.9272 28.1651 9.67689 28.1345 9.43991 28.0558C9.20294 27.977 8.98407 27.8518 8.79617 27.6873L1.29617 21.4373C1.08602 21.2613 0.917017 21.0414 0.801057 20.7931C0.685097 20.5447 0.625 20.2739 0.625 19.9998C0.625 19.7257 0.685097 19.455 0.801057 19.2066C0.917017 18.9582 1.08602 18.7383 1.29617 18.5623L8.79617 12.3123C9.17886 12.0061 9.66624 11.8619 10.1539 11.9106C10.6416 11.9594 11.0909 12.1971 11.4054 12.5729C11.72 12.9488 11.8749 13.4329 11.837 13.9215C11.799 14.4102 11.5712 14.8645 11.2024 15.1873ZM38.7024 18.5623L31.2024 12.3123C30.8197 12.0061 30.3323 11.8619 29.8446 11.9106C29.3569 11.9594 28.9077 12.1971 28.5931 12.5729C28.2786 12.9488 28.1237 13.4329 28.1616 13.9215C28.1996 14.4102 28.4273 14.8645 28.7962 15.1873L34.5774 19.9998L28.7962 24.8123C28.6057 24.9691 28.4483 25.1623 28.3332 25.3805C28.2181 25.5988 28.1476 25.8378 28.1257 26.0835C28.1039 26.3293 28.1312 26.577 28.2061 26.8121C28.281 27.0472 28.4019 27.265 28.5618 27.4529C28.7391 27.6616 28.9593 27.8296 29.2073 27.9456C29.4554 28.0615 29.7255 28.1226 29.9993 28.1248C30.4392 28.1247 30.8651 27.9698 31.2024 27.6873L38.7024 21.4373C38.9126 21.2613 39.0816 21.0414 39.1975 20.7931C39.3135 20.5447 39.3736 20.2739 39.3736 19.9998C39.3736 19.7257 39.3135 19.455 39.1975 19.2066C39.0816 18.9582 38.9126 18.7383 38.7024 18.5623ZM25.6399 4.4842C25.1715 4.31769 24.6563 4.34238 24.2059 4.55294C23.7556 4.7635 23.4063 5.14298 23.2337 5.6092L13.2337 33.1092C13.0672 33.5776 13.0918 34.0928 13.3024 34.5432C13.513 34.9935 13.8924 35.3428 14.3587 35.5155C14.564 35.5896 14.781 35.6266 14.9993 35.6248C15.3848 35.6255 15.7611 35.5074 16.0771 35.2865C16.393 35.0656 16.6332 34.7528 16.7649 34.3905L26.7649 6.89045C26.9314 6.42201 26.9067 5.90684 26.6962 5.45648C26.4856 5.00612 26.1061 4.65681 25.6399 4.4842Z" fill="white"/>
</svg>
