<svg width="19" height="12" viewBox="0 0 19 12" fill="none" xmlns="http://www.w3.org/2000/svg">
<g clip-path="url(#clip0_225_4485)">
<path d="M9.79785 0C6.35876 0 3.24001 2.10432 0.938693 5.5223C0.750905 5.80233 0.750905 6.19355 0.938693 6.47358C3.24001 9.89568 6.35876 12 9.79785 12C13.2369 12 16.3557 9.89568 18.657 6.4777C18.8448 6.19767 18.8448 5.80645 18.657 5.52642C16.3557 2.10432 13.2369 0 9.79785 0ZM10.0446 10.2251C7.76165 10.3857 5.87642 8.2814 6.02002 5.72409C6.13785 3.61565 7.66591 1.90666 9.55115 1.77488C11.8341 1.61428 13.7193 3.7186 13.5757 6.27591C13.4542 8.38023 11.9261 10.0892 10.0446 10.2251ZM9.93042 8.27316C8.7006 8.35964 7.68432 7.22718 7.76532 5.85175C7.82792 4.71517 8.65271 3.79684 9.66898 3.72272C10.8988 3.63624 11.9151 4.7687 11.834 6.14413C11.7678 7.28483 10.943 8.20316 9.93042 8.27316Z" fill="#52AB98"/>
</g>
<defs>
<clipPath id="clip0_225_4485">
<rect width="18" height="12" fill="white" transform="translate(0.797852)"/>
</clipPath>
</defs>
</svg>
