<svg width="24" height="24" viewBox="0 0 24 24" fill="none" xmlns="http://www.w3.org/2000/svg">
<path d="M21 12C21 12.1989 20.921 12.3897 20.7803 12.5304C20.6397 12.671 20.4489 12.75 20.25 12.75H11.25C11.0511 12.75 10.8603 12.671 10.7197 12.5304C10.579 12.3897 10.5 12.1989 10.5 12C10.5 11.8011 10.579 11.6103 10.7197 11.4697C10.8603 11.329 11.0511 11.25 11.25 11.25H20.25C20.4489 11.25 20.6397 11.329 20.7803 11.4697C20.921 11.6103 21 11.8011 21 12ZM11.25 6.75002H20.25C20.4489 6.75002 20.6397 6.67101 20.7803 6.53035C20.921 6.3897 21 6.19894 21 6.00002C21 5.80111 20.921 5.61035 20.7803 5.46969C20.6397 5.32904 20.4489 5.25002 20.25 5.25002H11.25C11.0511 5.25002 10.8603 5.32904 10.7197 5.46969C10.579 5.61035 10.5 5.80111 10.5 6.00002C10.5 6.19894 10.579 6.3897 10.7197 6.53035C10.8603 6.67101 11.0511 6.75002 11.25 6.75002ZM20.25 17.25H3.75C3.55109 17.25 3.36033 17.329 3.21967 17.4697C3.07902 17.6103 3 17.8011 3 18C3 18.1989 3.07902 18.3897 3.21967 18.5304C3.36033 18.671 3.55109 18.75 3.75 18.75H20.25C20.4489 18.75 20.6397 18.671 20.7803 18.5304C20.921 18.3897 21 18.1989 21 18C21 17.8011 20.921 17.6103 20.7803 17.4697C20.6397 17.329 20.4489 17.25 20.25 17.25ZM3.45938 13.4438C3.55189 13.4805 3.65047 13.4996 3.75 13.5C3.94916 13.4992 4.14041 13.422 4.28438 13.2844L8.03438 9.5344C8.17521 9.3922 8.25422 9.20016 8.25422 9.00002C8.25422 8.79989 8.17521 8.60785 8.03438 8.46565L4.28438 4.71565C4.17594 4.61391 4.04091 4.54494 3.89491 4.51674C3.74891 4.48853 3.59791 4.50224 3.45938 4.55627C3.32288 4.61365 3.20641 4.71015 3.12467 4.83361C3.04292 4.95706 2.99954 5.10196 3 5.25002V12.75C2.99954 12.8981 3.04292 13.043 3.12467 13.1664C3.20641 13.2899 3.32288 13.3864 3.45938 13.4438Z" fill="white"/>
</svg>
