<svg width="20" height="21" viewBox="0 0 20 21" fill="none" xmlns="http://www.w3.org/2000/svg">
<path d="M12.5 8H4.16667V4.66667H12.5M10 16.3333C9.33696 16.3333 8.70107 16.0699 8.23223 15.6011C7.76339 15.1323 7.5 14.4964 7.5 13.8333C7.5 13.1703 7.76339 12.5344 8.23223 12.0656C8.70107 11.5967 9.33696 11.3333 10 11.3333C10.663 11.3333 11.2989 11.5967 11.7678 12.0656C12.2366 12.5344 12.5 13.1703 12.5 13.8333C12.5 14.4964 12.2366 15.1323 11.7678 15.6011C11.2989 16.0699 10.663 16.3333 10 16.3333ZM14.1667 3H4.16667C3.72464 3 3.30072 3.17559 2.98816 3.48816C2.67559 3.80072 2.5 4.22464 2.5 4.66667V16.3333C2.5 16.7754 2.67559 17.1993 2.98816 17.5118C3.30072 17.8244 3.72464 18 4.16667 18H15.8333C16.2754 18 16.6993 17.8244 17.0118 17.5118C17.3244 17.1993 17.5 16.7754 17.5 16.3333V6.33333L14.1667 3Z" fill="#64B4A3"/>
</svg>
