<svg width="89" height="133" viewBox="0 0 89 133" fill="none" xmlns="http://www.w3.org/2000/svg">
<path d="M36.9605 121.574H33.363V124.043H36.9605V121.574Z" fill="#DE8E68"/>
<path d="M60.4502 121.574H56.246V124.043H60.4502V121.574Z" fill="#DE8E68"/>
<path d="M56.0907 65.721C56.1895 67.5832 60.577 121.574 60.577 121.574H56.0907L44.4235 81.028C44.4235 81.028 47.4567 64.804 47.6683 64.8463C48.67 65.1002 54.1579 66.0737 56.0907 65.721Z" fill="#52AB98"/>
<path d="M49.5445 65.2554L37.4541 122.011H33.123C33.123 122.011 32.7421 59.8098 33.123 59.8098C37.1861 61.531 44.8607 64.3525 49.5445 65.2554Z" fill="#52AB98"/>
<path d="M59.1941 34.3593C59.8854 34.6555 63.5816 37.7169 65.1335 39.7344C66.2903 38.8738 79.4953 27.912 79.7633 27.3054C80.2853 27.0091 81.3998 28.6879 79.7633 30.0564C80.8779 30.0141 87.4662 29.8448 87.4662 30.0564C87.4662 30.268 88.8911 30.8746 79.2131 32.4265C77.9293 33.9784 66.3045 47.6489 64.414 47.6489C62.5236 47.6489 54.8207 40.1717 54.4962 38.8315C54.1717 37.4912 59.1941 34.3593 59.1941 34.3593Z" fill="#DE8E68"/>
<path d="M49.1358 28.2788C46.1167 31.0862 51.647 39.5509 53.2129 39.9177C55.2022 40.3974 59.7449 36.6306 60.7183 34.0207C61.1557 32.7933 51.6188 25.9792 49.1358 28.2788Z" fill="#FFD98E"/>
<path d="M43.7183 24.1875C26.9299 24.1875 30.739 56.5932 31.8112 58.8081C32.8834 61.0231 54.3838 67.4562 56.0767 65.721C57.7697 63.9857 60.8875 24.1875 43.7183 24.1875Z" fill="#FFD98E"/>
<path d="M46.61 19.8281H41.5311V27.2065C41.5311 28.1518 46.61 28.1518 46.61 27.2065V19.8281Z" fill="#D37C59"/>
<path d="M44.0143 22.4805C47.2088 22.4805 49.7985 18.1349 49.7985 12.7743C49.7985 7.41373 47.2088 3.06812 44.0143 3.06812C40.8197 3.06812 38.23 7.41373 38.23 12.7743C38.23 18.1349 40.8197 22.4805 44.0143 22.4805Z" fill="#DE8E68"/>
<path d="M43.0549 0.895403C40.1346 0.895403 36.2691 2.30619 33.4616 2.30619C30.9222 2.30619 26.3089 0.472168 23.8683 0.472168C22.3164 0.472168 14.9803 1.19167 14.9803 7.10285C14.9803 9.76923 17.8019 12.3228 18.3662 13.0281C18.9305 13.7335 19.9604 17.6837 22.5986 17.6837C26.2807 17.6837 28.8201 15.0032 32.1919 15.0032C34.5197 15.0032 35.1263 15.5676 36.2832 15.5676C37.1296 15.5676 38.3993 15.1725 38.3993 15.1443C38.3993 14.707 38.3147 11.053 38.8226 10.4605C39.528 9.61405 48.5147 10.8696 48.5147 7.89289C49.1495 8.45721 49.742 10.8555 49.742 11.3493C50.1512 10.9261 51.6748 9.09206 51.6748 7.11696C51.6607 5.31116 50.391 0.895403 43.0549 0.895403Z" fill="black"/>
<path d="M37.8877 54.7535L24.2695 55.7727L25.6204 73.8224L39.2385 72.8032L37.8877 54.7535Z" fill="#F2F2F2"/>
<path d="M30.9503 73.8329C32.4385 73.8329 33.6449 72.1339 33.6449 70.0379C33.6449 67.942 32.4385 66.2429 30.9503 66.2429C29.4621 66.2429 28.2557 67.942 28.2557 70.0379C28.2557 72.1339 29.4621 73.8329 30.9503 73.8329Z" fill="#DE8E68"/>
<path d="M29.2436 38.2107C28.8909 39.0007 26.5631 47.8181 27.0569 55.3517C27.5507 62.8853 28.8345 67.1318 28.8345 67.7243C28.8345 68.3168 33.1515 68.077 33.1515 67.7243C33.1515 67.3716 32.0369 56.6496 32.2768 54.7451C32.5166 52.8405 35.7473 41.8223 35.6627 40.4679C35.578 39.1136 29.2436 38.2107 29.2436 38.2107Z" fill="#DE8E68"/>
<path d="M35.5777 28.8149C31.7263 27.5875 27.1695 36.3767 27.6068 37.9003C28.157 39.819 33.5321 41.907 36.2267 41.4837C37.4964 41.2721 38.7379 29.8306 35.5777 28.8149Z" fill="#FFD98E"/>
<path d="M33.1794 123.479V124.565L28.8906 132.606H31.684L37.2707 127.542V123.479H33.1794Z" fill="black"/>
<path d="M56.1049 123.309V127.386H68.0261V125.778L60.4643 123.309H56.1049Z" fill="black"/>
<path d="M10.325 42.5699C15.6466 42.5699 19.9606 38.2559 19.9606 32.9342C19.9606 27.6126 15.6466 23.2986 10.325 23.2986C5.00333 23.2986 0.689301 27.6126 0.689301 32.9342C0.689301 38.2559 5.00333 42.5699 10.325 42.5699Z" fill="#DFDFDF"/>
<path d="M24.0232 25.9368L12.4406 28.2646L15.2763 33.8936L24.0232 25.9368Z" fill="#DFDFDF"/>
<path d="M62.1427 11.2646L73.5418 14.4107V8.10449L62.1427 11.2646Z" fill="#DFDFDF"/>
<path d="M88.4962 3.06812H66.4879V18.3892H88.4962V3.06812Z" fill="#DFDFDF"/>
<path d="M77.4778 11.7866C78.0622 11.7866 78.5359 11.3129 78.5359 10.7285C78.5359 10.1441 78.0622 9.67041 77.4778 9.67041C76.8934 9.67041 76.4197 10.1441 76.4197 10.7285C76.4197 11.3129 76.8934 11.7866 77.4778 11.7866Z" fill="white"/>
<path d="M82.458 11.7866C83.0424 11.7866 83.5161 11.3129 83.5161 10.7285C83.5161 10.1441 83.0424 9.67041 82.458 9.67041C81.8736 9.67041 81.3999 10.1441 81.3999 10.7285C81.3999 11.3129 81.8736 11.7866 82.458 11.7866Z" fill="white"/>
<path d="M9.64339 35.5986C9.64339 35.2066 9.70406 34.8706 9.82539 34.5906C9.95606 34.3106 10.1147 34.0632 10.3014 33.8486C10.4974 33.6339 10.7027 33.4332 10.9174 33.2466C11.1414 33.0599 11.3514 32.8732 11.5474 32.6866C11.7434 32.4906 11.9021 32.2806 12.0234 32.0566C12.1447 31.8232 12.2054 31.5526 12.2054 31.2446C12.2054 30.7406 12.0094 30.3299 11.6174 30.0126C11.2254 29.6952 10.6701 29.5366 9.95139 29.5366C9.35406 29.5366 8.83606 29.6346 8.39739 29.8306C7.95873 30.0172 7.58539 30.2972 7.27739 30.6706L6.53539 30.1106C6.90873 29.6439 7.38939 29.2846 7.97739 29.0326C8.56539 28.7806 9.24673 28.6546 10.0214 28.6546C10.6747 28.6546 11.2394 28.7526 11.7154 28.9486C12.2007 29.1446 12.5741 29.4246 12.8354 29.7886C13.1061 30.1526 13.2414 30.5866 13.2414 31.0906C13.2414 31.4919 13.1761 31.8372 13.0454 32.1266C12.9241 32.4066 12.7654 32.6586 12.5694 32.8826C12.3827 33.0972 12.1774 33.3026 11.9534 33.4986C11.7387 33.6852 11.5334 33.8766 11.3374 34.0726C11.1414 34.2686 10.9827 34.4879 10.8614 34.7306C10.7401 34.9732 10.6794 35.2626 10.6794 35.5986H9.64339ZM10.1614 38.6086C9.96539 38.6086 9.79273 38.5386 9.64339 38.3986C9.50339 38.2492 9.43339 38.0766 9.43339 37.8806C9.43339 37.6752 9.50339 37.5072 9.64339 37.3766C9.79273 37.2366 9.96539 37.1666 10.1614 37.1666C10.3761 37.1666 10.5534 37.2366 10.6934 37.3766C10.8334 37.5072 10.9034 37.6752 10.9034 37.8806C10.9034 38.0766 10.8334 38.2492 10.6934 38.3986C10.5534 38.5386 10.3761 38.6086 10.1614 38.6086Z" fill="white"/>
</svg>
