<svg width="15" height="16" viewBox="0 0 15 16" fill="none" xmlns="http://www.w3.org/2000/svg">
<circle cx="7.5" cy="8" r="7.5" fill="#CDE7E2"/>
<path d="M9.35937 8C9.35937 8.08333 9.34375 8.16396 9.3125 8.24187C9.28125 8.32021 9.23958 8.38542 9.1875 8.4375L6.3125 11.3125C6.19792 11.4271 6.05208 11.4844 5.875 11.4844C5.69792 11.4844 5.55208 11.4271 5.4375 11.3125C5.32292 11.1979 5.26562 11.0521 5.26562 10.875C5.26562 10.6979 5.32292 10.5521 5.4375 10.4375L7.875 8L5.4375 5.5625C5.32292 5.44792 5.26562 5.30208 5.26562 5.125C5.26562 4.94792 5.32292 4.80208 5.4375 4.6875C5.55208 4.57292 5.69792 4.51562 5.875 4.51562C6.05208 4.51562 6.19792 4.57292 6.3125 4.6875L9.1875 7.5625C9.25 7.625 9.29417 7.69271 9.32 7.76562C9.34625 7.83854 9.35937 7.91667 9.35937 8Z" fill="#11282E"/>
</svg>
