<svg width="24" height="24" viewBox="0 0 24 24" fill="none" xmlns="http://www.w3.org/2000/svg">
<path d="M15.289 14.677C15.1422 14.629 14.2145 14.2108 14.7942 12.4487H14.7859C16.297 10.8924 17.4517 8.38804 17.4517 5.9225C17.4517 2.13143 14.9308 0.144043 12.001 0.144043C9.06929 0.144043 6.56221 2.1305 6.56221 5.9225C6.56221 8.3982 7.71052 10.9127 9.23082 12.4653C9.82344 14.0197 8.76375 14.5967 8.54221 14.6779C5.4739 15.7874 1.8739 17.8099 1.8739 19.8065V20.5551C1.8739 23.2754 7.14836 23.8939 12.0296 23.8939C16.9182 23.8939 22.1262 23.2754 22.1262 20.5551V19.8065C22.1262 17.7499 18.5087 15.7431 15.289 14.677Z" fill="white"/>
</svg>
