<svg width="298" height="298" viewBox="0 0 298 298" fill="none" xmlns="http://www.w3.org/2000/svg">
<path d="M200.114 245.27H259.327V131.232H200.114V245.27Z" fill="#52AB98"/>
<path d="M259.166 245.27H272.938V131.232H259.166V245.27Z" fill="#52AB98"/>
<path d="M205.019 147.967H254.42V138.443H205.019V147.967Z" fill="#DFDFDF"/>
<path d="M208.57 143.682C209.493 143.682 210.241 142.934 210.241 142.011C210.241 141.088 209.493 140.34 208.57 140.34C207.647 140.34 206.899 141.088 206.899 142.011C206.899 142.934 207.647 143.682 208.57 143.682Z" fill="#F3F3F3"/>
<path d="M237.362 142.012H211.645" stroke="#F3F3F3" stroke-width="4" stroke-linecap="round" stroke-linejoin="round"/>
<path d="M205.019 164.064H254.42V154.541H205.019V164.064Z" fill="#DFDFDF"/>
<path d="M208.57 159.78C209.493 159.78 210.241 159.032 210.241 158.109C210.241 157.186 209.493 156.438 208.57 156.438C207.647 156.438 206.899 157.186 206.899 158.109C206.899 159.032 207.647 159.78 208.57 159.78Z" fill="#F3F3F3"/>
<path d="M237.362 158.109H211.645" stroke="#F3F3F3" stroke-width="4" stroke-linecap="round" stroke-linejoin="round"/>
<path d="M205.019 180.164H254.42V170.64H205.019V180.164Z" fill="#DFDFDF"/>
<path d="M208.57 175.874C209.493 175.874 210.241 175.126 210.241 174.203C210.241 173.28 209.493 172.531 208.57 172.531C207.647 172.531 206.899 173.28 206.899 174.203C206.899 175.126 207.647 175.874 208.57 175.874Z" fill="#F3F3F3"/>
<path d="M237.362 174.203H211.645" stroke="#F3F3F3" stroke-width="4" stroke-linecap="round" stroke-linejoin="round"/>
<path d="M205.019 196.258H254.42V186.734H205.019V196.258Z" fill="#DFDFDF"/>
<path d="M208.57 191.971C209.493 191.971 210.241 191.223 210.241 190.3C210.241 189.377 209.493 188.629 208.57 188.629C207.647 188.629 206.899 189.377 206.899 190.3C206.899 191.223 207.647 191.971 208.57 191.971Z" fill="#F3F3F3"/>
<path d="M237.362 190.301H211.645" stroke="#F3F3F3" stroke-width="4" stroke-linecap="round" stroke-linejoin="round"/>
<path d="M205.019 212.355H254.42V202.832H205.019V212.355Z" fill="#DFDFDF"/>
<path d="M208.57 208.069C209.493 208.069 210.241 207.321 210.241 206.398C210.241 205.475 209.493 204.727 208.57 204.727C207.647 204.727 206.899 205.475 206.899 206.398C206.899 207.321 207.647 208.069 208.57 208.069Z" fill="#F3F3F3"/>
<path d="M237.362 206.396H211.645" stroke="#F3F3F3" stroke-width="4" stroke-linecap="round" stroke-linejoin="round"/>
<path d="M269.755 145.295H262.344" stroke="#F3F3F3" stroke-width="2" stroke-linecap="round" stroke-linejoin="round"/>
<path d="M269.755 147.215H262.344" stroke="#F3F3F3" stroke-width="2" stroke-linecap="round" stroke-linejoin="round"/>
<path d="M269.755 158.346H262.344" stroke="#F3F3F3" stroke-width="2" stroke-linecap="round" stroke-linejoin="round"/>
<path d="M269.755 160.262H262.344" stroke="#F3F3F3" stroke-width="2" stroke-linecap="round" stroke-linejoin="round"/>
<path d="M269.755 174.203H262.344" stroke="#F3F3F3" stroke-width="2" stroke-linecap="round" stroke-linejoin="round"/>
<path d="M269.755 176.123H262.344" stroke="#F3F3F3" stroke-width="2" stroke-linecap="round" stroke-linejoin="round"/>
<path d="M269.755 189.549H262.344" stroke="#F3F3F3" stroke-width="2" stroke-linecap="round" stroke-linejoin="round"/>
<path d="M269.755 191.465H262.344" stroke="#F3F3F3" stroke-width="2" stroke-linecap="round" stroke-linejoin="round"/>
<path d="M126.282 92.2266H21.2002V152.082H126.282V92.2266Z" fill="#52AB98"/>
<path d="M82.9235 101.66H35.1069C31.8633 101.66 29.2338 104.29 29.2338 107.533V139.032C29.2338 142.275 31.8633 144.905 35.1069 144.905H82.9235C86.1671 144.905 88.7965 142.275 88.7965 139.032V107.533C88.7965 104.29 86.1671 101.66 82.9235 101.66Z" fill="#D0D0D0"/>
<path d="M182.773 157.326C183.767 158.148 190.896 163.559 193.817 166.984C196.526 167.729 208.267 172.199 218.538 173.768C218.506 175.216 217.764 180.039 217.764 180.039C217.764 180.039 193.042 176.967 190.062 176.15C187.082 175.333 175.47 168.285 172.927 165.62C176.317 162.035 182.773 157.326 182.773 157.326Z" fill="#DE8E68"/>
<path d="M221.191 181.213C224.249 181.213 226.728 179.374 226.728 177.105C226.728 174.837 224.249 172.998 221.191 172.998C218.132 172.998 215.653 174.837 215.653 177.105C215.653 179.374 218.132 181.213 221.191 181.213Z" fill="#DE8E68"/>
<path d="M143.112 194.418V248.324H161.434L152.273 195.002L143.112 194.418Z" fill="#56CAD8"/>
<path d="M173.846 196.552V248.324H159.12L147.219 193.867L173.846 196.552Z" fill="#74D5DE"/>
<path d="M139.347 158.999C138.51 159.906 136.141 162.831 135.516 163.946C133.914 162.553 107.089 137.889 106.461 137.889C106.178 137.893 105.907 138.002 105.701 138.196C105.494 138.389 105.368 138.652 105.345 138.934C105.345 142.202 107.729 142.364 110.69 145.503C116.898 156.645 131.771 176.835 135.652 176.835C137.887 176.835 147.217 167.726 147.217 166.531C147.217 165.337 139.347 158.999 139.347 158.999Z" fill="#DE8E68"/>
<path d="M152.367 145.585C146.159 141.836 136.283 155.588 136.474 157.888C136.665 160.187 145.787 166.88 149.596 166.135C152.094 165.638 158.856 149.497 152.367 145.585Z" fill="#FCC486"/>
<path d="M161.039 141.121C179.453 141.121 178.251 193.326 174.988 195.963C170.928 199.246 144.575 196.211 143.112 194.418C141.649 192.625 140.574 141.121 161.039 141.121Z" fill="#FED385"/>
<path d="M166.214 144.196C166.214 145.736 157.679 146.066 157.679 144.196V133.717H166.214V144.196Z" fill="#DE8E68"/>
<path d="M167.761 132.043C169.847 126.766 168.355 121.23 164.427 119.677C160.5 118.125 155.626 121.144 153.54 126.421C151.454 131.697 152.946 137.233 156.873 138.786C160.801 140.338 165.675 137.319 167.761 132.043Z" fill="#DE8E68"/>
<path d="M168.088 134.088C168.874 132.992 168.889 131.658 168.122 131.109C167.356 130.56 166.098 131.004 165.313 132.101C164.527 133.197 164.512 134.531 165.279 135.08C166.045 135.629 167.303 135.185 168.088 134.088Z" fill="#DE8E68"/>
<path d="M174.65 127.97C174.65 126.547 173.322 124.99 173.071 123.19C172.942 122.283 173.222 118.511 172.165 117.23C169.967 114.585 168.668 115.127 166.987 114.498C164.056 113.428 162.934 111.652 160.515 111.652C157.769 111.652 156.659 113.075 154.692 113.075C152.442 113.075 150.599 112.04 147.443 112.04C145.759 112.04 143.559 114.24 143.559 116.182C143.559 120.771 147.83 120.113 147.83 121.231C147.83 122.005 147.582 122.621 147.582 123.689C147.582 125.08 149.395 125.889 150.43 125.889C153.584 125.889 154.001 125.504 154.001 125.504C154.628 124.253 155.428 123.097 156.378 122.07C156.505 121.936 158.553 123.384 161.898 123.495C164.643 123.587 166.572 124.116 166.572 125.395C166.572 126.297 166.242 128.976 166.262 129.731C166.282 130.486 166.55 130.973 166.719 130.973C166.887 130.973 166.982 130.724 168.035 130.724C169.165 130.724 169.252 132.113 169.448 132.113C170.573 132.137 174.65 131.216 174.65 127.97Z" fill="#FD8369"/>
<path d="M169.42 146.375C175.629 142.623 185.507 156.378 185.314 158.675C185.12 160.972 176.011 167.665 172.199 166.922C169.696 166.435 162.934 150.294 169.42 146.375Z" fill="#FED892"/>
<path d="M111.335 144.957C110.63 145.413 110.038 146.024 109.605 146.743C109.171 147.463 108.907 148.271 108.833 149.108C108.759 149.945 108.877 150.787 109.178 151.571C109.478 152.356 109.954 153.061 110.568 153.634C111.182 154.207 111.919 154.632 112.722 154.877C113.526 155.122 114.374 155.181 115.204 155.049C116.033 154.916 116.822 154.597 117.509 154.114C118.196 153.631 118.764 152.998 119.17 152.263L111.335 144.957Z" fill="#DE8E68"/>
<path d="M126.282 39.9844H51.3106V84.4336H126.282V39.9844Z" fill="#F3F3F3"/>
<path d="M126.283 39.9844H51.3107V84.4336H126.283V39.9844Z" fill="#52AB98"/>
<path d="M46.7736 39.4902H20.4055V83.9394H46.7736V39.4902Z" fill="#52AB98"/>
<path d="M59.3194 77.9771C61.4998 75.3596 65.3688 70.912 72.4066 69.3996C82.921 67.1373 85.9631 54.8572 91.0167 54.8572C97.3591 54.8572 100.031 58.4928 102.649 58.4928C107.903 58.4928 113.424 53.6205 116.307 46.4238" stroke="#D0D0D0" stroke-width="3" stroke-linecap="round" stroke-linejoin="round"/>
<path d="M42.9195 46.5234H24.2969V48.227H42.9195V46.5234Z" fill="#DEDEDE"/>
<path d="M42.9195 52.2598H24.2969V53.9633H42.9195V52.2598Z" fill="#DEDEDE"/>
<path d="M42.9195 57.9961H24.2969V59.6997H42.9195V57.9961Z" fill="#DEDEDE"/>
<path d="M42.8772 63.7324H24.2547V65.436H42.8772V63.7324Z" fill="#DEDEDE"/>
<path d="M42.8772 69.4688H24.2547V71.1723H42.8772V69.4688Z" fill="#DEDEDE"/>
<path d="M42.8772 75.2051H24.2547V76.9086H42.8772V75.2051Z" fill="#DEDEDE"/>
<path d="M58.7433 107.504H33.602V109.207H58.7433V107.504Z" fill="white"/>
<path d="M58.7433 113.24H33.602V114.944H58.7433V113.24Z" fill="white"/>
<path d="M58.7433 118.977H33.602V120.68H58.7433V118.977Z" fill="white"/>
<path d="M58.6886 124.713H33.5474V126.416H58.6886V124.713Z" fill="white"/>
<path d="M58.6886 130.449H33.5474V132.153H58.6886V130.449Z" fill="white"/>
<path d="M58.6886 136.184H33.5474V137.887H58.6886V136.184Z" fill="white"/>
<path d="M105.283 97.8027H74.7806C71.537 97.8027 68.9075 100.432 68.9075 103.676V117.409C68.9075 120.652 71.537 123.282 74.7806 123.282H105.283C108.527 123.282 111.156 120.652 111.156 117.409V103.676C111.156 100.432 108.527 97.8027 105.283 97.8027Z" fill="white"/>
<path d="M89.0151 102.485C89.7996 102.485 90.4355 101.85 90.4355 101.065C90.4355 100.28 89.7996 99.6445 89.0151 99.6445C88.2306 99.6445 87.5946 100.28 87.5946 101.065C87.5946 101.85 88.2306 102.485 89.0151 102.485Z" fill="#F3F3F3"/>
<path d="M89.0151 121.444C89.7996 121.444 90.4355 120.808 90.4355 120.024C90.4355 119.239 89.7996 118.604 89.0151 118.604C88.2306 118.604 87.5946 119.239 87.5946 120.024C87.5946 120.808 88.2306 121.444 89.0151 121.444Z" fill="#F3F3F3"/>
<path d="M89.0151 101.529V119.623" stroke="#F3F3F3" stroke-width="3" stroke-linecap="round" stroke-linejoin="round"/>
<path d="M92.4644 103.9V114.452" stroke="#F3F3F3" stroke-width="3" stroke-linecap="round" stroke-linejoin="round"/>
<path d="M89.0151 120.024L92.4644 114.451" stroke="#F3F3F3" stroke-width="3" stroke-linecap="round" stroke-linejoin="round"/>
<path d="M221.583 99.2125C219.923 97.584 218.875 95.4326 218.616 93.1214C218.358 90.8101 218.905 88.4804 220.164 86.5254C221.424 84.5705 223.319 83.1098 225.531 82.39C227.742 81.6702 230.134 81.7352 232.303 82.5741C233.691 80.4479 235.63 78.7389 237.914 77.6297C240.198 76.5206 242.741 76.0532 245.27 76.2774C247.799 76.5016 250.219 77.409 252.272 78.9026C254.325 80.3962 255.934 82.4198 256.926 84.757C258.88 83.9666 261.033 83.8072 263.082 84.3011C265.131 84.7951 266.975 85.9176 268.355 87.5116C269.734 89.1056 270.581 91.0911 270.776 93.1901C270.971 95.2892 270.504 97.3967 269.442 99.2174L221.583 99.2125Z" fill="#52AB98"/>
<path d="M263.986 98.3672V132.411" stroke="#52AB98" stroke-width="4" stroke-miterlimit="10"/>
<path d="M198.6 117.233C200.373 120.648 204.326 121.905 207.388 121.905C214.783 121.905 217.607 114.78 217.607 112.371" stroke="#52AB98" stroke-width="4" stroke-linecap="round" stroke-linejoin="round"/>
<path d="M198.133 81.2539C199.767 84.3606 200.576 87.646 200.576 90.5167C200.576 97.3161 199.441 101.977 198.59 106.055" stroke="#52AB98" stroke-width="4" stroke-linecap="round" stroke-linejoin="round"/>
<path d="M160.811 76.7842C165.817 72.6047 171.444 69.498 178.142 69.498C183.645 69.498 188.112 71.1371 191.569 73.6378" stroke="#52AB98" stroke-width="4" stroke-linecap="round" stroke-linejoin="round"/>
<path d="M133.852 98.4948C139.099 98.4948 143.899 94.0248 149.032 88.5938" stroke="#52AB98" stroke-width="4" stroke-linecap="round" stroke-linejoin="round"/>
<path d="M158.201 78.3066H150.805V85.702H158.201V78.3066Z" fill="#52AB98"/>
<path d="M194.887 80.1351C196.681 80.1351 198.135 78.6808 198.135 76.8869C198.135 75.0929 196.681 73.6387 194.887 73.6387C193.093 73.6387 191.639 75.0929 191.639 76.8869C191.639 78.6808 193.093 80.1351 194.887 80.1351Z" fill="#52AB98"/>
<path d="M203.899 111.805L196.663 107.092L196.198 115.716L203.899 111.805Z" fill="#52AB98"/>
</svg>
