<svg width="25" height="25" viewBox="0 0 25 25" fill="none" xmlns="http://www.w3.org/2000/svg">
<circle cx="12.5" cy="12.5" r="12.5" fill="white"/>
<path d="M21.1713 11.3673H20.5001V11.3327H13.0001V14.666H17.7097C17.0226 16.6064 15.1763 17.9993 13.0001 17.9993C10.2388 17.9993 8.00008 15.7606 8.00008 12.9993C8.00008 10.2381 10.2388 7.99935 13.0001 7.99935C14.2747 7.99935 15.4342 8.48018 16.3172 9.2656L18.6742 6.90852C17.1859 5.52143 15.1951 4.66602 13.0001 4.66602C8.398 4.66602 4.66675 8.39727 4.66675 12.9993C4.66675 17.6014 8.398 21.3327 13.0001 21.3327C17.6022 21.3327 21.3334 17.6014 21.3334 12.9993C21.3334 12.4406 21.2759 11.8952 21.1713 11.3673Z" fill="#FFC107"/>
<path d="M5.62744 9.1206L8.36536 11.1285C9.10619 9.29435 10.9004 7.99935 12.9999 7.99935C14.2745 7.99935 15.4341 8.48018 16.317 9.2656L18.6741 6.90852C17.1858 5.52143 15.1949 4.66602 12.9999 4.66602C9.79911 4.66602 7.02327 6.4731 5.62744 9.1206Z" fill="#FF3D00"/>
<path d="M13 21.3336C15.1525 21.3336 17.1084 20.5099 18.5871 19.1703L16.008 16.9878C15.1432 17.6454 14.0865 18.0011 13 18.0003C10.8325 18.0003 8.99213 16.6182 8.2988 14.6895L5.5813 16.7832C6.96047 19.482 9.7613 21.3336 13 21.3336Z" fill="#4CAF50"/>
<path d="M21.1712 11.3686H20.5V11.334H13V14.6673H17.7096C17.3809 15.5908 16.7889 16.3978 16.0067 16.9886L16.0079 16.9877L18.5871 19.1702C18.4046 19.3361 21.3333 17.1673 21.3333 13.0007C21.3333 12.4419 21.2758 11.8965 21.1712 11.3686Z" fill="#1976D2"/>
</svg>
