<svg width="24" height="22" viewBox="0 0 24 22" fill="none" xmlns="http://www.w3.org/2000/svg">
<g clip-path="url(#clip0_52_2334)">
<path d="M22.9166 21.3333C22.5092 21.3333 21.8958 21.3171 21.0763 21.2847C20.2569 21.2523 19.6388 21.2361 19.2222 21.2361C18.8148 21.2361 18.2037 21.2523 17.3888 21.2847C16.574 21.3171 15.9629 21.3333 15.5555 21.3333C15.3333 21.3333 15.162 21.2384 15.0416 21.0486C14.9213 20.8588 14.8611 20.6481 14.8611 20.4167C14.8611 20.1296 14.9398 19.9167 15.0972 19.7778C15.2546 19.6389 15.4351 19.5602 15.6388 19.5417C15.8426 19.5231 16.0787 19.4907 16.3472 19.4444C16.6157 19.3981 16.824 19.3287 16.9722 19.2361C17.2777 19.0417 17.4305 18.3935 17.4305 17.2917L17.4166 11.8611C17.4166 11.6667 17.412 11.5231 17.4027 11.4306C17.2824 11.3935 17.0509 11.375 16.7083 11.375H7.33329C6.98144 11.375 6.74533 11.3935 6.62496 11.4306C6.6157 11.5231 6.61107 11.6667 6.61107 11.8611L6.59718 17.0139C6.59718 18.3287 6.76848 19.088 7.11107 19.2917C7.25922 19.3843 7.48144 19.4444 7.77774 19.4722C8.07403 19.5 8.33792 19.5162 8.5694 19.5208C8.80088 19.5255 9.00922 19.5949 9.1944 19.7292C9.37959 19.8634 9.47218 20.0741 9.47218 20.3611C9.47218 20.6019 9.41431 20.8241 9.29857 21.0278C9.18283 21.2315 9.01385 21.3333 8.79163 21.3333C8.35644 21.3333 7.71061 21.3171 6.85413 21.2847C5.99764 21.2523 5.35644 21.2361 4.93051 21.2361C4.53237 21.2361 3.93977 21.2523 3.15274 21.2847C2.3657 21.3171 1.77774 21.3333 1.38885 21.3333C1.17589 21.3333 1.01153 21.2361 0.895793 21.0417C0.780052 20.8472 0.722181 20.6389 0.722181 20.4167C0.722181 20.1389 0.793941 19.9306 0.937459 19.7917C1.08098 19.6528 1.24764 19.5718 1.43746 19.5486C1.62727 19.5255 1.84718 19.4907 2.09718 19.4444C2.34718 19.3981 2.54163 19.3287 2.68051 19.2361C2.98607 19.0231 3.13885 18.3611 3.13885 17.25L3.12496 16.4583V5.16667C3.12496 5.13889 3.12727 5.01852 3.1319 4.80556C3.13653 4.59259 3.13653 4.42361 3.1319 4.29861C3.12727 4.17361 3.12033 3.99537 3.11107 3.76389C3.10181 3.53241 3.08561 3.33796 3.06246 3.18056C3.03931 3.02315 3.00922 2.85417 2.97218 2.67361C2.93514 2.49306 2.88422 2.34722 2.8194 2.23611C2.75459 2.125 2.68051 2.04167 2.59718 1.98611C2.45829 1.89352 2.24996 1.83796 1.97218 1.81944C1.6944 1.80093 1.44903 1.79167 1.23607 1.79167C1.02311 1.79167 0.833293 1.72685 0.666626 1.59722C0.499959 1.46759 0.416626 1.25926 0.416626 0.972222C0.416626 0.731481 0.472182 0.509259 0.583293 0.305556C0.694404 0.101852 0.86107 0 1.08329 0C1.50922 0 2.15042 0.0162037 3.0069 0.0486111C3.86338 0.0810185 4.50459 0.0972222 4.93051 0.0972222C5.3194 0.0972222 5.90505 0.0810185 6.68746 0.0486111C7.46987 0.0162037 8.05551 0 8.4444 0C8.67588 0 8.84949 0.101852 8.96524 0.305556C9.08098 0.509259 9.13885 0.731481 9.13885 0.972222C9.13885 1.25 9.06014 1.45139 8.90274 1.57639C8.74533 1.70139 8.56709 1.76852 8.36801 1.77778C8.16894 1.78704 7.93977 1.80556 7.68051 1.83333C7.42125 1.86111 7.22218 1.9213 7.08329 2.01389C6.75922 2.20833 6.59718 2.94907 6.59718 4.23611L6.61107 8.68056C6.61107 8.875 6.6157 9.02315 6.62496 9.125C6.74533 9.15278 6.92588 9.16667 7.16663 9.16667H16.875C17.1064 9.16667 17.2824 9.15278 17.4027 9.125C17.412 9.02315 17.4166 8.875 17.4166 8.68056L17.4305 4.23611C17.4305 2.94907 17.2685 2.20833 16.9444 2.01389C16.7777 1.91204 16.5069 1.85417 16.1319 1.84028C15.7569 1.82639 15.4513 1.7662 15.2152 1.65972C14.9791 1.55324 14.8611 1.32407 14.8611 0.972222C14.8611 0.731481 14.9189 0.509259 15.0347 0.305556C15.1504 0.101852 15.324 0 15.5555 0C15.9629 0 16.574 0.0162037 17.3888 0.0486111C18.2037 0.0810185 18.8148 0.0972222 19.2222 0.0972222C19.6203 0.0972222 20.2176 0.0810185 21.0138 0.0486111C21.8101 0.0162037 22.4074 0 22.8055 0C23.037 0 23.2106 0.101852 23.3263 0.305556C23.4421 0.509259 23.5 0.731481 23.5 0.972222C23.5 1.25 23.4189 1.4537 23.2569 1.58333C23.0949 1.71296 22.9097 1.78009 22.7013 1.78472C22.493 1.78935 22.2546 1.80324 21.9861 1.82639C21.7176 1.84954 21.5138 1.90741 21.375 2C21.0509 2.21296 20.8888 2.95833 20.8888 4.23611L20.9027 17.3333C20.9027 18.4352 21.0601 19.0833 21.375 19.2778C21.5231 19.3704 21.7361 19.4329 22.0138 19.4653C22.2916 19.4977 22.5393 19.5185 22.7569 19.5278C22.9745 19.537 23.1666 19.6088 23.3333 19.7431C23.5 19.8773 23.5833 20.0833 23.5833 20.3611C23.5833 20.6019 23.5277 20.8241 23.4166 21.0278C23.3055 21.2315 23.1388 21.3333 22.9166 21.3333Z" fill="white"/>
</g>
<defs>
<clipPath id="clip0_52_2334">
<rect width="24" height="21.3333" fill="white"/>
</clipPath>
</defs>
</svg>
