<svg width="25" height="24" viewBox="0 0 25 24" fill="none" xmlns="http://www.w3.org/2000/svg">
<path d="M5.2093 3.30015C4.82278 2.90566 4.18965 2.8992 3.79516 3.28572C3.40067 3.67223 3.39421 4.30537 3.78073 4.69985L5.2093 3.30015ZM19.4575 20.6999C19.844 21.0943 20.4772 21.1008 20.8716 20.7143C21.2661 20.3278 21.2726 19.6946 20.8861 19.3001L19.4575 20.6999ZM17.2243 17.6323C17.7082 17.3662 17.8849 16.7582 17.6188 16.2742C17.3527 15.7902 16.7447 15.6136 16.2607 15.8797L17.2243 17.6323ZM4.09028 13.7789L3.37805 14.4808L4.09028 13.7789ZM4.09171 10.2196L3.37955 9.51759L3.37955 9.51759L4.09171 10.2196ZM8.10968 8.28897C8.5859 8.00927 8.74521 7.39647 8.46551 6.92025C8.18581 6.44403 7.57301 6.28472 7.09679 6.56442L8.10968 8.28897ZM3.25352 12.6202L2.30099 12.9246L2.30099 12.9246L3.25352 12.6202ZM3.25352 11.3796L2.30102 11.075L2.30102 11.075L3.25352 11.3796ZM19.0139 13.8895C18.6029 14.2584 18.5688 14.8906 18.9377 15.3016C19.3066 15.7126 19.9389 15.7467 20.3499 15.3778L19.0139 13.8895ZM20.5753 13.7805L19.8631 13.0784L20.5753 13.7805ZM20.5768 10.2211L19.8646 10.9231L19.8646 10.9231L20.5768 10.2211ZM11.2241 5.0729C10.6765 5.14439 10.2905 5.6463 10.362 6.19394C10.4335 6.74158 10.9354 7.12756 11.4831 7.05607L11.2241 5.0729ZM21.4134 12.6204L22.3659 12.9249L22.3659 12.9249L21.4134 12.6204ZM21.4138 11.3799L22.3663 11.0754L21.4138 11.3799ZM14.2989 14.2429C14.7092 13.8733 14.7422 13.241 14.3726 12.8306C14.0029 12.4203 13.3706 12.3873 12.9603 12.7569L14.2989 14.2429ZM11.6499 11.2982C12.0294 10.897 12.0117 10.2641 11.6105 9.88456C11.2092 9.50506 10.5763 9.52269 10.1968 9.92394L11.6499 11.2982ZM3.78073 4.69985L19.4575 20.6999L20.8861 19.3001L5.2093 3.30015L3.78073 4.69985ZM16.2607 15.8797C15.0336 16.5543 13.7023 17 12.3334 17V19C14.1363 19 15.8008 18.4149 17.2243 17.6323L16.2607 15.8797ZM12.3334 17C9.30756 17 6.52033 14.8199 4.8025 13.0769L3.37805 14.4808C5.14719 16.2759 8.44058 19 12.3334 19V17ZM4.80387 10.9216C5.64544 10.0679 6.78489 9.06706 8.10968 8.28897L7.09679 6.56442C5.57197 7.46 4.29552 8.58839 3.37955 9.51759L4.80387 10.9216ZM4.8025 13.0769C4.32231 12.5897 4.26946 12.5141 4.20606 12.3158L2.30099 12.9246C2.53052 13.6428 2.93781 14.0341 3.37805 14.4808L4.8025 13.0769ZM3.37955 9.51759C2.93865 9.96486 2.53066 10.3567 2.30102 11.075L4.20603 11.6841C4.26941 11.4858 4.32252 11.4099 4.80387 10.9216L3.37955 9.51759ZM4.20606 12.3158C4.20609 12.3158 4.20531 12.3134 4.20397 12.3082C4.20264 12.303 4.20094 12.2957 4.19904 12.2864C4.19516 12.2674 4.19101 12.2426 4.18727 12.2122C4.17969 12.1507 4.17517 12.0775 4.17517 11.9998C4.17517 11.9222 4.17969 11.849 4.18726 11.7875C4.191 11.7571 4.19515 11.7324 4.19902 11.7134C4.20093 11.704 4.20262 11.6968 4.20395 11.6916C4.20529 11.6864 4.20606 11.684 4.20603 11.6841L2.30102 11.075C2.20542 11.3741 2.17517 11.7161 2.17517 11.9999C2.17518 12.2837 2.20545 12.6257 2.30099 12.9246L4.20606 12.3158ZM20.3499 15.3778C20.6929 15.0699 21.0064 14.7675 21.2874 14.4825L19.8631 13.0784C19.6077 13.3375 19.3235 13.6115 19.0139 13.8895L20.3499 15.3778ZM21.289 9.51916C19.5199 7.72407 16.2262 5 12.3334 5V7C15.3593 7 18.1468 9.18009 19.8646 10.9231L21.289 9.51916ZM12.3334 5C11.9575 5 11.5873 5.02548 11.2241 5.0729L11.4831 7.05607C11.7644 7.01934 12.048 7 12.3334 7V5ZM21.2874 14.4825C21.7286 14.035 22.1363 13.6432 22.3659 12.9249L20.4609 12.3159C20.3975 12.5142 20.3443 12.5903 19.8631 13.0784L21.2874 14.4825ZM19.8646 10.9231C20.345 11.4105 20.3979 11.486 20.4613 11.6843L22.3663 11.0754C22.1368 10.3571 21.7291 9.96561 21.289 9.51916L19.8646 10.9231ZM22.3659 12.9249C22.4614 12.6262 22.4918 12.2844 22.4919 12.0006C22.4921 11.7168 22.462 11.3747 22.3663 11.0754L20.4613 11.6843C20.4612 11.6842 20.462 11.6866 20.4633 11.6918C20.4646 11.6969 20.4663 11.7041 20.4682 11.7134C20.4721 11.7324 20.4762 11.7571 20.4799 11.7874C20.4875 11.8489 20.492 11.9221 20.4919 11.9997C20.4919 12.0773 20.4874 12.1505 20.4797 12.2121C20.476 12.2425 20.4718 12.2673 20.4679 12.2864C20.466 12.2958 20.4643 12.303 20.463 12.3082C20.4616 12.3135 20.4609 12.3159 20.4609 12.3159L22.3659 12.9249ZM12.9603 12.7569C12.7895 12.9108 12.5714 12.9999 12.3334 12.9999V14.9999C13.0894 14.9999 13.7787 14.7115 14.2989 14.2429L12.9603 12.7569ZM12.3334 12.9999C11.8226 12.9999 11.3738 12.5716 11.3738 11.9999H9.3738C9.3738 13.6375 10.6797 14.9999 12.3334 14.9999V12.9999ZM11.3738 11.9999C11.3738 11.7234 11.4801 11.4777 11.6499 11.2982L10.1968 9.92394C9.68608 10.464 9.3738 11.1975 9.3738 11.9999H11.3738Z" fill="black"/>
</svg>
