<svg width="20" height="18" viewBox="0 0 20 18" fill="none" xmlns="http://www.w3.org/2000/svg">
<path fill-rule="evenodd" clip-rule="evenodd" d="M7.80327 12.4049C8.42774 12.8283 9.18882 13.0842 9.99868 13.0842C12.1453 13.0842 13.8919 11.322 13.8919 9.15604C13.8919 8.33889 13.6382 7.57098 13.2186 6.94089L12.1551 8.01401C12.3307 8.34874 12.4283 8.74254 12.4283 9.15604C12.4283 10.5048 11.3354 11.6075 9.99868 11.6075C9.58887 11.6075 9.19858 11.509 8.86683 11.3318L7.80327 12.4049ZM16.4288 3.70186C17.8436 5.00141 19.0438 6.75384 19.9415 8.86068C20.0195 9.04774 20.0195 9.26433 19.9415 9.44154C17.8534 14.3444 14.1358 17.2782 9.99868 17.2782H9.98893C8.10575 17.2782 6.30063 16.658 4.71018 15.5258L2.81725 17.4358C2.67089 17.5834 2.4855 17.6523 2.30011 17.6523C2.11472 17.6523 1.91957 17.5834 1.78297 17.4358C1.53903 17.1896 1.5 16.7958 1.69515 16.5103L1.72442 16.4709L16.1556 1.91005C16.1751 1.89036 16.1946 1.87067 16.2044 1.85098L16.2044 1.85097C16.2239 1.83129 16.2434 1.8116 16.2532 1.79191L17.1704 0.866474C17.4631 0.580967 17.9217 0.580967 18.2046 0.866474C18.4974 1.15198 18.4974 1.62455 18.2046 1.91005L16.4288 3.70186ZM6.09836 9.15988C6.09836 9.41585 6.12764 9.67182 6.16667 9.9081L2.55643 13.5508C1.5807 12.4088 0.731804 11.0304 0.0585443 9.44538C-0.0195148 9.26817 -0.0195148 9.05158 0.0585443 8.86452C2.14662 3.96167 5.86419 1.03768 9.99156 1.03768H10.0013C11.3966 1.03768 12.7529 1.37241 14.0018 2.0025L10.7429 5.29076C10.5087 5.25138 10.255 5.22184 10.0013 5.22184C7.84494 5.22184 6.09836 6.98411 6.09836 9.15988Z" fill="#52AB98"/>
</svg>
