<svg width="300" height="300" viewBox="0 0 300 300" fill="none" xmlns="http://www.w3.org/2000/svg">
<rect width="300" height="300" fill="#E5E5E5"/>
<rect width="428" height="926" transform="translate(-64 -140)" fill="white"/>
<g clip-path="url(#clip0_0_1)">
<path d="M74.2296 61.9219L72.1483 72.3152L82.5249 75.0977L81.2356 64.0016L74.2296 61.9219Z" fill="#A0616A"/>
<path d="M13 277.064C13 277.39 13.2758 277.653 13.6192 277.653H285.381C285.724 277.653 286 277.39 286 277.064C286 276.737 285.724 276.475 285.381 276.475H13.6192C13.2758 276.475 13 276.737 13 277.064Z" fill="#3F3D56"/>
<path d="M198.256 135.943H91.241C79.1054 135.943 69.2676 145.301 69.2676 156.844V255.548C69.2676 267.091 79.1054 276.448 91.2409 276.448H198.256C210.392 276.448 220.229 267.091 220.229 255.548V156.844C220.229 145.301 210.392 135.943 198.256 135.943V135.943Z" fill="#F3F3F3"/>
<path d="M198.256 276.943H91.241C78.838 276.943 68.7473 267.346 68.7473 255.548V156.845C68.7473 145.047 78.838 135.449 91.241 135.449H198.256C210.659 135.449 220.75 145.047 220.75 156.845V255.548C220.75 267.346 210.659 276.943 198.256 276.943H198.256ZM91.241 136.439C79.4117 136.439 69.7879 145.593 69.7879 156.845V255.548C69.7879 266.8 79.4117 275.954 91.241 275.954H198.256C210.085 275.954 219.709 266.8 219.709 255.548V156.845C219.709 145.593 210.085 136.439 198.256 136.439H91.241V136.439Z" fill="#52AB98"/>
<path d="M206.008 178.736H162.993C161.169 178.736 159.685 177.324 159.685 175.589C159.685 173.853 161.169 172.441 162.993 172.441H206.008C207.832 172.441 209.317 173.853 209.317 175.589C209.317 177.324 207.832 178.736 206.008 178.736H206.008Z" fill="#52AB98"/>
<path d="M165.655 203.486H123.843C122.789 203.486 121.931 202.67 121.931 201.668C121.931 200.665 122.789 199.85 123.843 199.85H165.655C166.709 199.85 167.566 200.665 167.566 201.668C167.566 202.67 166.709 203.486 165.655 203.486V203.486Z" fill="#52AB98"/>
<path d="M106.558 142.703H82.6863C82.5971 142.703 82.5248 142.772 82.5248 142.857V145.5C82.5248 145.585 82.5971 145.653 82.6863 145.653H106.558C106.647 145.653 106.719 145.585 106.719 145.5V142.857C106.719 142.772 106.647 142.703 106.558 142.703Z" fill="#52AB98"/>
<path d="M186.964 145.654C188.335 145.654 189.446 144.597 189.446 143.294C189.446 141.99 188.335 140.934 186.964 140.934C185.594 140.934 184.483 141.99 184.483 143.294C184.483 144.597 185.594 145.654 186.964 145.654Z" fill="#52AB98"/>
<path d="M193.788 145.654C195.159 145.654 196.27 144.597 196.27 143.294C196.27 141.99 195.159 140.934 193.788 140.934C192.418 140.934 191.307 141.99 191.307 143.294C191.307 144.597 192.418 145.654 193.788 145.654Z" fill="#52AB98"/>
<path d="M200.612 145.654C201.983 145.654 203.094 144.597 203.094 143.294C203.094 141.99 201.983 140.934 200.612 140.934C199.242 140.934 198.131 141.99 198.131 143.294C198.131 144.597 199.242 145.654 200.612 145.654Z" fill="#52AB98"/>
<path d="M90.9805 213.22C90.9805 213.546 91.2563 213.809 91.5997 213.809H197.897C198.241 213.809 198.516 213.546 198.516 213.22C198.516 212.893 198.241 212.631 197.897 212.631H91.5997C91.2563 212.631 90.9805 212.893 90.9805 213.22Z" fill="#52AB98"/>
<path d="M123.399 67.9458C125.662 66.1673 128.461 65.8362 129.651 67.2062C130.841 68.5763 129.971 71.1282 127.707 72.9072C126.813 73.6296 125.75 74.1378 124.607 74.3893L114.918 81.8101L111.354 77.4114L121.283 70.5628C121.759 69.5423 122.484 68.6449 123.399 67.9458H123.399Z" fill="#A0616A"/>
<path d="M67.4015 84.689C67.3966 84.3609 67.3999 81.4982 69.6279 79.6889C72.1874 77.6105 75.7989 78.4517 77.0656 78.7468C79.9917 79.4284 80.2317 80.6223 82.9797 81.8491C88.1207 84.1443 81.6792 82.9695 84.7383 82.2335C85.7972 81.9788 101.031 80.9739 104.823 78.7539C112.198 74.4365 117.223 71.8184 117.223 71.8184L120.508 78.0675C120.508 78.0675 115.758 84.3498 109.072 89.0038C102.215 93.7778 98.786 96.1648 93.5752 97.0871C93.1264 97.1665 82.0904 98.9588 73.2017 92.6423C71.1742 91.2015 67.4594 88.5617 67.4015 84.689V84.6891V84.689Z" fill="#52AB98"/>
<path d="M77.5916 68.7966C83.9116 68.7966 89.0349 63.9234 89.0349 57.912C89.0349 51.9006 83.9116 47.0273 77.5916 47.0273C71.2716 47.0273 66.1482 51.9006 66.1482 57.912C66.1482 63.9234 71.2716 68.7966 77.5916 68.7966Z" fill="#A0616A"/>
<path d="M167.212 131.041L155.427 119.566L149.343 125.602L158.123 136.604L166.833 137.552L167.212 131.041Z" fill="#A0616A"/>
<path d="M99.9183 109.523C100.608 109.578 102.798 109.995 104.892 108.899C106.321 108.152 107.054 107.04 107.301 106.686C110.372 102.3 122.158 95.4592 132.735 95.0383C135.131 94.943 136.707 95.207 138.14 95.9175C140.172 96.925 140.984 98.3683 143.562 101.749C144.973 103.598 146.534 105.341 147.961 107.178C156.319 117.936 159.487 118.78 159.163 122.229C158.804 126.056 154.465 129.686 151.581 129.267C150.4 129.096 149.943 128.315 148.365 126.733C143.739 122.097 141.825 122.954 138.531 119.402C134.686 115.256 135.189 111.819 133.183 111.686C131.322 111.563 130.531 114.495 126.559 118.391C124.742 120.174 123.448 120.992 119.504 123.594C104.149 133.726 103.904 134.438 100.805 135.246C99.4496 135.6 89.8268 138.109 86.3988 134.116C81.0345 127.867 93.7073 109.032 99.9183 109.523L99.9183 109.523Z" fill="#2F2E41"/>
<path d="M163.609 133.633C164.475 133.263 165.489 132.83 165.815 131.835C166.036 131.161 165.909 130.331 165.453 129.757C164.926 129.095 164.148 129.008 164.179 128.89C164.227 128.712 166.069 128.782 168.09 129.462C168.472 129.59 170.2 130.191 172.399 131.823C174.16 133.131 173.923 133.393 175.028 134.148C178.418 136.463 181.599 134.638 183.433 136.809C184.141 137.647 184.443 138.837 184.145 139.799C183.547 141.731 180.637 142.395 179.046 142.739C175.216 143.565 172.317 142.89 169.289 142.405C158.994 140.755 153.209 142.258 152.435 139.989C152.289 139.56 152.527 139.596 153.32 136.445C154.104 133.335 154.078 132.481 154.746 132.232C155.75 131.857 156.424 133.563 158.955 134.146C161.197 134.663 163.047 133.873 163.609 133.633L163.609 133.633Z" fill="#2F2E41"/>
<path d="M146.26 168.578L143.282 152.789L134.685 154.534L135.455 168.328L142.102 173.763L146.26 168.578Z" fill="#A0616A"/>
<path d="M103.281 114.83C103.819 115.243 105.385 116.759 107.764 116.971C109.388 117.115 110.651 116.586 111.064 116.426C116.195 114.436 129.985 115.071 138.986 120.373C141.025 121.573 142.173 122.634 142.94 123.987C144.026 125.906 143.846 127.534 143.983 131.709C144.059 133.992 144.322 136.267 144.418 138.55C144.983 151.916 147.106 154.307 144.802 156.988C142.245 159.962 136.512 160.649 134.373 158.762C133.497 157.989 133.58 157.098 133.208 154.947C132.117 148.64 130.028 148.326 129.399 143.629C128.664 138.144 131.11 135.568 129.529 134.387C128.062 133.291 125.676 135.296 120.09 136.398C117.533 136.902 115.979 136.887 111.181 136.934C92.4932 137.117 91.87 137.575 88.8288 136.589C87.4982 136.157 78.0543 133.094 77.5754 127.958C76.826 119.922 98.4311 111.107 103.281 114.83L103.281 114.83V114.83Z" fill="#2F2E41"/>
<path d="M141.748 168.799C142.683 168.956 143.778 169.139 144.635 168.489C145.215 168.05 145.6 167.295 145.562 166.576C145.517 165.748 144.924 165.259 145.02 165.179C145.165 165.057 146.647 166.099 147.919 167.741C148.159 168.051 149.234 169.471 150.09 171.996C150.775 174.019 150.424 174.11 150.893 175.324C152.332 179.05 156.04 179.239 156.277 182.016C156.368 183.087 155.915 184.233 155.101 184.87C153.465 186.149 150.665 185.144 149.146 184.579C145.489 183.217 143.488 181.11 141.27 179.092C133.725 172.227 128.051 170.381 128.75 168.09C128.882 167.657 129.057 167.814 131.574 165.631C134.059 163.476 134.542 162.756 135.241 162.906C136.293 163.132 135.845 164.903 137.594 166.738C139.144 168.363 141.141 168.698 141.748 168.799H141.748Z" fill="#2F2E41"/>
<path d="M79.1517 59.9932C79.5972 58.4774 79.0376 57.925 79.608 57.2446C79.608 57.2446 79.8375 56.9708 81.8893 56.232C81.2839 52.891 81.7372 52.3261 81.7372 52.3261C82.2596 51.675 83.3061 51.5176 84.0185 51.6028C85.5252 51.7829 85.792 53.0785 86.7561 53.0494C88.0879 53.0092 89.6853 50.4734 89.1895 48.2755C88.785 46.4827 87.0412 45.1513 86.604 45.3823C86.1706 45.6114 84.6103 44.6013 84.0185 44.8037C83.6144 44.9419 81.7122 44.758 81.2809 44.9483C80.8099 45.1562 79.461 46.4503 79.3321 46.2873C78.4359 45.1542 78.4549 44.7585 77.935 44.5143C77.0137 44.0816 76.012 44.8814 74.2849 45.6716C70.7313 47.2975 69.6907 46.3276 68.0493 47.6969C67.2201 48.3886 66.7755 49.7105 65.9201 52.3261C64.7238 55.984 64.1256 57.8129 64.7034 59.5592C65.2926 61.3401 66.1603 60.9525 67.441 63.4651C68.8666 66.262 68.3752 67.8877 69.7223 68.5282C70.7634 69.0233 72.4365 68.7082 73.0682 67.8049C74.1498 66.2584 71.3543 64.1664 72.3078 61.7291C72.893 60.233 74.6985 59.0986 75.8058 59.4145C77.0577 59.7717 77.1499 61.9068 77.935 61.8738C78.6073 61.8455 79.0741 60.2573 79.1517 59.9932L79.1517 59.9932L79.1517 59.9932Z" fill="#2F2E41"/>
<path d="M70.4827 70.4083C72.8244 67.9108 82.3628 70.4957 83.2581 74.4588C83.6263 76.0888 82.2669 76.7771 82.6497 78.654C83.2096 81.3992 86.38 81.212 88.7332 84.0065C92.0741 87.9738 88.6323 91.8519 92.3833 98.4727C93.1849 99.8875 93.8604 101.08 95.273 102.234C98.5144 104.882 101.531 103.974 103.182 106.429C104.416 108.265 103.909 110.528 103.79 111.058C103.303 113.232 101.983 113.762 101.052 115.543C99.5046 118.506 101.257 120.682 101.356 124.223C101.481 128.653 99.006 134.793 94.0563 136.808C88.4955 139.072 81.7888 135.323 78.5433 131.6C76.6068 129.379 76.0446 127.33 75.1974 124.801C71.411 113.498 69.2719 114.521 66.3763 105.561C63.0661 95.3187 62.4154 83.3191 66.3763 79.522C66.9013 79.0187 68.3461 77.8554 69.266 75.7607C70.5038 72.9421 69.4344 71.5262 70.4827 70.4083H70.4827V70.4083Z" fill="#52AB98"/>
<path d="M105.084 128.544C106.9 130.739 107.181 133.408 105.713 134.507C104.245 135.606 101.583 134.718 99.7671 132.522C99.0291 131.655 98.5202 130.632 98.283 129.539L90.7138 120.15L94.6249 117.312L102.384 126.47C103.445 126.947 104.371 127.658 105.084 128.544H105.084H105.084Z" fill="#A0616A"/>
<path d="M77.3631 79.9261C77.6998 79.8546 80.6468 79.2735 82.9636 80.979C85.625 82.9382 85.4961 86.4727 85.4509 87.7125C85.3464 90.5762 84.1666 91.0433 83.4647 93.8524C82.1515 99.1079 84.6523 103.992 86.034 106.69C86.5123 107.624 88.0487 110.482 91.1073 113.56C97.0557 119.547 102.363 122.697 102.363 122.697L96.6614 127.517C96.6614 127.517 87.5792 124.884 81.4251 119.609C75.1124 114.197 65.4045 95.0513 63.3921 90.3873C63.2188 89.9857 65.6737 96.5155 70.3611 86.9498C71.4302 84.7679 73.3892 80.7702 77.3631 79.9261H77.3631Z" fill="#52AB98"/>
<path d="M155.541 226.701C151.917 227.229 149.266 229.436 149.62 231.63C149.974 233.823 153.198 235.173 156.823 234.644C158.275 234.451 159.656 233.931 160.853 233.127L176.179 230.704L175.156 224.941L159.865 227C158.469 226.573 156.987 226.47 155.541 226.701H155.541Z" fill="#FFB6B6"/>
<path d="M221.583 208.74L215.641 220.735L185.766 230.3L160.977 231.558L160.356 225.895L187.222 220.552L214.79 208.16L221.583 208.74Z" fill="#52AB98"/>
<path d="M166.484 254.284L161.149 267.12L154.244 262.642L158.324 249.209L166.484 254.284Z" fill="#FFB6B6"/>
<path d="M144.201 249.506L130.079 262.342L135.728 268.014L150.164 257.267L144.201 249.506Z" fill="#FFB6B6"/>
<path d="M224.23 207.715L224.073 206.67L220.464 199.953L208.538 202.938L210.735 212.192L224.23 207.715Z" fill="#FFB6B6"/>
<path d="M219.209 252.491L219.576 256.975C219.576 256.975 221.092 275.775 208.852 277.268C196.612 278.761 191.277 280.253 184.059 268.611L172.761 249.506L166.161 256.975L157.383 250.402C157.383 250.402 163.659 227.117 168.681 226.222C169.308 226.11 169.936 226.054 170.554 226.042C174.711 225.959 178.63 227.893 181.117 231.063L195.357 249.207L200.535 246.969L219.209 252.491V252.491Z" fill="#2F2E41"/>
<path d="M151.42 266.522L154.244 261.447L162.404 266.821C162.404 266.821 164.287 273.388 161.462 274.283C158.638 275.179 150.792 273.985 150.792 273.985C150.792 273.985 136.355 276.97 136.042 274.283C135.728 271.597 142.632 271 142.632 271L151.42 266.522L151.42 266.522H151.42Z" fill="#2F2E41"/>
<path d="M182.176 262.939L160.364 249.867L149.223 259.357L141.691 250.999C141.691 250.999 155.5 231.595 159.579 230.7C163.659 229.804 170.25 229.207 170.25 229.207L190.336 246.819L182.176 262.939V262.939Z" fill="#2F2E41"/>
<path d="M129.765 261.148L136.983 268.611L136.031 269.386C136.031 269.386 134.158 277.144 129.765 274.519C125.371 271.895 125.057 271.298 125.057 271.298C125.057 271.298 112.504 273.985 111.248 269.208C109.993 264.432 113.445 265.328 113.445 265.328L116.58 267.119L129.765 261.148L129.765 261.148Z" fill="#2F2E41"/>
<path d="M212.304 206.222C217.851 206.222 222.347 201.945 222.347 196.67C222.347 191.394 217.851 187.117 212.304 187.117C206.758 187.117 202.262 191.394 202.262 196.67C202.262 201.945 206.758 206.222 212.304 206.222Z" fill="#FFB6B6"/>
<path d="M209.951 210.251L224.387 206.072C224.387 206.072 230.036 218.61 229.095 224.282C228.153 229.954 219.576 256.975 219.576 256.975L200.535 246.969C200.535 246.969 200.222 240.999 199.28 238.312C198.339 235.625 195.357 227.416 201.948 220.55C208.538 213.684 209.951 210.251 209.951 210.251L209.951 210.251Z" fill="#52AB98"/>
<path d="M178.177 272.933C175.827 275.61 175.375 278.934 177.167 280.355C178.958 281.777 182.314 280.759 184.664 278.081C185.619 277.023 186.293 275.764 186.63 274.407L196.434 262.944L191.658 259.268L181.626 270.436C180.283 270.994 179.1 271.85 178.177 272.933L178.177 272.933Z" fill="#FFB6B6"/>
<path d="M221.024 216.273L224.436 229.13L207.735 254.558L190.686 270.856L185.16 266.496L202.355 246.146L215.388 219.927L221.024 216.273Z" fill="#52AB98"/>
<path d="M203.046 195.027C205.622 195.022 205.768 195.038 206.184 195.027C209.379 194.947 210.214 193.752 211.834 193.833C214.724 193.979 210.909 207.761 209.323 214.132C207.767 220.381 213.025 225.981 213.403 226.372C218.74 231.892 228.114 232.902 229.722 230.551C231.024 228.648 226.41 225.755 227.526 221.595C228.616 217.53 233.65 217.963 235.058 214.132C236.531 210.121 231.579 208.098 228.467 198.311C226.68 192.69 226.996 191.643 225.329 188.162C220.871 178.856 199.024 182.818 201.477 191.445C201.951 193.114 200.689 195.033 203.046 195.027V195.027Z" fill="#2F2E41"/>
<path d="M235.115 81.6276H129.567C126.582 81.6276 124.154 79.3176 124.154 76.4787V23.1489C124.154 20.31 126.582 18 129.567 18H235.115C238.1 18 240.529 20.31 240.529 23.1489V76.4787C240.529 79.3176 238.1 81.6276 235.115 81.6276Z" fill="#F3F3F3"/>
<path d="M235.115 81.6276H129.567C126.582 81.6276 124.154 79.3176 124.154 76.4787V23.1489C124.154 20.31 126.582 18 129.567 18H235.115C238.1 18 240.529 20.31 240.529 23.1489V76.4787C240.529 79.3176 238.1 81.6276 235.115 81.6276ZM129.567 18.8598C127.08 18.8598 125.057 20.784 125.057 23.1489V76.4787C125.057 78.8436 127.08 80.7678 129.567 80.7678H235.115C237.602 80.7678 239.625 78.8436 239.625 76.4787V23.1489C239.625 20.784 237.602 18.8598 235.115 18.8598H129.567Z" fill="#52AB98"/>
<path d="M226.969 24.4486C227.718 24.4486 228.325 23.8712 228.325 23.1589C228.325 22.4466 227.718 21.8691 226.969 21.8691C226.22 21.8691 225.613 22.4466 225.613 23.1589C225.613 23.8712 226.22 24.4486 226.969 24.4486Z" fill="#52AB98"/>
<path d="M230.585 24.4486C231.334 24.4486 231.941 23.8712 231.941 23.1589C231.941 22.4466 231.334 21.8691 230.585 21.8691C229.836 21.8691 229.229 22.4466 229.229 23.1589C229.229 23.8712 229.836 24.4486 230.585 24.4486Z" fill="#52AB98"/>
<path d="M234.201 24.4486C234.95 24.4486 235.557 23.8712 235.557 23.1589C235.557 22.4466 234.95 21.8691 234.201 21.8691C233.452 21.8691 232.845 22.4466 232.845 23.1589C232.845 23.8712 233.452 24.4486 234.201 24.4486Z" fill="#52AB98"/>
<path d="M131.837 44.0098C131.463 44.0098 131.159 44.299 131.159 44.6546C131.159 44.828 131.23 44.9884 131.357 45.1068C131.486 45.2323 131.655 45.2995 131.837 45.2995H233.297C233.671 45.2995 233.975 45.0102 233.975 44.6546C233.975 44.4812 233.904 44.3209 233.777 44.2025C233.648 44.0769 233.479 44.0098 233.297 44.0098H131.837Z" fill="#52AB98"/>
<path d="M220.641 43.7949V45.5146H131.837C131.589 45.5146 131.363 45.42 131.2 45.2609C131.033 45.1062 130.933 44.8912 130.933 44.6548C130.933 44.1818 131.34 43.7949 131.837 43.7949H220.641Z" fill="#52AB98"/>
<path d="M232.167 40.5702H223.127C222.13 40.5702 221.319 39.7989 221.319 38.8505C221.319 37.9021 222.13 37.1309 223.127 37.1309H232.167C233.164 37.1309 233.975 37.9021 233.975 38.8505C233.975 39.7989 233.164 40.5702 232.167 40.5702Z" fill="#52AB98"/>
<path d="M172.957 31.5428H132.515C131.518 31.5428 130.707 30.7716 130.707 29.8232C130.707 28.8748 131.518 28.1035 132.515 28.1035H172.957C173.954 28.1035 174.765 28.8748 174.765 29.8232C174.765 30.7716 173.954 31.5428 172.957 31.5428Z" fill="#52AB98"/>
<path d="M131.837 63.3555C131.463 63.3555 131.159 63.6447 131.159 64.0003C131.159 64.1737 131.23 64.3341 131.357 64.4525C131.486 64.578 131.655 64.6452 131.837 64.6452H233.297C233.671 64.6452 233.975 64.3559 233.975 64.0003C233.975 63.8269 233.904 63.6666 233.777 63.5482C233.648 63.4226 233.479 63.3555 233.297 63.3555H131.837Z" fill="#52AB98"/>
<path d="M185.838 63.1406V64.8603H131.837C131.589 64.8603 131.363 64.7657 131.2 64.6066C131.033 64.4519 130.933 64.2369 130.933 64.0005C130.933 63.5275 131.34 63.1406 131.837 63.1406H185.838Z" fill="#52AB98"/>
<path d="M232.167 59.9159H223.127C222.13 59.9159 221.319 59.1446 221.319 58.1962C221.319 57.2478 222.13 56.4766 223.127 56.4766H232.167C233.164 56.4766 233.975 57.2478 233.975 58.1962C233.975 59.1446 233.164 59.9159 232.167 59.9159Z" fill="#52AB98"/>
</g>
<defs>
<clipPath id="clip0_0_1">
<rect width="273" height="263" fill="white" transform="translate(13 18)"/>
</clipPath>
</defs>
</svg>
