<svg width="300" height="300" viewBox="0 0 300 300" fill="none" xmlns="http://www.w3.org/2000/svg">
<path d="M211.012 148.112V263.022C211.012 267.054 209.366 270.921 206.434 273.773C203.503 276.624 199.527 278.226 195.382 278.226H103.551C99.4052 278.226 95.4295 276.624 92.4981 273.773C89.5667 270.921 87.9199 267.054 87.9199 263.022V34.9972C87.9206 30.965 89.5676 27.0981 92.4988 24.2469C95.43 21.3957 99.4054 19.7936 103.551 19.793H195.382C199.527 19.7936 203.502 21.3957 206.434 24.2469C209.365 27.0981 211.012 30.965 211.012 34.9972V148.112Z" fill="#87C5B8"/>
<path d="M176.422 13.793H122.512C120.445 13.793 118.77 15.4227 118.77 17.4331V25.063C118.77 27.0734 120.445 28.7031 122.512 28.7031H176.422C178.489 28.7031 180.165 27.0734 180.165 25.063V17.4331C180.165 15.4227 178.489 13.793 176.422 13.793Z" fill="#F3F3F3"/>
<path d="M195.855 12.4492H103.076C97.0771 12.4529 91.3248 14.7737 87.084 18.9013C82.8432 23.029 80.4609 28.6258 80.4609 34.4613V265.225C80.4609 271.061 82.8432 276.657 87.084 280.785C91.3248 284.913 97.0771 287.234 103.076 287.237H195.855C201.857 287.237 207.612 284.918 211.856 280.79C216.1 276.662 218.484 271.063 218.484 265.225V34.4613C218.484 28.6234 216.1 23.0245 211.856 18.8964C207.612 14.7683 201.857 12.4492 195.855 12.4492ZM211.014 148.952V263.861C211.014 267.894 209.367 271.761 206.436 274.612C203.505 277.464 199.529 279.065 195.383 279.065H103.553C99.407 279.065 95.4312 277.464 92.4999 274.612C89.5685 271.761 87.9217 267.894 87.9217 263.861V35.8368C87.9223 31.8046 89.5693 27.9377 92.5005 25.0865C95.4318 22.2352 99.4072 20.6332 103.553 20.6326H195.383C199.529 20.6332 203.504 22.2352 206.435 25.0865C209.367 27.9377 211.014 31.8046 211.014 35.8368V148.952Z" fill="#F3F3F3"/>
<path d="M199.928 44.793H99.0078V92.8649H199.928V44.793Z" fill="#F3F3F3"/>
<path d="M239.295 131.934H104.656V136.456H239.295V131.934Z" fill="#F3F3F3"/>
<path d="M239.295 143.824H104.656V148.347H239.295V143.824Z" fill="#F3F3F3"/>
<path d="M239.295 155.715H104.656V160.237H239.295V155.715Z" fill="#F3F3F3"/>
<path d="M239.295 167.605H104.656V172.128H239.295V167.605Z" fill="#F3F3F3"/>
<path d="M239.295 179.504H104.656V184.026H239.295V179.504Z" fill="#F3F3F3"/>
<path d="M239.295 191.395H104.656V195.917H239.295V191.395Z" fill="#F3F3F3"/>
<path d="M239.295 203.285H104.656V207.808H239.295V203.285Z" fill="#F3F3F3"/>
<path d="M239.295 215.18H104.656V219.702H239.295V215.18Z" fill="#F3F3F3"/>
<path d="M224.778 235.809H131.107V240.331H224.778V235.809Z" fill="#F3F3F3"/>
<path d="M234.37 245.316H131.107V249.839H234.37V245.316Z" fill="#F3F3F3"/>
<path d="M113.624 119.734H98.4219V124.43H113.624V119.734Z" fill="#F3F3F3"/>
<path d="M132.581 119.734H117.379V124.43H132.581V119.734Z" fill="#F3F3F3"/>
<path d="M152.812 119.734H137.609V124.43H152.812V119.734Z" fill="#F3F3F3"/>
<path d="M229.853 101.602H104.656V111.255H229.853V101.602Z" fill="#87C5B8"/>
<path d="M115.613 252.031C121.195 252.031 125.719 247.63 125.719 242.201C125.719 236.772 121.195 232.371 115.613 232.371C110.032 232.371 105.508 236.772 105.508 242.201C105.508 247.63 110.032 252.031 115.613 252.031Z" fill="#F3F3F3"/>
<path d="M88.3138 240.557L83.0195 247.434L89.3266 252.028L94.6209 245.152L88.3138 240.557Z" fill="#DE8E68"/>
<path d="M77.6601 255.16H68.0449V261.253H77.6601V255.16Z" fill="#DE8E68"/>
<path d="M48.2853 139.453C48.2853 139.453 28.8574 203.989 28.8574 205.297C28.8574 206.606 83.0822 249.708 84.0868 249.708C85.0914 249.708 89.2646 241.835 89.2646 240.467C89.2646 239.098 76.3571 228.74 76.3571 228.74L48.2853 139.453Z" fill="#56CAD8"/>
<path d="M78.0476 255.293L84.0776 138.395C81.2447 140.372 66.6565 144.415 48.2832 139.453C49.5592 149.716 67.5659 255.928 67.5659 255.928H77.9881L78.0476 255.293Z" fill="#74D5DE"/>
<path d="M47.2503 104.661C44.8198 103.367 19.0119 86.7617 14.7888 86.7617C10.5656 86.7617 10.9132 89.1838 10.9132 89.9156C10.9132 90.6473 11.4322 95.4869 23.2374 98.4694C24.2778 99.7083 41.5203 116.705 46.6695 118.731C46.7266 113.384 47.2503 104.661 47.2503 104.661Z" fill="#DE8E68"/>
<path d="M67.3096 53.707C35.2694 53.707 46.5223 137.057 48.2816 139.454C50.0408 141.85 82.7286 143.488 84.7378 137.4C86.0685 133.371 92.9079 53.707 67.3096 53.707Z" fill="#FED385"/>
<path d="M21.043 94.7377L7 85.8318L14.6774 81.7031L28.3752 90.0879L21.043 94.7377Z" fill="#333333"/>
<path d="M69.8754 88.5534C69.8159 90.869 71.8536 106.576 74.7841 114.125C73.6748 119.682 67.5781 150.788 67.5781 150.788L71.8632 156.178C71.8632 156.178 87.5417 123.792 88.3344 118.728C89.1271 113.664 87.225 88.5534 86.906 87.3215C86.587 86.0896 69.8754 88.5534 69.8754 88.5534Z" fill="#DE8E68"/>
<path d="M77.5581 61.6302C87.1208 61.4264 89.8109 86.1455 88.1993 88.3406C86.5876 90.5358 69.5522 92.21 67.6168 90.119C65.6814 88.028 67.4358 61.8455 77.5581 61.6302Z" fill="#FED892"/>
<path d="M70.2577 41.5312H59.6094V57.8053C59.6094 59.8894 70.2577 59.7666 70.2577 57.8053V41.5312Z" fill="#D37C59"/>
<path d="M72.4464 34.4912C72.9882 25.2395 68.9422 17.491 63.4095 17.1844C57.8767 16.8779 52.9524 24.1294 52.4106 33.3811C51.8689 42.6328 55.9149 50.3813 61.4476 50.6879C66.9803 50.9944 71.9047 43.7429 72.4464 34.4912Z" fill="#DE8E68"/>
<path d="M41.4902 28.9039C41.4902 27.283 42.4425 25.4305 42.4425 23.578C42.4425 21.9571 41.7283 20.1046 41.7283 17.789C41.7283 13.8525 45.7753 12 47.9178 12C51.9648 12 52.917 14.7787 59.3446 14.7787C63.1535 14.7787 64.8199 13.8525 66.9624 13.8525C73.628 13.8525 74.5803 21.9571 74.5803 22.8833C74.5803 26.8199 80.0556 27.0514 80.0556 31.2195C80.0556 35.156 75.7706 39.7872 72.4378 39.7872C69.1049 39.7872 66.0102 36.777 66.0102 35.8507C66.0102 33.7667 66.4863 33.3035 66.4863 31.9142C66.4863 27.0514 55.5928 25.8936 53.9264 25.8936C53.0851 28.3655 52.5856 30.9352 52.4409 33.5351C51.9648 33.7667 50.2984 34.2298 48.632 34.2298C47.4417 34.2298 41.4902 32.8404 41.4902 28.9039Z" fill="#FD8369"/>
<path d="M70.6539 42.8003C72.0344 42.8003 73.1535 41.7117 73.1535 40.3689C73.1535 39.0261 72.0344 37.9375 70.6539 37.9375C69.2734 37.9375 68.1543 39.0261 68.1543 40.3689C68.1543 41.7117 69.2734 42.8003 70.6539 42.8003Z" fill="#DE8E68"/>
<path d="M77.8578 260.562H67.638L51.2168 266.873V269.274H77.8578V260.562Z" fill="black"/>
<path d="M94.2036 244.648L88.5759 251.956L84.3027 267.175L86.1167 268.497L100.786 249.444L94.2036 244.648Z" fill="black"/>
<path d="M178.412 157.211C176.901 157.211 176.191 160.974 176.191 164.088C176.208 173.487 177.096 182.864 178.846 192.107C179.172 192.107 179.503 192.086 179.838 192.086C184.39 192.086 188.08 193.33 188.08 194.865C188.08 196.4 184.466 197.616 179.986 197.644C180.055 197.949 180.122 198.253 180.193 198.556C184.581 198.619 188.085 199.837 188.085 201.335C188.085 202.671 185.283 203.787 181.552 204.051C189.611 234.427 205.018 258.405 215.409 269.583H228.9V258.519C228.895 239.227 194.743 157.211 178.412 157.211Z" fill="#56CAD8"/>
<path d="M281.872 189.454C272.947 189.454 271.997 198.767 265.958 198.767C263.627 198.767 262.982 196.375 262.982 194.11C262.982 190.25 269.393 175.921 269.931 166.719C269.302 166.831 268.665 166.887 268.026 166.886C263.803 166.886 260.377 164.499 260.377 161.56C260.377 158.622 263.803 156.234 268.026 156.234C268.217 156.234 268.405 156.234 268.59 156.25C266.569 149.473 261.842 142.398 251.45 142.398C234.372 142.398 229.713 171.848 227.126 183.804C225.523 191.214 208.479 217.785 208.479 237.452C208.479 254.786 213.954 269.571 215.382 269.571H232.553C232.553 264.245 243.202 254.406 245.735 251.713C263.26 233.08 292.156 224.605 292.156 202.808C292.165 198.012 290.916 189.454 281.872 189.454Z" fill="#74D5DE"/>
</svg>
