<svg width="300" height="300" viewBox="0 0 300 300" fill="none" xmlns="http://www.w3.org/2000/svg">
<path fill-rule="evenodd" clip-rule="evenodd" d="M15 21H284V201.748H15V21Z" fill="#F3F3F3"/>
<path d="M167.385 58.5508H198.925" stroke="#52AB98" stroke-width="12.98" stroke-linecap="round" stroke-linejoin="round"/>
<path d="M167.385 68.832H195.469" stroke="#52AB98" stroke-width="12.98" stroke-linecap="round" stroke-linejoin="round"/>
<path d="M82.1367 202.139V21.3945" stroke="#DFDFDF" stroke-width="2.93" stroke-linecap="round"/>
<path d="M149.273 202.139V21.3945" stroke="#DFDFDF" stroke-width="2.93" stroke-linecap="round"/>
<path d="M216.41 202.139V21.3945" stroke="#DFDFDF" stroke-width="2.93" stroke-linecap="round"/>
<path fill-rule="evenodd" clip-rule="evenodd" d="M132.566 269.362L133.16 276.313L139.274 276.46L138.14 269.102L132.566 269.362Z" fill="#E49D75"/>
<path fill-rule="evenodd" clip-rule="evenodd" d="M76.8581 256.973L74.0195 266.525L76.9185 269.536L82.0623 261.174L76.8581 256.973Z" fill="#E49D75"/>
<path fill-rule="evenodd" clip-rule="evenodd" d="M132.12 274.753L132.01 279.904L148.035 279.807C148.146 279.881 148.065 277.282 148.065 277.282L138.529 274.68L132.12 274.753Z" fill="black"/>
<path fill-rule="evenodd" clip-rule="evenodd" d="M73.8015 264.887L70.5469 269.312L77.3515 278.918L83.7803 278.962L83.693 275.717L81.1162 274.58L78.8312 268.931L73.8015 264.887Z" fill="black"/>
<path fill-rule="evenodd" clip-rule="evenodd" d="M138.158 69.9414H169.463V101.149H138.158V69.9414Z" fill="#E0E0E0"/>
<path fill-rule="evenodd" clip-rule="evenodd" d="M138.158 69.9414H169.463V76.912H138.158V69.9414Z" fill="#A4A4A4"/>
<path fill-rule="evenodd" clip-rule="evenodd" d="M102.148 107.091C103.779 106.733 109.584 106.887 111.137 106.057C112.691 105.227 131.866 90.9049 133.796 88.9549C135.725 87.0049 138.111 85.3124 139.835 83.1918C141.56 81.0711 139.892 86.948 138.386 88.1053C138.211 89.6774 138.168 92.9687 138.168 92.9687C137.769 92.8988 137.36 92.9136 136.967 93.0121C136.575 93.1107 136.207 93.2908 135.89 93.5406C134.802 94.3902 119.079 112.837 119.079 112.837C119.079 112.837 100.518 107.452 102.148 107.091Z" fill="#E49D75"/>
<path fill-rule="evenodd" clip-rule="evenodd" d="M87.9047 162.198C86.9317 165.877 85.056 191.633 90.8238 204.517C88.3208 213.939 75.6074 257.85 75.6074 257.85L81.9289 263.403L114.516 214.234C114.516 214.234 107.731 160.445 87.9047 162.198Z" fill="#5FC5D1"/>
<path fill-rule="evenodd" clip-rule="evenodd" d="M121.176 160.604C122.495 164.26 135.97 212.225 135.97 212.225L139.016 270.489L132.044 271.037L110.385 212.369C107.741 209.382 90.9444 169.291 90.1895 164.147C93.4911 160.648 119.857 156.945 121.176 160.604Z" fill="#6BD5E1"/>
<path fill-rule="evenodd" clip-rule="evenodd" d="M96.9303 104.766C99.5844 104.766 114.616 108.398 117.441 114.252C118.995 117.469 125.81 156.808 122.025 162.992C118.24 169.177 92.1624 168.913 87.0757 164.25C84.2136 161.634 83.2909 104.746 96.9303 104.766Z" fill="#FFD98E"/>
<path fill-rule="evenodd" clip-rule="evenodd" d="M15 21H284V45.1965H15V21Z" fill="#E0E0E0"/>
<path d="M27.4648 59.3672H69.2185" stroke="#52AB98" stroke-width="12.98" stroke-linecap="round" stroke-linejoin="round"/>
<path fill-rule="evenodd" clip-rule="evenodd" d="M93.6016 98.0664H99.3593V109.205C97.2891 110.847 93.6016 109.205 93.6016 109.205V98.0664Z" fill="#E49D75"/>
<path fill-rule="evenodd" clip-rule="evenodd" d="M86.2363 88.0001C86.2363 81.0596 90.964 75.4336 96.7989 75.4336C102.634 75.4336 107.358 81.0596 107.358 88.0001C107.358 94.9406 102.63 100.57 96.7989 100.57C90.9673 100.57 86.2363 94.9406 86.2363 88.0001Z" fill="#E49D75"/>
<path fill-rule="evenodd" clip-rule="evenodd" d="M95.5281 73.3653C98.9103 73.2884 103.208 75.4324 103.208 76.9208C103.208 79.4964 99.2022 85.3364 96.2193 87.7313C97.0548 89.6546 97.8198 90.9256 97.8198 92.5579C97.8198 94.1902 95.2731 100.585 95.2731 104.934C95.2731 108.345 96.0381 110.667 96.0381 113.497C96.0381 121.226 90.9783 125.906 83.6603 125.906C76.3424 125.906 71.4268 117.995 71.3966 111.573C71.3597 103.7 80.1205 94.0363 82.2444 88.0993C84.0328 83.0887 87.4183 73.3653 95.5281 73.3653Z" fill="black"/>
<path fill-rule="evenodd" clip-rule="evenodd" d="M93.293 88.6474C93.293 88.126 93.4481 87.6163 93.7388 87.1828C94.0295 86.7493 94.4426 86.4114 94.9259 86.212C95.4093 86.0126 95.941 85.9606 96.454 86.0626C96.967 86.1646 97.4381 86.4159 97.8077 86.7849C98.1774 87.1538 98.4289 87.6238 98.5306 88.1353C98.6322 88.6468 98.5794 89.1769 98.3787 89.6584C98.1781 90.14 97.8387 90.5514 97.4035 90.8406C96.9682 91.1298 96.4567 91.2838 95.9336 91.2832C95.5866 91.2832 95.2429 91.215 94.9223 91.0825C94.6017 90.95 94.3105 90.7558 94.0652 90.511C93.82 90.2662 93.6255 89.9756 93.493 89.6558C93.3605 89.3361 93.2925 88.9934 93.293 88.6474Z" fill="#E49D75"/>
<path fill-rule="evenodd" clip-rule="evenodd" d="M121.736 126.147C124.702 126.849 136.852 128.88 139.183 128.154C141.515 127.428 165.54 104.59 167.412 102.9C169.284 101.211 173.042 98.8197 173.495 95.8963C173.948 92.9729 173.495 90.471 169.422 89.006C169.499 90.8924 169.573 93.8359 169.492 93.3977C168.804 91.1232 168.724 88.5444 167.479 88.5745C166.808 90.7018 167.754 94.7122 166.103 97.3981C164.208 99.4519 139.029 115.922 136.385 116.755C132.936 116.755 124.091 113.744 124.091 113.744C124.091 113.744 118.773 125.445 121.736 126.147Z" fill="#E49D75"/>
<path fill-rule="evenodd" clip-rule="evenodd" d="M102.017 114.351C104.071 105.755 122.085 110.301 125.115 112.712C126.175 115.987 124.508 125.7 121.861 127.503C117.884 128.079 99.8295 123.496 102.017 114.351Z" fill="#FFE4AD"/>
<path d="M27.4648 77.668H59.0049" stroke="#52AB98" stroke-width="12.98" stroke-linecap="round" stroke-linejoin="round"/>
<path d="M27.4648 109.105H44.5602" stroke="#52AB98" stroke-width="12.98" stroke-linecap="round" stroke-linejoin="round"/>
<path d="M27.4648 120.969H59.0049" stroke="#52AB98" stroke-width="12.98" stroke-linecap="round" stroke-linejoin="round"/>
<path d="M27.4648 131.246H55.5489" stroke="#52AB98" stroke-width="12.98" stroke-linecap="round" stroke-linejoin="round"/>
<path d="M228 57.9102H269.754" stroke="#52AB98" stroke-width="12.98" stroke-linecap="round" stroke-linejoin="round"/>
<path d="M228 69.3125H257.191" stroke="#52AB98" stroke-width="12.98" stroke-linecap="round" stroke-linejoin="round"/>
<path d="M228 81.4453H267.21" stroke="#52AB98" stroke-width="12.98" stroke-linecap="round" stroke-linejoin="round"/>
<path d="M228 92.4805H247.763" stroke="#52AB98" stroke-width="12.98" stroke-linecap="round" stroke-linejoin="round"/>
<path d="M148.206 84.018H148.166L146.065 85.1251L145.75 83.8942L148.374 82.4961H149.756V94.4572H148.206V84.018Z" fill="#A4A4A4"/>
<path d="M161.927 82.5078V83.5748L156.699 94.4689H155.022L160.226 83.8859V83.8491H154.357V82.5112L161.927 82.5078Z" fill="#A4A4A4"/>
</svg>
