<svg width="40" height="40" viewBox="0 0 40 40" fill="none" xmlns="http://www.w3.org/2000/svg">
<path d="M29.9993 36.6668H9.99935C9.11529 36.6668 8.26745 36.3156 7.64233 35.6905C7.0172 35.0654 6.66602 34.2176 6.66602 33.3335V6.66683C6.66602 5.78278 7.0172 4.93493 7.64233 4.30981C8.26745 3.68469 9.11529 3.3335 9.99935 3.3335H21.666C21.681 3.33154 21.6961 3.33154 21.711 3.3335H21.721C21.7368 3.33842 21.7529 3.34177 21.7693 3.3435C21.916 3.3535 22.061 3.38183 22.201 3.4285H22.271C22.3018 3.45003 22.3308 3.474 22.3577 3.50016C22.5392 3.5809 22.7047 3.69383 22.846 3.8335L32.846 13.8335C32.9857 13.9748 33.0986 14.1403 33.1793 14.3218C33.1939 14.3579 33.2067 14.3946 33.2177 14.4318L33.2343 14.4785C33.281 14.6168 33.3077 14.7618 33.316 14.9085C33.3175 14.9251 33.3214 14.9414 33.3277 14.9568V14.9668C33.3303 14.9778 33.332 14.9889 33.3327 15.0002V33.3335C33.3327 34.2176 32.9815 35.0654 32.3564 35.6905C31.7312 36.3156 30.8834 36.6668 29.9993 36.6668ZM24.0393 23.3335V31.6668H25.606V28.2668H28.0393V26.8702H25.606V24.7352H28.3327V23.3335H24.0393ZM17.8727 23.3335V31.6668H19.8827C20.299 31.6874 20.7146 31.6142 21.0988 31.4527C21.4831 31.2912 21.8261 31.0454 22.1027 30.7335C22.6775 30 22.9655 29.0822 22.9127 28.1518V26.8018C22.9515 25.8812 22.6554 24.9777 22.0793 24.2585C21.5377 23.6418 20.746 23.3018 19.9243 23.3335H17.8727ZM11.666 23.3335V31.6668H13.2327V28.7352H14.276C14.9727 28.7735 15.6527 28.5152 16.1493 28.0252C16.6225 27.4957 16.868 26.8011 16.8327 26.0918C16.8636 25.3655 16.6183 24.6545 16.146 24.1018C15.9153 23.846 15.6308 23.6444 15.313 23.5116C14.9951 23.3787 14.6518 23.3179 14.3077 23.3335H11.666ZM21.666 6.66683V15.0002H29.9993L21.666 6.66683ZM19.9093 30.2702H19.4393V24.7352H20.0093C20.2085 24.7234 20.4075 24.7618 20.588 24.8468C20.7685 24.9319 20.9249 25.0608 21.0427 25.2218C21.2877 25.7268 21.3927 26.2885 21.346 26.8485V28.2968C21.3827 28.8302 21.2677 29.3635 21.0127 29.8318C20.8781 29.9889 20.7074 30.1109 20.5151 30.1873C20.3229 30.2636 20.115 30.2921 19.9093 30.2702ZM14.3077 27.3335H13.231V24.7352H14.3227C14.4567 24.7366 14.5883 24.7721 14.7049 24.8383C14.8215 24.9044 14.9194 24.9991 14.9893 25.1135C15.1693 25.4118 15.256 25.7552 15.2393 26.1035C15.2602 26.4276 15.1742 26.7497 14.9943 27.0202C14.9126 27.1227 14.8078 27.2046 14.6885 27.259C14.5692 27.3135 14.4387 27.339 14.3077 27.3335Z" fill="white"/>
</svg>
