<svg width="25" height="25" viewBox="0 0 25 25" fill="none" xmlns="http://www.w3.org/2000/svg">
<circle cx="12.4996" cy="12.5003" r="12.4996" fill="#CDE7E2"/>
<path d="M7.73395 12.4996C7.73395 12.3607 7.75999 12.2264 7.81207 12.0965C7.86415 11.9659 7.93359 11.8573 8.0204 11.7705L12.8119 6.97895C13.0029 6.78799 13.2459 6.6925 13.541 6.6925C13.8362 6.6925 14.0792 6.78799 14.2702 6.97895C14.4612 7.16992 14.5566 7.41297 14.5566 7.7081C14.5566 8.00323 14.4612 8.24627 14.2702 8.43724L10.2078 12.4996L14.2702 16.562C14.4612 16.7529 14.5566 16.996 14.5566 17.2911C14.5566 17.5862 14.4612 17.8293 14.2702 18.0203C14.0792 18.2112 13.8362 18.3067 13.541 18.3067C13.2459 18.3067 13.0029 18.2112 12.8119 18.0203L8.0204 13.2288C7.91623 13.1246 7.84262 13.0117 7.79957 12.8902C7.75582 12.7687 7.73395 12.6385 7.73395 12.4996Z" fill="#11282E"/>
</svg>
