<svg width="24" height="24" viewBox="0 0 24 24" fill="none" xmlns="http://www.w3.org/2000/svg">
<circle cx="12" cy="12" r="12" fill="#EFEFEF"/>
<path d="M7.42461 12.0008C7.42461 11.8674 7.44961 11.7384 7.49961 11.6138C7.54961 11.4884 7.61628 11.3841 7.69961 11.3008L12.2996 6.70078C12.4829 6.51745 12.7163 6.42578 12.9996 6.42578C13.2829 6.42578 13.5163 6.51745 13.6996 6.70078C13.8829 6.88411 13.9746 7.11745 13.9746 7.40078C13.9746 7.68411 13.8829 7.91745 13.6996 8.10078L9.79961 12.0008L13.6996 15.9008C13.8829 16.0841 13.9746 16.3174 13.9746 16.6008C13.9746 16.8841 13.8829 17.1174 13.6996 17.3008C13.5163 17.4841 13.2829 17.5758 12.9996 17.5758C12.7163 17.5758 12.4829 17.4841 12.2996 17.3008L7.69961 12.7008C7.59961 12.6008 7.52894 12.4924 7.48761 12.3758C7.44561 12.2591 7.42461 12.1341 7.42461 12.0008Z" fill="#626262"/>
<path d="M7.42461 12.0008C7.42461 11.8674 7.44961 11.7384 7.49961 11.6138C7.54961 11.4884 7.61628 11.3841 7.69961 11.3008L12.2996 6.70078C12.4829 6.51745 12.7163 6.42578 12.9996 6.42578C13.2829 6.42578 13.5163 6.51745 13.6996 6.70078C13.8829 6.88411 13.9746 7.11745 13.9746 7.40078C13.9746 7.68411 13.8829 7.91745 13.6996 8.10078L9.79961 12.0008L13.6996 15.9008C13.8829 16.0841 13.9746 16.3174 13.9746 16.6008C13.9746 16.8841 13.8829 17.1174 13.6996 17.3008C13.5163 17.4841 13.2829 17.5758 12.9996 17.5758C12.7163 17.5758 12.4829 17.4841 12.2996 17.3008L7.69961 12.7008C7.59961 12.6008 7.52894 12.4924 7.48761 12.3758C7.44561 12.2591 7.42461 12.1341 7.42461 12.0008Z" fill="#626262"/>
</svg>
