<svg width="40" height="40" viewBox="0 0 40 40" fill="none" xmlns="http://www.w3.org/2000/svg">
<path d="M33.2661 19.1098L28.5317 23.8442C27.7192 24.6568 26.7545 25.3014 25.6929 25.7412C24.6312 26.181 23.4933 26.4073 22.3442 26.4073C21.1951 26.4073 20.0572 26.181 18.9955 25.7412C17.9339 25.3014 16.9692 24.6568 16.1567 23.8442C15.9564 23.6775 15.793 23.4708 15.6771 23.2374C15.5611 23.004 15.4951 22.749 15.4832 22.4886C15.4713 22.2282 15.5138 21.9683 15.608 21.7253C15.7023 21.4823 15.8461 21.2616 16.0304 21.0773C16.2147 20.893 16.4354 20.7491 16.6784 20.6549C16.9214 20.5607 17.1814 20.5182 17.4417 20.5301C17.7021 20.5419 17.9571 20.608 18.1905 20.7239C18.4239 20.8399 18.6306 21.0033 18.7973 21.2036C19.7393 22.1358 21.0111 22.6587 22.3364 22.6587C23.6617 22.6587 24.9335 22.1358 25.8754 21.2036L30.6098 16.4692C31.5484 15.5306 32.0757 14.2575 32.0757 12.9301C32.0757 11.6027 31.5484 10.3297 30.6098 9.39107C29.6712 8.45245 28.3982 7.92514 27.0708 7.92514C25.7434 7.92514 24.4703 8.45245 23.5317 9.39107L22.0317 10.9067C21.6795 11.2589 21.2017 11.4568 20.7036 11.4568C20.2054 11.4568 19.7277 11.2589 19.3754 10.9067C19.0232 10.5545 18.8253 10.0767 18.8253 9.57857C18.8253 9.08043 19.0232 8.60269 19.3754 8.25045L20.8911 6.73482C22.5321 5.09379 24.7578 4.17188 27.0786 4.17188C29.3993 4.17188 31.625 5.09379 33.2661 6.73482C34.9071 8.37585 35.829 10.6016 35.829 12.9223C35.829 15.2431 34.9071 17.4688 33.2661 19.1098ZM17.9692 29.0942L16.4692 30.6098C15.5306 31.5484 14.2575 32.0757 12.9301 32.0757C11.6027 32.0757 10.3297 31.5484 9.39107 30.6098C8.45245 29.6712 7.92514 28.3982 7.92514 27.0708C7.92514 25.7434 8.45245 24.4703 9.39107 23.5317L14.1254 18.7973C15.0674 17.8651 16.3392 17.3422 17.6645 17.3422C18.9898 17.3422 20.2616 17.8651 21.2036 18.7973C21.563 19.0965 22.0214 19.2506 22.4886 19.2293C22.9558 19.208 23.3982 19.0128 23.7289 18.6821C24.0597 18.3513 24.2548 17.9089 24.2762 17.4417C24.2975 16.9745 24.1434 16.5162 23.8442 16.1567C23.0327 15.3422 22.0684 14.696 21.0066 14.255C19.9448 13.8141 18.8064 13.5871 17.6567 13.5871C16.507 13.5871 15.3686 13.8141 14.3068 14.255C13.245 14.696 12.2807 15.3422 11.4692 16.1567L6.73482 20.8911C5.09379 22.5321 4.17188 24.7578 4.17188 27.0786C4.17188 29.3993 5.09379 31.625 6.73482 33.2661C8.37585 34.9071 10.6016 35.829 12.9223 35.829C15.2431 35.829 17.4688 34.9071 19.1098 33.2661L20.6254 31.7504C20.9777 31.3982 21.1756 30.9205 21.1756 30.4223C21.1756 29.9242 20.9777 29.4464 20.6254 29.0942C20.2732 28.742 19.7955 28.5441 19.2973 28.5441C18.7992 28.5441 18.3214 28.742 17.9692 29.0942Z" fill="white"/>
</svg>
