<svg width="16" height="16" viewBox="0 0 16 16" fill="none" xmlns="http://www.w3.org/2000/svg">
<g clip-path="url(#clip0_219_655)">
<path fill-rule="evenodd" clip-rule="evenodd" d="M6.99993 1.33331C6.09632 1.33339 5.20583 1.54956 4.40276 1.96378C3.59969 2.378 2.90732 2.97826 2.38342 3.71448C1.85951 4.45071 1.51926 5.30154 1.39106 6.19601C1.26286 7.09047 1.35042 8.00263 1.64644 8.85637C1.94246 9.71011 2.43836 10.4807 3.09275 11.1038C3.74714 11.7269 4.54106 12.1845 5.40827 12.4384C6.27547 12.6923 7.19082 12.7351 8.07794 12.5633C8.96506 12.3914 9.79822 12.01 10.5079 11.4506L12.9426 13.8853C13.0683 14.0068 13.2367 14.0739 13.4115 14.0724C13.5863 14.0709 13.7535 14.0008 13.8771 13.8772C14.0007 13.7536 14.0709 13.5864 14.0724 13.4116C14.0739 13.2368 14.0067 13.0684 13.8853 12.9426L11.4506 10.508C12.1093 9.67239 12.5194 8.66825 12.634 7.61046C12.7486 6.55268 12.5631 5.48399 12.0987 4.52671C11.6344 3.56942 10.9098 2.76222 10.0081 2.19747C9.1064 1.63272 8.0639 1.33324 6.99993 1.33331ZM2.66659 6.99998C2.66659 5.85071 3.12314 4.74851 3.9358 3.93585C4.74845 3.12319 5.85065 2.66665 6.99993 2.66665C8.1492 2.66665 9.2514 3.12319 10.0641 3.93585C10.8767 4.74851 11.3333 5.85071 11.3333 6.99998C11.3333 8.14925 10.8767 9.25145 10.0641 10.0641C9.2514 10.8768 8.1492 11.3333 6.99993 11.3333C5.85065 11.3333 4.74845 10.8768 3.9358 10.0641C3.12314 9.25145 2.66659 8.14925 2.66659 6.99998Z" fill="#496164"/>
</g>
<defs>
<clipPath id="clip0_219_655">
<rect width="16" height="16" fill="white"/>
</clipPath>
</defs>
</svg>
