<svg width="22" height="20" viewBox="0 0 22 20" fill="none" xmlns="http://www.w3.org/2000/svg">
<path d="M8.24995 20L7.84995 16.8C7.63329 16.7167 7.42928 16.6167 7.23795 16.5C7.04595 16.3833 6.85828 16.2583 6.67495 16.125L3.69995 17.375L0.949951 12.625L3.52495 10.675C3.50828 10.5583 3.49995 10.4457 3.49995 10.337V9.662C3.49995 9.554 3.50828 9.44167 3.52495 9.325L0.949951 7.375L3.69995 2.625L6.67495 3.875C6.85828 3.74167 7.04995 3.61667 7.24995 3.5C7.44995 3.38333 7.64995 3.28333 7.84995 3.2L8.24995 0H13.75L14.15 3.2C14.3666 3.28333 14.571 3.38333 14.763 3.5C14.9543 3.61667 15.1416 3.74167 15.325 3.875L18.2999 2.625L21.0499 7.375L18.475 9.325C18.4916 9.44167 18.5 9.554 18.5 9.662V10.337C18.5 10.4457 18.4833 10.5583 18.45 10.675L21.025 12.625L18.275 17.375L15.325 16.125C15.1416 16.2583 14.95 16.3833 14.75 16.5C14.55 16.6167 14.35 16.7167 14.15 16.8L13.75 20H8.24995ZM11.05 13.5C12.0166 13.5 12.8416 13.1583 13.525 12.475C14.2083 11.7917 14.55 10.9667 14.55 10C14.55 9.03333 14.2083 8.20833 13.525 7.525C12.8416 6.84167 12.0166 6.5 11.05 6.5C10.0666 6.5 9.23728 6.84167 8.56195 7.525C7.88729 8.20833 7.54995 9.03333 7.54995 10C7.54995 10.9667 7.88729 11.7917 8.56195 12.475C9.23728 13.1583 10.0666 13.5 11.05 13.5ZM11.05 11.5C10.6333 11.5 10.2793 11.354 9.98795 11.062C9.69595 10.7707 9.54995 10.4167 9.54995 10C9.54995 9.58333 9.69595 9.22933 9.98795 8.938C10.2793 8.646 10.6333 8.5 11.05 8.5C11.4666 8.5 11.821 8.646 12.113 8.938C12.4043 9.22933 12.55 9.58333 12.55 10C12.55 10.4167 12.4043 10.7707 12.113 11.062C11.821 11.354 11.4666 11.5 11.05 11.5ZM9.99995 18H11.975L12.325 15.35C12.8416 15.2167 13.321 15.0207 13.763 14.762C14.2043 14.504 14.6083 14.1917 14.975 13.825L17.45 14.85L18.4249 13.15L16.275 11.525C16.3583 11.2917 16.4166 11.0457 16.45 10.787C16.4833 10.529 16.5 10.2667 16.5 10C16.5 9.73333 16.4833 9.47067 16.45 9.212C16.4166 8.954 16.3583 8.70833 16.275 8.475L18.4249 6.85L17.45 5.15L14.975 6.2C14.6083 5.81667 14.2043 5.49567 13.763 5.237C13.321 4.979 12.8416 4.78333 12.325 4.65L12 2H10.025L9.67495 4.65C9.15829 4.78333 8.67928 4.979 8.23795 5.237C7.79595 5.49567 7.39162 5.80833 7.02495 6.175L4.54995 5.15L3.57495 6.85L5.72495 8.45C5.64162 8.7 5.58328 8.95 5.54995 9.2C5.51662 9.45 5.49995 9.71667 5.49995 10C5.49995 10.2667 5.51662 10.525 5.54995 10.775C5.58328 11.025 5.64162 11.275 5.72495 11.525L3.57495 13.15L4.54995 14.85L7.02495 13.8C7.39162 14.1833 7.79595 14.504 8.23795 14.762C8.67928 15.0207 9.15829 15.2167 9.67495 15.35L9.99995 18Z" fill="white"/>
</svg>
