<svg width="24" height="22" viewBox="0 0 24 22" fill="none" xmlns="http://www.w3.org/2000/svg">
<g clip-path="url(#clip0_52_2356)">
<path d="M9.09042 17.6725C8.9675 17.4258 8.75333 17.4008 8.66667 17.4008C8.58 17.4008 8.36583 17.4254 8.24917 17.6588L7.92958 18.2979C7.66417 18.8304 6.88667 18.7717 6.70125 18.2108L6 16.1079L5.55792 17.4363C5.3125 18.1721 4.62542 18.6667 3.84958 18.6667H3.33333C2.965 18.6667 2.66667 18.3683 2.66667 18C2.66667 17.6317 2.965 17.3333 3.33333 17.3333H3.84958C4.05083 17.3333 4.22917 17.205 4.29292 17.0142L5.05083 14.7375C5.18833 14.3288 5.56917 14.0538 6 14.0538C6.43083 14.0538 6.81167 14.3283 6.94875 14.7375L7.52708 16.4725C8.35 15.7979 9.77958 16.0683 10.2771 17.0625C10.3558 17.22 10.5058 17.3104 10.6671 17.3233V13.9017L16.0004 8.60625V6.66667H10.3333C9.78333 6.66667 9.33333 6.21667 9.33333 5.66667V0H1C0.445833 0 0 0.445833 0 1V20.3333C0 20.8875 0.445833 21.3333 1 21.3333H15C15.5542 21.3333 16 20.8875 16 20.3333V18.6667L10.6667 18.6621C9.995 18.6492 9.3925 18.2754 9.09042 17.6725ZM16 5.07917C16 4.81667 15.8958 4.5625 15.7083 4.375L11.6292 0.291667C11.4417 0.104167 11.1875 0 10.9208 0H10.6667V5.33333H16V5.07917ZM12 14.4567V17.3333H14.8746L21.6112 10.5508L18.7829 7.7225L12 14.4567ZM23.6892 6.97208L22.3612 5.64417C21.9471 5.23 21.275 5.23 20.8608 5.64417L19.7254 6.77958L22.5537 9.60792L23.6892 8.4725C24.1038 8.05833 24.1038 7.38625 23.6892 6.97208Z" fill="white"/>
</g>
<defs>
<clipPath id="clip0_52_2356">
<rect width="24" height="21.3333" fill="white"/>
</clipPath>
</defs>
</svg>
