<svg width="17" height="17" viewBox="0 0 17 17" fill="none" xmlns="http://www.w3.org/2000/svg">
<circle cx="8.5" cy="8.5" r="8.5" fill="#CDE7E2"/>
<path d="M8.5 10.0052C8.43254 10.0052 8.36727 9.99253 8.30419 9.96723C8.24078 9.94194 8.18799 9.90821 8.14583 9.86604L5.81845 7.53866C5.72569 7.4459 5.67931 7.32785 5.67931 7.1845C5.67931 7.04114 5.72569 6.92309 5.81845 6.83033C5.91121 6.73757 6.02926 6.69119 6.17262 6.69119C6.31597 6.69119 6.43403 6.73757 6.52678 6.83033L8.5 8.80354L10.4732 6.83033C10.566 6.73757 10.684 6.69119 10.8274 6.69119C10.9707 6.69119 11.0888 6.73757 11.1815 6.83033C11.2743 6.92309 11.3207 7.04114 11.3207 7.1845C11.3207 7.32785 11.2743 7.4459 11.1815 7.53866L8.85417 9.86604C8.80357 9.91664 8.74876 9.95239 8.68973 9.97331C8.6307 9.99456 8.56746 10.0052 8.5 10.0052Z" fill="#11282E"/>
</svg>
