<svg width="92" height="77" viewBox="0 0 92 77" fill="none" xmlns="http://www.w3.org/2000/svg">
<g clip-path="url(#clip0_305_4952)">
<path d="M91.1176 33.9354H51.7732C51.3383 33.9354 50.9858 34.2681 50.9858 34.6784V34.6794C50.9858 35.0897 51.3383 35.4224 51.7732 35.4224H91.1176C91.5525 35.4224 91.905 35.0897 91.905 34.6794V34.6784C91.905 34.2681 91.5525 33.9354 91.1176 33.9354Z" fill="#3D6982"/>
<path d="M91.1187 33.9391H76.8345C77.0433 33.9391 77.2435 34.0174 77.3912 34.1567C77.5389 34.2961 77.6218 34.485 77.6218 34.6821C77.6218 34.8792 77.5389 35.0681 77.3912 35.2075C77.2435 35.3468 77.0433 35.4251 76.8345 35.4251H91.1187C91.3275 35.4251 91.5277 35.3468 91.6754 35.2075C91.8231 35.0681 91.906 34.8792 91.906 34.6821C91.906 34.485 91.8231 34.2961 91.6754 34.1567C91.5277 34.0174 91.3275 33.9391 91.1187 33.9391Z" fill="#2B4257"/>
<path d="M91.905 34.68C91.905 34.7776 91.8846 34.8743 91.8449 34.9646C91.8053 35.0548 91.7472 35.1367 91.674 35.2057C91.6008 35.2747 91.5139 35.3294 91.4182 35.3667C91.3226 35.404 91.2201 35.4231 91.1166 35.423H51.7742C51.6707 35.4231 51.5682 35.404 51.4726 35.3667C51.3769 35.3294 51.29 35.2747 51.2168 35.2057C51.1436 35.1367 51.0855 35.0548 51.0459 34.9646C51.0062 34.8743 50.9858 34.7776 50.9858 34.68" stroke="#2B4257" stroke-width="0.3877" stroke-miterlimit="10" stroke-linecap="round"/>
<path d="M48.5378 44.3789L30.9607 21.4991C30.9607 21.4991 28.2318 15.1029 23.8858 19.4656C19.5398 23.8283 10.6315 49.2004 30.5564 51.7757C50.9129 54.4015 53.1182 46.6681 48.5378 44.3789Z" fill="#5BC0C3"/>
<path d="M48.5436 48.1434C49.9632 45.6143 46.9645 41.4899 41.8458 38.9312C36.7272 36.3725 31.427 36.3485 30.0074 38.8776C28.5879 41.4066 31.5866 45.531 36.7052 48.0897C41.8238 50.6484 47.1241 50.6724 48.5436 48.1434Z" fill="#2B4257"/>
<path d="M23.8858 19.4662C19.5398 23.8299 10.6315 49.201 30.5564 51.7763C50.9129 54.405 53.1182 46.6715 48.5378 44.3824" stroke="#2B4257" stroke-width="0.3877" stroke-miterlimit="10" stroke-linecap="round"/>
<path d="M50.9139 25.1015C50.9139 25.1015 53.5559 21.9539 55.9745 23.0346C58.3931 24.1152 58.7105 25.133 58.2658 25.1015C57.8211 25.07 56.4394 24.6246 56.4394 24.6246C56.4394 24.6246 55.2266 26.2823 53.5761 26.5322" fill="#FBC2A5"/>
<path d="M58.2678 25.1007C57.8231 25.0692 56.4414 24.6238 56.4414 24.6238C56.4414 24.6238 55.2286 26.2815 53.5781 26.5314" stroke="#2B4257" stroke-width="0.3877" stroke-miterlimit="10" stroke-linecap="round"/>
<path d="M54.9917 30.0423C54.9917 30.0423 58.3937 28.5076 59.9098 29.428C61.4258 30.3484 61.4258 32.2207 60.8871 31.9842C60.5823 31.8621 60.3321 31.6436 60.1796 31.3661C60.1796 31.3661 58.5231 33.8174 55.6456 32.7501" fill="#FBC2A5"/>
<path d="M60.8848 31.982C60.5799 31.8599 60.3297 31.6414 60.1773 31.3639C60.1773 31.3639 58.5208 33.8152 55.6433 32.7479" stroke="#2B4257" stroke-width="0.3877" stroke-miterlimit="10" stroke-linecap="round"/>
<path d="M43.2911 62.6402L40.4298 57.5936C44.9648 55.3045 48.2364 53.1537 50.1547 51.2032C51.2726 50.0672 51.8891 49.0151 51.8456 48.316C51.78 47.2668 49.9476 46.3531 49.613 46.2291L51.8264 40.9021C52.8225 41.2922 53.7565 41.8105 54.6018 42.4425C56.6232 43.9514 57.7673 45.8666 57.8987 47.9793C58.0463 50.3295 56.9345 52.7254 54.5968 55.0995C52.1883 57.5479 48.4901 60.0134 43.2911 62.6402Z" fill="#F4AB9D"/>
<path d="M40.4298 57.5956C44.9648 55.3065 48.2364 53.1557 50.1547 51.2051" stroke="#2B4257" stroke-width="0.3877" stroke-miterlimit="10" stroke-linecap="round"/>
<path d="M46.0393 32.32C45.7855 32.3199 45.5318 32.3075 45.2793 32.2828C39.2757 31.6914 35.901 24.1345 35.5352 23.2751L40.2268 21.501L37.881 22.388L40.2248 21.4972C41.0334 23.3705 43.4509 27.3154 45.8079 27.5395C47.6554 27.7217 49.6485 25.3267 50.6663 23.8855L54.8668 26.5352C52.146 30.378 49.1796 32.32 46.0393 32.32Z" fill="#BC5B5B"/>
<path d="M40.2254 21.4995H40.2112L38.583 22.1185C37.7401 22.8491 37.0963 24.1635 36.8264 25.7563C37.9988 27.6973 39.9394 30.2392 42.5935 31.5144C43.1756 30.45 43.5334 29.0136 43.5334 27.4312C43.5335 27.0412 43.5112 26.6515 43.4667 26.2638C42.0032 24.8893 40.7601 22.7423 40.2254 21.4995Z" fill="#2B4257"/>
<path d="M54.8682 26.5348C52.1474 30.3777 49.181 32.3196 46.0408 32.3196" stroke="#2B4257" stroke-width="0.3877" stroke-miterlimit="10" stroke-linecap="round"/>
<path d="M57.5988 71.9982L52.0925 69.6004C54.498 64.6787 54.9306 60.4486 53.3731 57.0235C51.1374 52.0971 45.3886 50.1943 45.3269 50.1752H45.34L47.2442 44.7386C47.5828 44.8444 55.5653 47.4092 58.9157 54.6915C61.2151 59.6942 60.7704 65.5124 57.5988 71.9982Z" fill="#FBC2A5"/>
<path d="M47.2483 44.748C47.5869 44.8539 55.5694 47.4187 58.9198 54.701C61.2151 59.6932 60.7704 65.5114 57.5989 71.9972" stroke="#FFF1D7" stroke-width="0.3877" stroke-miterlimit="10" stroke-linecap="round"/>
<path d="M52.0925 69.5974C54.498 64.6777 54.9306 60.4476 53.3731 57.0225C51.1374 52.0961 45.3886 50.1933 45.3269 50.1742" stroke="#2B4257" stroke-width="0.3877" stroke-miterlimit="10" stroke-linecap="round"/>
<path d="M31.4502 34.68H41.8715V35.8875C41.872 36.5335 41.7377 37.1733 41.4761 37.7703C41.2145 38.3673 40.8308 38.9097 40.3469 39.3667C39.8631 39.8237 39.2885 40.1862 38.6561 40.4335C38.0237 40.6809 37.3459 40.8082 36.6614 40.8082C35.2795 40.8082 33.9543 40.2902 32.9772 39.3681C32.0001 38.446 31.4512 37.1954 31.4512 35.8913V34.68H31.4502Z" fill="#E57873"/>
<path d="M36.6614 20.0225C38.0432 20.0225 39.3684 20.5405 40.3455 21.4626C41.3226 22.3847 41.8715 23.6353 41.8715 24.9393V34.6796H31.4502V24.9393C31.4502 24.2936 31.585 23.6541 31.8469 23.0575C32.1088 22.4609 32.4927 21.9189 32.9766 21.4623C33.4605 21.0057 34.035 20.6435 34.6672 20.3965C35.2994 20.1495 35.9771 20.0224 36.6614 20.0225Z" fill="#E57873"/>
<path d="M41.8715 28.0417H40.9962H40.7405H39.3458H39.0901H37.6953H37.4396H36.0448H35.7891H34.3944H34.1387H32.7439H32.4882H31.4502V28.6198L31.7908 28.9412L32.6155 28.1619L33.4413 28.9412L34.266 28.1619L35.0917 28.9412L35.9165 28.1619L36.7422 28.9412L37.5669 28.1619L38.3927 28.9412L39.2174 28.1619L40.0432 28.9412L40.8679 28.1619L41.6936 28.9412L41.8715 28.7724V28.0417Z" fill="#BC5B5B"/>
<path d="M41.8715 29.9467H40.9962H40.7405H39.3458H39.0901H37.6953H37.4396H36.0448H35.7891H34.3944H34.1387H32.7439H32.4882H31.4502V30.5257L31.7908 30.8462L32.6155 30.0669L33.4413 30.8462L34.266 30.0669L35.0917 30.8462L35.9165 30.0669L36.7422 30.8462L37.5669 30.0669L38.3927 30.8462L39.2174 30.0669L40.0432 30.8462L40.8679 30.0669L41.6936 30.8462L41.8715 30.6774V29.9467Z" fill="#BC5B5B"/>
<path d="M41.8715 31.8494H40.9962H40.7405H39.3458H39.0901H37.6953H37.4396H36.0448H35.7891H34.3944H34.1387H32.7439H32.4882H31.4502V32.4284L31.7908 32.7489L32.6155 31.9706L33.4413 32.7489L34.266 31.9706L35.0917 32.7489L35.9165 31.9706L36.7422 32.7489L37.5669 31.9706L38.3927 32.7489L39.2174 31.9706L40.0432 32.7489L40.8679 31.9706L41.6936 32.7489L41.8715 32.581V31.8494Z" fill="#BC5B5B"/>
<path d="M38.8821 30.3951C38.8821 30.3951 39.0458 33.6009 41.5685 34.6796H41.8717V30.9293L38.8821 30.3951Z" fill="#2B4257"/>
<path d="M41.8688 34.6796V24.9393C41.8688 23.6353 41.3199 22.3847 40.3428 21.4626C39.3657 20.5405 38.0405 20.0225 36.6587 20.0225" stroke="#FFF1D7" stroke-width="0.3877" stroke-miterlimit="10" stroke-linecap="round"/>
<path d="M35.2883 20.3896L38.5003 20.4277V17.3097L35.2883 16.9702V20.3896Z" fill="#FBC2A5"/>
<path d="M35.2908 16.9702V20.3896" stroke="#2B4257" stroke-width="0.3877" stroke-miterlimit="10" stroke-linecap="round"/>
<path d="M38.505 18.9444C37.5792 18.7947 36.9031 18.2968 36.9031 17.7083C36.9046 17.562 36.9456 17.4186 37.0223 17.2915L38.5091 17.3096L38.505 18.9444Z" fill="#2B4257"/>
<path d="M41.0543 11.5154L40.4681 15.8743H41.7325L41.0543 11.5154Z" fill="#F39B92"/>
<path d="M40.4681 15.8757H41.7325" stroke="#2B4257" stroke-width="0.3877" stroke-miterlimit="10" stroke-linecap="round"/>
<path d="M38.5035 20.4287V17.3107" stroke="#FFF1D7" stroke-width="0.3877" stroke-miterlimit="10" stroke-linecap="round"/>
<path d="M35.3619 19.2026C35.3619 19.2026 38.5526 19.2226 39.6119 20.8908C40.6711 22.559 33.8964 21.3506 33.8964 21.3506" fill="#E57873"/>
<path d="M36.201 11.5154H41.0523V16.4532C41.0523 16.9756 40.8324 17.4766 40.441 17.846C40.0496 18.2153 39.5187 18.4229 38.9652 18.4229H38.6782C37.7849 18.4229 36.9282 18.0882 36.2962 17.4925C35.6642 16.8968 35.3086 16.0887 35.3075 15.2457V12.3595C35.3075 12.1359 35.4016 11.9214 35.5692 11.7633C35.7367 11.6052 35.964 11.5164 36.201 11.5164V11.5154Z" fill="#FBC2A5"/>
<path d="M42.0775 14.3369C42.0775 14.3369 42.5404 11.857 39.6124 10.6066C39.2004 10.4172 38.7711 10.2634 38.3298 10.1468H38.3187C37.3637 9.90495 36.3507 9.96868 35.4382 10.3281C32.5213 11.4965 31.6724 15.0217 35.23 17.8135L37.0189 14.7613C37.0189 14.7613 38.4026 13.8075 38.6623 12.9157C38.7508 12.6891 38.8782 12.4777 39.0393 12.29" fill="#2B4257"/>
<path d="M42.0779 14.3358C42.0779 14.3358 42.5408 11.8559 39.6128 10.6055" stroke="#586977" stroke-width="0.3877" stroke-miterlimit="10" stroke-linecap="round"/>
<path d="M37.0205 14.7534C37.0205 14.7534 38.4042 13.7996 38.6639 12.9078C38.7529 12.6839 38.8798 12.4752 39.0399 12.2898" stroke="#586977" stroke-width="0.3877" stroke-miterlimit="10" stroke-linecap="round"/>
<path d="M41.0555 16.0207V16.4537C41.0556 16.7124 41.0017 16.9686 40.8969 17.2076C40.792 17.4466 40.6383 17.6638 40.4445 17.8467C40.2506 18.0296 40.0205 18.1747 39.7672 18.2736C39.514 18.3726 39.2425 18.4234 38.9684 18.4233" stroke="#FFF1D7" stroke-width="0.3877" stroke-miterlimit="10" stroke-linecap="round"/>
<path d="M39.245 14.811C39.2649 14.7955 39.2829 14.7779 39.2986 14.7586C39.3233 14.731 39.3544 14.7091 39.3894 14.6946C39.4244 14.68 39.4625 14.6732 39.5007 14.6746H40.4902V15.3366C40.4902 15.4306 40.4706 15.5237 40.4324 15.6105C40.3943 15.6974 40.3383 15.7763 40.2678 15.8427C40.1973 15.9092 40.1137 15.9618 40.0216 15.9977C39.9295 16.0336 39.8308 16.052 39.7312 16.0519C39.5301 16.0519 39.3373 15.9765 39.1952 15.8424C39.053 15.7082 38.9732 15.5263 38.9732 15.3366C38.9726 15.2351 38.9968 15.1349 39.0439 15.0438C39.0911 14.9526 39.1599 14.873 39.245 14.811Z" fill="#F4AB9D"/>
<path d="M40.4917 14.5511C40.4482 14.8191 40.1774 14.9908 39.8256 14.9479C39.6022 14.9178 39.3962 14.8169 39.2415 14.6618C39.2849 14.3937 39.5558 14.2221 39.9065 14.265C40.1305 14.2945 40.337 14.3954 40.4917 14.5511Z" fill="#F7F7F7"/>
<path d="M40.4917 14.5521C40.4482 14.8201 40.1774 14.9918 39.8256 14.9489C39.6022 14.9188 39.3962 14.8179 39.2415 14.6627" stroke="#2B4257" stroke-width="0.3877" stroke-miterlimit="10" stroke-linecap="round"/>
<path d="M40.0978 14.6328C40.1349 14.6252 40.1568 14.5832 40.1466 14.5389C40.1364 14.4946 40.0981 14.4648 40.061 14.4724C40.0239 14.48 40.002 14.5221 40.0122 14.5664C40.0223 14.6106 40.0607 14.6404 40.0978 14.6328Z" fill="#2B4257"/>
<path d="M38.665 15.6664C38.9552 15.6664 39.1905 15.4443 39.1905 15.1704C39.1905 14.8965 38.9552 14.6744 38.665 14.6744C38.3747 14.6744 38.1394 14.8965 38.1394 15.1704C38.1394 15.4443 38.3747 15.6664 38.665 15.6664Z" fill="#E57873"/>
<path d="M40.3593 13.8562C40.2158 13.806 40.0607 13.7926 39.9098 13.8172C39.7589 13.8418 39.6176 13.9037 39.5002 13.9964" stroke="#2B4257" stroke-width="0.3877" stroke-miterlimit="10" stroke-linecap="round"/>
<path d="M39.8213 16.1154C39.9011 16.2074 40.0052 16.2779 40.123 16.3198C40.2409 16.3617 40.3684 16.3735 40.4927 16.354" stroke="#2B4257" stroke-width="0.3877" stroke-miterlimit="10" stroke-linecap="round"/>
<path d="M36.1981 16.1581C36.1981 16.1581 35.2591 18.8507 35.8079 20.7669C36.0818 21.7207 35.5886 22.3216 34.8983 22.6144C33.7491 23.0989 32.8668 24.0108 32.3645 25.1C32.0613 25.7476 31.5559 26.2446 30.6695 26.1311C28.3793 25.8449 29.1121 15.4132 34.5405 10.8044" fill="#2B4257"/>
<path d="M36.2 16.1586C36.2 16.1586 35.2611 18.8512 35.8099 20.7674C36.0838 21.7212 35.5906 22.3221 34.9003 22.6149" stroke="#586977" stroke-width="0.3877" stroke-miterlimit="10" stroke-linecap="round"/>
<path d="M36.6597 16.1296C37.1392 16.1296 37.5279 15.7627 37.5279 15.3103C37.5279 14.8578 37.1392 14.4909 36.6597 14.4909C36.1802 14.4909 35.7915 14.8578 35.7915 15.3103C35.7915 15.7627 36.1802 16.1296 36.6597 16.1296Z" fill="#FBC2A5"/>
<path d="M36.6578 15.7284C36.9034 15.7284 37.1025 15.5405 37.1025 15.3087C37.1025 15.0769 36.9034 14.889 36.6578 14.889C36.4122 14.889 36.2131 15.0769 36.2131 15.3087C36.2131 15.5405 36.4122 15.7284 36.6578 15.7284Z" fill="#F4AB9D"/>
<path d="M63.2511 77.1872H32.6553" stroke="#2B4257" stroke-width="0.3877" stroke-miterlimit="10" stroke-linecap="round"/>
<path d="M30.6598 77.1872H29.5288" stroke="#2B4257" stroke-width="0.3877" stroke-miterlimit="10" stroke-linecap="round"/>
<path d="M31.448 34.68H41.8693C41.8693 34.68 47.2411 36.5599 55.6451 43.1278L46.9642 51.3401C46.9642 51.3401 30.7142 46.3402 31.448 34.68Z" fill="#E57873"/>
<path d="M55.6441 43.1272L46.9633 51.3395" stroke="#2B4257" stroke-width="0.3877" stroke-miterlimit="10" stroke-linecap="round"/>
<path d="M41.8673 34.68C41.8673 34.68 47.2392 36.5599 55.6431 43.1278" stroke="#FFF1D7" stroke-width="0.3877" stroke-miterlimit="10" stroke-linecap="round"/>
<path d="M46.9642 51.3401C46.9642 51.3401 30.7142 46.3402 31.448 34.68" stroke="#2B4257" stroke-width="0.3877" stroke-miterlimit="10" stroke-linecap="round"/>
<path d="M51.5155 33.9262C45.2946 33.9262 41.0244 31.9375 38.3663 30.0414C34.7065 27.4289 33.2521 24.474 33.0985 24.1459L37.7214 22.2192L37.7134 22.2021C37.7245 22.2249 38.8403 24.4683 41.6116 26.3749C45.3128 28.9225 50.1449 29.7304 55.9736 28.7766L56.8378 33.475C55.0806 33.769 53.3 33.9199 51.5155 33.9262Z" fill="#E57873"/>
<path d="M38.3672 30.0415C37.1165 29.1512 35.9874 28.1184 35.0056 26.9664" stroke="#2B4257" stroke-width="0.3877" stroke-miterlimit="10" stroke-linecap="round"/>
<path d="M41.6133 26.3742C45.3145 28.9218 50.1466 29.7297 55.9753 28.7759" stroke="#FFF1D7" stroke-width="0.3877" stroke-miterlimit="10" stroke-linecap="round"/>
<path d="M56.8385 33.4763C55.0813 33.7703 53.3007 33.9212 51.5161 33.9275C45.2953 33.9275 41.0251 31.9388 38.3669 30.0426" stroke="#2B4257" stroke-width="0.3877" stroke-miterlimit="10" stroke-linecap="round"/>
<path d="M58.5945 71.3924L51.7501 68.4785L48.8918 74.063L56.2366 77.1867L55.6979 75.7169L58.5945 71.3924Z" fill="#E57873"/>
<path d="M51.7501 68.4785L48.8918 74.063L56.2366 77.1867" stroke="#2B4257" stroke-width="0.3877" stroke-miterlimit="10" stroke-linecap="round"/>
<path d="M54.8623 73.953L55.5193 74.5014L55.1908 73.4522L55.9993 73.786L55.5193 72.8332L56.2348 73.2138V72.3076" stroke="#2B4257" stroke-width="0.3877" stroke-miterlimit="10" stroke-linecap="round"/>
<path d="M45.7481 62.2539L41.6376 56.3232L36.0454 59.5823L40.4591 65.9423L40.8422 64.4296L45.7481 62.2539Z" fill="#E57873"/>
<path d="M41.6376 56.3232L36.0454 59.5823L40.4591 65.9423" stroke="#2B4257" stroke-width="0.3877" stroke-miterlimit="10" stroke-linecap="round"/>
<path d="M41.1461 62.5186L41.3877 63.3141L41.7081 62.2621L42.2003 62.9545L42.3377 61.9072L42.7248 62.5911L43.2413 61.8271" stroke="#2B4257" stroke-width="0.3877" stroke-miterlimit="10" stroke-linecap="round"/>
<path d="M54.2322 23.6862C54.2322 23.6862 55.5117 24.0678 55.5289 24.4331C55.5461 24.7984 54.8659 24.6706 54.8659 24.6706C54.8659 24.6706 55.0003 25.509 54.2322 25.5786" stroke="#2B4257" stroke-width="0.3877" stroke-miterlimit="10" stroke-linecap="round"/>
<path d="M35.8538 52.3117V77.1869" stroke="#2B4257" stroke-width="0.3877" stroke-miterlimit="10" stroke-linecap="round"/>
<path d="M31.7712 62.8893H38.3408" stroke="#2B4257" stroke-width="0.3877" stroke-miterlimit="10" stroke-linecap="round"/>
<path d="M70.8122 23.0729L64.4346 31.9586C64.3546 32.0698 64.2468 32.161 64.1209 32.224C63.9949 32.287 63.8546 32.32 63.712 32.32H54.4136C54.2075 32.32 54.0034 32.3584 53.8131 32.4328C53.6227 32.5073 53.4497 32.6164 53.304 32.754C53.1584 32.8915 53.0429 33.0548 52.9641 33.2345C52.8853 33.4142 52.8448 33.6068 52.845 33.8013V33.9415H76.6975C77.1487 33.9414 77.5931 33.8371 77.9918 33.6375C78.3905 33.438 78.7314 33.1494 78.9847 32.7969L86.0787 22.9136C86.1275 22.8455 86.1558 22.7662 86.1604 22.6841C86.165 22.602 86.1459 22.5203 86.1051 22.4477C86.0643 22.375 86.0033 22.3143 85.9287 22.2718C85.8541 22.2294 85.7687 22.207 85.6815 22.2069H72.5425C72.2012 22.2075 71.8652 22.2868 71.5637 22.4377C71.2621 22.5886 71.0042 22.8067 70.8122 23.0729Z" fill="#C3D8DD"/>
<path d="M54.416 32.32C54.2099 32.32 54.0059 32.3584 53.8155 32.4328C53.6251 32.5073 53.4522 32.6164 53.3065 32.754C53.1608 32.8915 53.0453 33.0548 52.9665 33.2345C52.8878 33.4142 52.8473 33.6068 52.8474 33.8013V33.9415H76.6999C77.1512 33.9414 77.5956 33.8371 77.9943 33.6375C78.393 33.438 78.7338 33.1494 78.9871 32.7969L86.0812 22.9136C86.13 22.8455 86.1582 22.7662 86.1628 22.6841C86.1675 22.602 86.1484 22.5203 86.1076 22.4477C86.0667 22.375 86.0058 22.3143 85.9311 22.2718C85.8565 22.2294 85.7711 22.207 85.684 22.2069" stroke="#2B4257" stroke-width="0.3877" stroke-miterlimit="10" stroke-linecap="round"/>
<path d="M76.4413 35.4232L69.8414 41.6516C67.7066 43.6655 66.5069 46.3971 66.5061 49.2458V77.1922H75.4285" stroke="#2B4257" stroke-width="0.3877" stroke-miterlimit="10" stroke-linecap="round"/>
<path d="M89.4064 35.4232L82.8076 41.6516C81.7504 42.6486 80.9117 43.8325 80.3394 45.1355C79.7671 46.4386 79.4725 47.8352 79.4723 49.2458V77.1922H88.3937" stroke="#2B4257" stroke-width="0.3877" stroke-miterlimit="10" stroke-linecap="round"/>
<path d="M67.3805 60.3933H79.4755" stroke="#2B4257" stroke-width="0.3877" stroke-miterlimit="10" stroke-linecap="round"/>
</g>
<defs>
<clipPath id="clip0_305_4952">
<rect width="92" height="77" fill="white"/>
</clipPath>
</defs>
</svg>
