<svg width="92" height="87" viewBox="0 0 92 87" fill="none" xmlns="http://www.w3.org/2000/svg">
<path d="M64.2377 65.4387C64.2377 65.4387 67.9262 62.2622 69.8432 63.0805C71.7601 63.8989 72.9922 62.5015 72.9922 62.5015L68.0248 58.6255C67.141 59.1738 60.7115 63.1495 60.7115 63.1495L64.2377 65.4387Z" fill="#828181"/>
<path d="M72.9922 62.5015L68.0248 58.6255C67.141 59.1738 60.7115 63.1495 60.7115 63.1495" stroke="#2B4257" stroke-width="0.3877" stroke-miterlimit="10" stroke-linecap="round"/>
<path d="M65.2492 63.5299C65.2492 63.5299 66.0852 63.7809 66.0593 63.7611C66.0334 63.7413 66.1031 62.8474 66.1031 62.8474L67.0785 63.1138L67.178 62.2397L68.1733 62.68L68.5187 61.9461" stroke="#2B4257" stroke-width="0.3877" stroke-miterlimit="10" stroke-linecap="round"/>
<path d="M65.0867 64.7752C65.1942 64.6964 65.3089 64.6144 65.431 64.5293L64.3034 60.9293L62.494 62.0464L65.0867 64.7752Z" fill="#2B4257"/>
<path d="M52.886 70.8095C51.4379 70.8095 49.934 70.5548 48.5545 69.8451C46.3181 68.6929 45.082 66.6892 44.8809 63.8951C44.7585 62.1836 45.0123 60.0838 45.6364 57.6567C46.6506 53.7052 48.3067 50.1536 48.3764 50.0039L55.9017 51.9224C54.9779 53.968 54.2136 56.0509 53.6125 58.1609C52.9716 60.472 52.7914 62.1124 52.8163 63.225C52.8201 63.4418 52.8985 63.6544 53.0441 63.8428C53.1897 64.0312 53.3977 64.1892 53.6488 64.3021C53.8998 64.415 54.1856 64.479 54.4794 64.4882C54.7732 64.4973 55.0653 64.4514 55.3284 64.3546C56.7417 63.8408 58.8408 62.8772 61.8246 61.0827L66.8567 65.6331C63.012 67.945 59.8032 69.44 57.0473 70.2026C55.8599 70.5299 54.4038 70.8095 52.886 70.8095ZM55.9017 51.9195L52.1435 50.9602L55.9067 51.9144L55.9017 51.9195Z" fill="#426C96"/>
<path d="M52.8193 63.224C52.7954 62.1128 52.9756 60.4724 53.6155 58.1598C53.6673 57.9727 53.721 57.7862 53.7758 57.602C52.3535 54.7294 49.9579 52.819 47.2288 52.7397C46.7063 54.0967 46.1032 55.8318 45.6364 57.6519C45.0123 60.082 44.7585 62.1818 44.8809 63.8904C45.08 66.6867 46.3181 68.6881 48.5545 69.8404C49.934 70.5501 51.4408 70.8048 52.886 70.8048C52.9995 70.8048 53.1129 70.8048 53.2254 70.7996C54.3202 69.0543 55.0169 66.8401 55.1274 64.4144C54.8677 64.4811 54.5902 64.5014 54.3178 64.4736C54.0454 64.4458 53.7858 64.3707 53.5604 64.2545C53.3351 64.1383 53.1504 63.9842 53.0215 63.8051C52.8927 63.6259 52.8234 63.4267 52.8193 63.224Z" fill="#2B4257"/>
<path d="M53.6156 58.1609C52.9747 60.4721 52.7945 62.1124 52.8194 63.225C52.8236 63.4415 52.9021 63.6536 53.0476 63.8416C53.1931 64.0296 53.4009 64.1874 53.6515 64.3001C53.9021 64.4128 54.1873 64.4769 54.4806 64.4863C54.7739 64.4957 55.0656 64.4501 55.3285 64.3538C56.7418 63.8401 58.8408 62.8764 61.8247 61.082" stroke="#2B4257" stroke-width="0.3877" stroke-miterlimit="10" stroke-linecap="round"/>
<path d="M28.442 34.829C28.442 34.829 26.9739 31.985 25.3317 32.0951C23.6895 32.2052 23.789 34.8283 26.103 35.6547C26.103 35.6547 24.7096 35.8639 24.7843 36.4561C24.8589 37.0484 27.2974 36.9207 27.9941 36.3336" fill="#E57873"/>
<path d="M24.7835 36.4556C24.8582 37.0486 27.2966 36.9201 27.9933 36.333" stroke="#2B4257" stroke-width="0.3877" stroke-miterlimit="10" stroke-linecap="round"/>
<path d="M32.7287 32.9195C31.5582 32.4285 28.7406 34.9481 28.7406 34.9481L28.442 36.2347C28.641 36.9459 30.4027 37.6424 30.7799 37.1081C31.1571 36.5738 30.2255 36.049 30.2255 36.049C32.4052 35.8289 33.8991 33.4105 32.7287 32.9195Z" fill="#E57873"/>
<path d="M30.2269 36.049C32.4065 35.8289 33.9004 33.4069 32.73 32.9188" stroke="#2B4257" stroke-width="0.3877" stroke-miterlimit="10" stroke-linecap="round"/>
<path d="M28.442 36.2349C28.641 36.9461 30.4027 37.6426 30.7799 37.1083" stroke="#2B4257" stroke-width="0.3877" stroke-miterlimit="10" stroke-linecap="round"/>
<path d="M28.5741 34.7794C28.5741 34.7794 27.4972 35.0994 27.8565 36.8439C27.8601 36.8632 27.871 36.8814 27.8879 36.8963C27.9048 36.9113 27.9271 36.9225 27.9521 36.9286C27.9772 36.9347 28.0041 36.9355 28.0298 36.9309C28.0555 36.9263 28.0789 36.9165 28.0974 36.9026C28.4178 36.6648 29.011 36.0748 28.9931 34.9753C28.9931 34.9753 29.7266 34.772 29.4042 34.59C28.4407 34.0491 28.5741 34.7794 28.5741 34.7794Z" fill="#2B4257"/>
<path d="M25.3317 32.0946C23.6895 32.2047 23.789 34.8278 26.103 35.6542" stroke="#2B4257" stroke-width="0.3877" stroke-miterlimit="10" stroke-linecap="round"/>
<path d="M38.574 38.1145C41.3645 37.6617 43.0725 35.4378 42.389 33.1473C41.7055 30.8568 38.8893 29.3671 36.0988 29.8199C33.3084 30.2727 31.6003 32.4966 32.2838 34.7871C32.9673 37.0776 35.7835 38.5673 38.574 38.1145Z" fill="#C3D8DD"/>
<path d="M38.3024 37.2077C40.4825 36.854 41.817 35.1167 41.283 33.3273C40.7491 31.538 38.5489 30.3742 36.3689 30.728C34.1888 31.0817 32.8543 32.819 33.3883 34.6084C33.9222 36.3977 36.1224 37.5615 38.3024 37.2077Z" fill="#628ECC"/>
<path d="M35.8427 36.9784C36.6047 37.258 37.473 37.3382 38.305 37.2059C40.4847 36.8522 41.8194 35.1149 41.2849 33.3256C41.1976 33.038 41.064 32.759 40.8868 32.4948C39.2943 32.6753 37.6462 33.5957 37.6462 33.5957L35.8427 36.9784Z" fill="#E57873"/>
<path d="M34.5031 31.4992C33.5078 32.2523 33.0341 33.4185 33.3894 34.6089C33.5772 35.252 34.0022 35.8443 34.6176 36.3205L36.7753 33.3767C36.7753 33.3767 35.7562 32.0717 34.5031 31.4992Z" fill="#E57873"/>
<path d="M38.574 38.1145C41.3645 37.6617 43.0725 35.4378 42.389 33.1473C41.7055 30.8568 38.8893 29.3671 36.0988 29.8199C33.3084 30.2727 31.6003 32.4966 32.2838 34.7871C32.9673 37.0776 35.7835 38.5673 38.574 38.1145Z" stroke="#2B4257" stroke-width="0.3877" stroke-miterlimit="10" stroke-linecap="round"/>
<path d="M38.574 38.1139L40.3485 44.0595" stroke="#2B4257" stroke-width="0.3877" stroke-miterlimit="10" stroke-linecap="round"/>
<path d="M28.5395 46.1188C27.4447 45.3217 31.9394 45.8986 31.9394 45.8986C31.9394 45.8986 32.7058 44.5562 34.6396 45.925L33.8613 47.8376C33.8613 47.8376 29.6383 46.9158 28.5395 46.1188Z" fill="#FBC2A5"/>
<path d="M33.8596 47.8356C33.8596 47.8356 29.6366 46.9159 28.5378 46.1189" stroke="#2B4257" stroke-width="0.3877" stroke-miterlimit="10" stroke-linecap="round"/>
<path d="M28.5395 46.1188C27.4447 45.3217 31.9394 45.8986 31.9394 45.8986C31.9394 45.8986 32.7058 44.5562 34.6396 45.925" stroke="#FFF1D7" stroke-width="0.3877" stroke-miterlimit="10" stroke-linecap="round"/>
<path d="M31.547 45.8512C31.547 45.8512 32.5333 45.9437 32.7353 46.2402" stroke="#FFF1D7" stroke-width="0.3877" stroke-miterlimit="10" stroke-linecap="round"/>
<path d="M38.3207 43.6911C38.3207 43.6911 35.3099 41.1297 36.4545 39.6031C37.5991 38.0765 38.246 38.3385 38.3207 38.7671C38.3953 39.1957 39.2164 40.0214 39.2164 40.0214C39.2164 40.0214 40.5849 39.1847 40.5601 39.6031C40.5352 40.0214 40.4605 41.6801 40.1868 41.9429C39.9131 42.2056 41.8629 43.0673 41.8629 43.0673" fill="#FBC2A5"/>
<path d="M38.32 38.7649C38.3947 39.1935 39.2158 40.0192 39.2158 40.0192C39.2158 40.0192 40.5843 39.1825 40.5594 39.6009" stroke="#FFF1D7" stroke-width="0.3877" stroke-miterlimit="10" stroke-linecap="round"/>
<path d="M38.3207 43.6903C38.3207 43.6903 35.3099 41.1289 36.4545 39.6023" stroke="#2B4257" stroke-width="0.3877" stroke-miterlimit="10" stroke-linecap="round"/>
<path d="M42.9059 80.0204C42.9059 80.0204 43.503 84.1796 41.3801 84.6442C39.2572 85.1087 39.7877 86.73 39.7877 86.73H47.0204C47.086 85.8794 47.5837 79.7026 47.5837 79.7026L42.9059 80.0204Z" fill="#828181"/>
<path d="M42.9624 80.6126L47.4182 81.7576C47.5118 80.6002 47.5834 79.7026 47.5834 79.7026L42.9056 80.0204C42.9056 80.0204 42.9395 80.2523 42.9624 80.6126Z" fill="#2B4257"/>
<path d="M39.7887 86.73H47.0214C47.087 85.8794 47.5847 79.7026 47.5847 79.7026" stroke="#2B4257" stroke-width="0.3877" stroke-miterlimit="10" stroke-linecap="round"/>
<path d="M44.0942 81.8739C44.0942 81.8739 43.2731 82.1491 43.311 82.1491C43.3488 82.1491 44.1818 82.8008 44.1818 82.8008L43.2483 83.1399L44.0445 83.7916L42.9248 84.0206L43.4105 84.7091" stroke="#2B4257" stroke-width="0.3877" stroke-miterlimit="10" stroke-linecap="round"/>
<path d="M47.3764 38.9119C47.3144 38.5174 47.0734 38.1499 46.6925 37.8691C46.3116 37.5882 45.8132 37.4106 45.2781 37.365C44.7431 37.3193 44.2028 37.4084 43.7451 37.6176C43.2873 37.8269 42.9388 38.1441 42.7563 38.5178C42.6084 38.7953 42.4348 39.0651 42.2368 39.3251C41.7391 40.0187 41.7252 40.7526 42.2985 41.1753C42.9414 41.6495 44.1149 41.5827 45.148 41.0704C45.4192 40.9408 45.7041 40.8274 45.9999 40.7313C46.4619 40.5754 46.8445 40.315 47.0921 39.9878C47.3396 39.6606 47.4392 39.2837 47.3764 38.9119Z" fill="#2B4257"/>
<path d="M45.2445 37.3705C44.7159 37.3303 44.1843 37.4212 43.7336 37.6288C43.2829 37.8365 42.939 38.149 42.7563 38.517C42.6084 38.7945 42.4348 39.0642 42.2368 39.3243C41.7391 40.0178 41.7252 40.7518 42.2985 41.1745" stroke="#586977" stroke-width="0.3877" stroke-miterlimit="10" stroke-linecap="round"/>
<path d="M46.4246 38.9768C47.1084 38.9768 47.6627 38.595 47.6627 38.124C47.6627 37.653 47.1084 37.2711 46.4246 37.2711C45.7408 37.2711 45.1865 37.653 45.1865 38.124C45.1865 38.595 45.7408 38.9768 46.4246 38.9768Z" fill="#FBC2A5"/>
<path d="M34.1265 48.7328C34.021 48.7328 33.9503 48.7328 33.9165 48.7328L33.9981 45.0631C36.5494 45.0456 39.0887 44.8037 41.5622 44.3424C46.3396 43.4257 49.3344 41.8309 50.455 39.6041L55.1199 40.8811C51.2961 48.4693 36.1857 48.7328 34.1265 48.7328Z" fill="#706D6D"/>
<path d="M55.1164 40.8806C51.2975 48.4694 36.1871 48.7337 34.1249 48.7337" stroke="#2B4257" stroke-width="0.3877" stroke-miterlimit="10" stroke-linecap="round"/>
<path d="M53.2238 35.1061C53.2243 34.4247 52.8739 33.7685 52.2434 33.2703C51.6129 32.7721 50.7494 32.4691 49.8275 32.4225C48.9056 32.3759 47.994 32.5892 47.2772 33.0192C46.5604 33.4493 46.0918 34.064 45.9662 34.7391C45.9533 34.8125 45.9443 34.8859 45.9384 34.9535C45.8925 35.3934 45.6956 35.8175 45.3661 36.1857C45.0331 36.5577 44.9037 37.0089 45.0039 37.4484C45.1042 37.8879 45.4266 38.283 45.9063 38.5541C46.3859 38.8253 46.9871 38.9523 47.5887 38.9095C48.1903 38.8667 48.7476 38.6574 49.1481 38.3237C49.5512 38.0154 50.0593 37.7929 50.6192 37.6793C51.3709 37.514 52.0303 37.1744 52.4995 36.7108C52.9687 36.2473 53.2227 35.6845 53.2238 35.1061Z" fill="#2B4257"/>
<path d="M49.4145 32.4206C48.5627 32.4509 47.7519 32.6994 47.122 33.1233C46.4921 33.5473 46.0825 34.12 45.9639 34.7428C45.951 34.8162 45.942 34.8896 45.936 34.9571C45.8902 35.397 45.6933 35.8211 45.3638 36.1894" fill="#2B4257"/>
<path d="M45.9378 34.9576C45.892 35.3975 45.695 35.8216 45.3655 36.1899C45.0995 36.5017 44.9731 36.8673 45.0042 37.235" stroke="#586977" stroke-width="0.3877" stroke-miterlimit="10" stroke-linecap="round"/>
<path d="M45.936 34.9576C45.8902 35.3975 45.6933 35.8216 45.3638 36.1899" stroke="#586977" stroke-width="0.3877" stroke-miterlimit="10" stroke-linecap="round"/>
<path d="M52.5237 54.1504C51.8496 54.1504 51.1821 54.0525 50.5594 53.8621C49.9366 53.6718 49.3708 53.3929 48.8944 53.0412C48.4179 52.6896 48.04 52.2722 47.7824 51.8128C47.5248 51.3534 47.3925 50.8611 47.393 50.364V49.4349H57.6544V50.364C57.6549 50.8611 57.5226 51.3534 57.265 51.8128C57.0074 52.2722 56.6295 52.6896 56.153 53.0412C55.6766 53.3929 55.1108 53.6718 54.488 53.8621C53.8653 54.0525 53.1978 54.1504 52.5237 54.1504Z" fill="#628ECC"/>
<path d="M57.6544 49.4377H47.393V41.9427C47.393 40.9393 47.9336 39.977 48.8958 39.2674C49.858 38.5579 51.163 38.1593 52.5237 38.1593C53.8844 38.1593 55.1894 38.5579 56.1516 39.2674C57.1138 39.977 57.6544 40.9393 57.6544 41.9427V49.4377Z" fill="#828181"/>
<path d="M57.653 43.2321H47.3906V44.6632H57.653V43.2321Z" fill="#666666"/>
<path d="M57.653 45.141H47.3906V46.5722H57.653V45.141Z" fill="#666666"/>
<path d="M57.653 47.0491H47.3906V48.4802H57.653V47.0491Z" fill="#666666"/>
<path d="M57.653 50.3676V49.4377H47.3906" stroke="#2B4257" stroke-width="0.3877" stroke-miterlimit="10" stroke-linecap="round"/>
<path d="M57.653 41.9432V49.4375H47.3906" stroke="#2B4257" stroke-width="0.3877" stroke-miterlimit="10" stroke-linecap="round"/>
<path d="M52.8448 44.2391L47.3906 46.8277V49.4376C48.1419 49.4394 48.8823 49.3059 49.5476 49.0485C50.2128 48.7911 50.7827 48.4178 51.2075 47.9609C52.6517 46.3925 52.8448 44.2391 52.8448 44.2391Z" fill="#2B4257"/>
<path d="M47.3906 49.4373V41.9431C47.3905 41.4462 47.5231 40.9541 47.7809 40.495C48.0387 40.0359 48.4166 39.6187 48.893 39.2673C49.3695 38.9159 49.9351 38.6372 50.5576 38.447C51.1802 38.2568 51.8474 38.1589 52.5213 38.1589" stroke="#FFF1D7" stroke-width="0.3877" stroke-miterlimit="10" stroke-linecap="round"/>
<path d="M53.8695 38.4421L50.7065 38.4715V36.0722L53.8695 35.8109V38.4421Z" fill="#FBC2A5"/>
<path d="M53.869 35.8109V38.4421" stroke="#2B4257" stroke-width="0.3877" stroke-miterlimit="10" stroke-linecap="round"/>
<path d="M50.7065 37.3303C51.6181 37.2151 52.288 36.8334 52.288 36.3762C52.2867 36.2634 52.2462 36.1527 52.1705 36.0547L50.7065 36.0687V37.3303Z" fill="#2B4257"/>
<path d="M48.1916 31.6132L48.7689 34.968H47.5248L48.1916 31.6132Z" fill="#F39B92"/>
<path d="M48.7689 34.9673H47.5248" stroke="#2B4257" stroke-width="0.3877" stroke-miterlimit="10" stroke-linecap="round"/>
<path d="M50.7065 38.4716V36.0724" stroke="#FFF1D7" stroke-width="0.3877" stroke-miterlimit="10" stroke-linecap="round"/>
<path d="M50.5325 36.9284H50.2479C49.7028 36.9284 49.18 36.7687 48.7946 36.4845C48.4091 36.2003 48.1926 35.8148 48.1926 35.4128V31.611H52.97C53.2033 31.611 53.4271 31.6794 53.5921 31.8011C53.7571 31.9227 53.8498 32.0878 53.8498 32.2598V34.48C53.8498 35.1291 53.5001 35.7517 52.8776 36.2107C52.2551 36.6698 51.4109 36.9277 50.5305 36.9277L50.5325 36.9284Z" fill="#FBC2A5"/>
<path d="M53.7212 30.6958C52.823 30.4193 51.8257 30.3702 50.8856 30.5564H50.8747C50.4364 30.6375 50.0128 30.7567 49.6127 30.9116C46.2138 32.2407 47.1762 33.7842 47.1762 33.7842C49.0673 33.4172 49.6147 32.7677 50.176 32.204L52.1666 34.1027L53.9272 36.455C57.4296 34.3082 56.5946 31.5949 53.7212 30.6958Z" fill="#2B4257"/>
<path d="M49.6127 30.9118C46.2138 32.241 47.1762 33.7844 47.1762 33.7844" stroke="#586977" stroke-width="0.3877" stroke-miterlimit="10" stroke-linecap="round"/>
<path d="M51.0451 33.3749C51.6343 33.3749 52.112 33.0227 52.112 32.5881C52.112 32.1536 51.6343 31.8014 51.0451 31.8014C50.4558 31.8014 49.9781 32.1536 49.9781 32.5881C49.9781 33.0227 50.4558 33.3749 51.0451 33.3749Z" fill="#2B4257"/>
<path d="M52.0849 33.9915C52.6741 33.9915 53.1518 33.6392 53.1518 33.2047C53.1518 32.7702 52.6741 32.4179 52.0849 32.4179C51.4956 32.4179 51.0179 32.7702 51.0179 33.2047C51.0179 33.6392 51.4956 33.9915 52.0849 33.9915Z" fill="#2B4257"/>
<path d="M48.1932 35.0795V35.412C48.1928 35.6114 48.2458 35.809 48.3492 35.9933C48.4526 36.1777 48.6042 36.3451 48.7955 36.4861C48.9869 36.6271 49.214 36.7389 49.464 36.815C49.714 36.8912 49.982 36.9302 50.2525 36.9298" stroke="#FFF1D7" stroke-width="0.3877" stroke-miterlimit="10" stroke-linecap="round"/>
<path d="M49.9738 34.1476C49.9537 34.1358 49.9357 34.1223 49.9201 34.1072C49.8959 34.0859 49.8654 34.0689 49.8308 34.0577C49.7963 34.0465 49.7587 34.0414 49.721 34.0426H48.7467V34.552C48.7467 34.698 48.8253 34.838 48.9653 34.9412C49.1053 35.0444 49.2951 35.1024 49.4931 35.1024C49.5912 35.1025 49.6884 35.0884 49.7791 35.0607C49.8698 35.0331 49.9522 34.9926 50.0216 34.9415C50.091 34.8903 50.1461 34.8296 50.1837 34.7628C50.2212 34.696 50.2406 34.6243 50.2406 34.552C50.2411 34.474 50.2174 34.397 50.1711 34.3269C50.1249 34.2567 50.0574 34.1954 49.9738 34.1476Z" fill="#F4AB9D"/>
<path d="M48.7467 33.9488C48.7895 34.155 49.0562 34.2871 49.4025 34.2541C49.6226 34.2309 49.8255 34.1533 49.9778 34.0339C49.935 33.8277 49.6683 33.6956 49.3219 33.7286C49.1017 33.7514 48.8987 33.8291 48.7467 33.9488Z" fill="#F7F7F7"/>
<path d="M48.7467 33.9488C48.7895 34.155 49.0562 34.2872 49.4025 34.2541C49.6226 34.2309 49.8255 34.1533 49.9778 34.0339" stroke="#2B4257" stroke-width="0.3877" stroke-miterlimit="10" stroke-linecap="round"/>
<path d="M49.2133 34.0222C49.2233 33.9881 49.2018 33.9558 49.1653 33.9499C49.1288 33.9441 49.091 33.967 49.081 34.0011C49.071 34.0351 49.0925 34.0675 49.1291 34.0733C49.1656 34.0792 49.2033 34.0563 49.2133 34.0222Z" fill="#2B4257"/>
<path d="M50.5484 34.8057C50.8342 34.8057 51.0659 34.6349 51.0659 34.4241C51.0659 34.2133 50.8342 34.0424 50.5484 34.0424C50.2626 34.0424 50.0308 34.2133 50.0308 34.4241C50.0308 34.6349 50.2626 34.8057 50.5484 34.8057Z" fill="#E57873"/>
<path d="M48.8808 33.4138C49.0222 33.3752 49.1749 33.3649 49.3235 33.3839C49.472 33.4028 49.6112 33.4503 49.7268 33.5217" stroke="#2B4257" stroke-width="0.3877" stroke-miterlimit="10" stroke-linecap="round"/>
<path d="M49.3038 35.0009C49.2198 35.0763 49.1104 35.1341 48.9865 35.1685C48.8627 35.2029 48.7287 35.2127 48.5981 35.1969" stroke="#2B4257" stroke-width="0.3877" stroke-miterlimit="10" stroke-linecap="round"/>
<path d="M52.5245 35.1629C52.9967 35.1629 53.3795 34.8806 53.3795 34.5324C53.3795 34.1843 52.9967 33.902 52.5245 33.902C52.0524 33.902 51.6696 34.1843 51.6696 34.5324C51.6696 34.8806 52.0524 35.1629 52.5245 35.1629Z" fill="#FBC2A5"/>
<path d="M52.5244 34.8553C52.7662 34.8553 52.9623 34.7107 52.9623 34.5323C52.9623 34.354 52.7662 34.2094 52.5244 34.2094C52.2825 34.2094 52.0865 34.354 52.0865 34.5323C52.0865 34.7107 52.2825 34.8553 52.5244 34.8553Z" fill="#F4AB9D"/>
<path d="M53.6151 86.7306H23.485" stroke="#2B4257" stroke-width="0.3877" stroke-miterlimit="10" stroke-linecap="round"/>
<path d="M21.5215 86.7306H20.4088" stroke="#2B4257" stroke-width="0.3877" stroke-miterlimit="10" stroke-linecap="round"/>
<path d="M46.7463 48.6311C45.5171 48.6311 44.2222 48.3295 42.8796 47.7284C41.0881 46.9277 39.1891 45.5912 37.0622 43.6433L40.9438 41.3417C43.1035 43.3233 44.5965 44.204 45.4683 44.5915C46.2536 44.9438 46.7144 44.982 46.8617 44.9504C47.3733 44.8389 48.0929 43.5772 48.2362 42.5402L53.1867 42.913C53.121 43.3864 52.4263 47.5618 48.276 48.4689C47.7794 48.5772 47.2641 48.6318 46.7463 48.6311Z" fill="#828181"/>
<path d="M40.941 41.3417C43.1008 43.3233 44.5937 44.204 45.4656 44.5915C46.2509 44.9438 46.7117 44.982 46.859 44.9504C47.3706 44.8389 48.0901 43.5772 48.2335 42.5402" stroke="#FFF1D7" stroke-width="0.3877" stroke-miterlimit="10" stroke-linecap="round"/>
<path d="M53.1838 42.9132C53.1181 43.3866 52.4234 47.5619 48.2731 48.4691C47.7781 48.577 47.2645 48.6316 46.7483 48.6313C45.5192 48.6313 44.2243 48.3296 42.8817 47.7285" stroke="#2B4257" stroke-width="0.3877" stroke-miterlimit="10" stroke-linecap="round"/>
<path d="M48.6009 80.4965L40.6535 80.1295C42.1196 62.7352 47.6633 51.2711 47.8982 50.7919L55.3857 52.7897L51.6454 51.7937L55.3897 52.7904C55.3329 52.9005 49.9903 64.0027 48.6009 80.4965Z" fill="#628ECC"/>
<path d="M55.3863 52.7909C55.3326 52.901 49.9899 64.0033 48.6005 80.497" stroke="#2B4257" stroke-width="0.3877" stroke-miterlimit="10" stroke-linecap="round"/>
<path d="M30.5363 44.4703C30.5363 44.4703 30.1382 43.1969 28.6204 43.136C27.1026 43.0751 27.1484 42.9158 27.1484 42.9158C27.1484 42.9158 27.0787 45.056 30.5363 44.4703Z" fill="#5BC0C3"/>
<path d="M30.5376 44.4701C30.5376 44.4701 30.1395 43.1967 28.6217 43.1358" stroke="#FFF1D7" stroke-width="0.3877" stroke-miterlimit="10" stroke-linecap="round"/>
<path d="M27.1483 42.9132C27.1483 42.9132 27.0787 45.0563 30.5323 44.4706" stroke="#2B4257" stroke-width="0.3877" stroke-miterlimit="10" stroke-linecap="round"/>
<path d="M33.1148 45.9017C33.1148 45.9017 32.2688 45.0738 31.1422 45.3879C30.0155 45.7021 29.9777 45.5766 29.9777 45.5766C29.9777 45.5766 30.8655 47.1494 33.1148 45.9017Z" fill="#5BC0C3"/>
<path d="M33.1147 45.9017C33.1147 45.9017 32.2687 45.0738 31.1421 45.3879" stroke="#FFF1D7" stroke-width="0.3877" stroke-miterlimit="10" stroke-linecap="round"/>
<path d="M29.9777 45.58C29.9777 45.58 30.8655 47.1499 33.1148 45.9022" stroke="#2B4257" stroke-width="0.3877" stroke-miterlimit="10" stroke-linecap="round"/>
<path d="M28.7053 34.5743C28.7053 34.5743 28.1937 33.1313 28.7053 32.5926C29.2169 32.0539 29.818 32.8378 29.4338 33.0168C29.0497 33.1959 28.9063 32.9038 29.0168 32.7622" stroke="#2B4257" stroke-width="0.3877" stroke-miterlimit="10" stroke-linecap="round"/>
<path d="M29.2206 34.6504C29.2206 34.6504 29.4197 33.1656 30.1482 32.792C30.8768 32.4185 31.0778 33.3058 30.6339 33.3792C30.19 33.4526 30.191 33.1384 30.3612 33.0342" stroke="#2B4257" stroke-width="0.3877" stroke-miterlimit="10" stroke-linecap="round"/>
<path d="M34.6256 36.3271C35.2016 36.7734 35.9461 37.0817 36.7625 37.2123C37.279 36.3991 37.6941 35.2798 37.6692 33.7943C37.6692 33.7943 39.5304 33.2806 38.7113 32.816C36.2798 31.4421 36.6212 33.2975 36.6212 33.2975C36.6212 33.2975 34.8535 33.8222 34.6256 36.3271Z" fill="#2B4257"/>
<path d="M36.3621 30.7813C36.4666 31.4591 36.6301 32.1314 36.8517 32.7937C36.8574 32.8099 36.8703 32.8241 36.8884 32.8341C36.9065 32.8441 36.9287 32.8493 36.9513 32.8488C36.9595 32.8495 36.9679 32.8495 36.9761 32.8488C36.9888 32.8464 37.0008 32.8422 37.0112 32.8364C37.0217 32.8306 37.0305 32.8233 37.0372 32.815C37.0438 32.8067 37.0482 32.7975 37.05 32.7879C37.0519 32.7783 37.0511 32.7686 37.0478 32.7592C36.8224 32.083 36.6581 31.3965 36.5561 30.7042C36.4944 30.7116 36.4337 30.7204 36.372 30.7299H36.3581C36.3571 30.7468 36.3591 30.7651 36.3621 30.7813Z" fill="#2B4257"/>
<path d="M38.3604 32.976C38.4645 32.297 38.6277 31.6235 38.8491 30.9599C38.7873 30.9379 38.7256 30.9166 38.6629 30.8968C38.658 30.9144 38.651 30.9306 38.645 30.9482C38.4258 31.6112 38.2645 32.2838 38.1623 32.9621C38.1598 32.9815 38.1678 33.0008 38.1846 33.0158C38.2014 33.0308 38.2256 33.0402 38.2519 33.0421H38.2618C38.2864 33.042 38.3101 33.0352 38.3283 33.023C38.3465 33.0108 38.3579 32.9941 38.3604 32.976Z" fill="#2B4257"/>
<path d="M37.649 33.1063C37.981 33.1063 38.2501 32.991 38.2501 32.8487C38.2501 32.7064 37.981 32.5911 37.649 32.5911C37.3169 32.5911 37.0478 32.7064 37.0478 32.8487C37.0478 32.991 37.3169 33.1063 37.649 33.1063Z" fill="white"/>
<path d="M37.0478 32.849C37.1092 32.9265 37.197 32.9908 37.3026 33.0355C37.4081 33.0802 37.5277 33.1037 37.6495 33.1037C37.7712 33.1037 37.8908 33.0802 37.9963 33.0355C38.1019 32.9908 38.1897 32.9265 38.2511 32.849" stroke="#2B4257" stroke-width="0.3877" stroke-miterlimit="10" stroke-linecap="round"/>
<path d="M37.8522 32.9185C37.8929 32.9185 37.9258 32.8765 37.9258 32.8246C37.9258 32.7727 37.8929 32.7307 37.8522 32.7307C37.8115 32.7307 37.7785 32.7727 37.7785 32.8246C37.7785 32.8765 37.8115 32.9185 37.8522 32.9185Z" fill="#354B5F"/>
</svg>
