<svg width="77" height="77" viewBox="0 0 77 77" fill="none" xmlns="http://www.w3.org/2000/svg">
<circle cx="38.5" cy="38.5" r="38.5" fill="#64AB52"/>
<g clip-path="url(#clip0_686_3156)">
<path d="M49.5835 27.1211C49.3574 26.9743 49.1045 26.8735 48.8394 26.8245C48.5742 26.7755 48.302 26.7792 48.0383 26.8353C47.7746 26.8915 47.5245 26.9991 47.3024 27.152C47.0803 27.3048 46.8905 27.4999 46.7438 27.7262L35.2383 45.4608L29.6272 40.2727C29.4292 40.0897 29.1971 39.9474 28.9442 39.8541C28.6913 39.7607 28.4224 39.7181 28.153 39.7287C27.6089 39.75 27.0955 39.9865 26.7258 40.3864C26.3562 40.7862 26.1604 41.3165 26.1817 41.8606C26.2031 42.4047 26.4396 42.918 26.8395 43.2877L34.2068 50.0993C34.2068 50.0993 34.4183 50.2814 34.5162 50.345C34.7424 50.4919 34.9953 50.5928 35.2605 50.6419C35.5257 50.691 35.798 50.6873 36.0618 50.6311C36.3256 50.5749 36.5757 50.4673 36.7979 50.3144C37.0201 50.1615 37.2099 49.9663 37.3566 49.74L50.1886 29.9609C50.3354 29.7347 50.4362 29.4818 50.4852 29.2167C50.5342 28.9516 50.5306 28.6794 50.4744 28.4157C50.4182 28.152 50.3106 27.9019 50.1577 27.6798C50.0049 27.4577 49.8098 27.2678 49.5835 27.1211Z" fill="white"/>
</g>
<defs>
<clipPath id="clip0_686_3156">
<rect width="24.64" height="24.64" fill="white" transform="translate(26.1801 26.1801)"/>
</clipPath>
</defs>
</svg>
