<svg width="20" height="21" viewBox="0 0 20 21" fill="none" xmlns="http://www.w3.org/2000/svg">
<path d="M5.83334 18C5.37501 18 4.98279 17.8369 4.65668 17.5108C4.33001 17.1842 4.16668 16.7917 4.16668 16.3333V5.5C3.93057 5.5 3.73251 5.42028 3.57251 5.26083C3.41307 5.10083 3.33334 4.90278 3.33334 4.66667C3.33334 4.43056 3.41307 4.2325 3.57251 4.0725C3.73251 3.91306 3.93057 3.83333 4.16668 3.83333H7.50001C7.50001 3.59722 7.58001 3.39917 7.74001 3.23917C7.89945 3.07972 8.09723 3 8.33334 3H11.6667C11.9028 3 12.1008 3.07972 12.2608 3.23917C12.4203 3.39917 12.5 3.59722 12.5 3.83333H15.8333C16.0695 3.83333 16.2672 3.91306 16.4267 4.0725C16.5867 4.2325 16.6667 4.43056 16.6667 4.66667C16.6667 4.90278 16.5867 5.10083 16.4267 5.26083C16.2672 5.42028 16.0695 5.5 15.8333 5.5V16.3333C15.8333 16.7917 15.6703 17.1842 15.3442 17.5108C15.0175 17.8369 14.625 18 14.1667 18H5.83334ZM7.50001 13.8333C7.50001 14.0694 7.58001 14.2672 7.74001 14.4267C7.89945 14.5867 8.09723 14.6667 8.33334 14.6667C8.56945 14.6667 8.76751 14.5867 8.92751 14.4267C9.08695 14.2672 9.16668 14.0694 9.16668 13.8333V8C9.16668 7.76389 9.08695 7.56583 8.92751 7.40583C8.76751 7.24639 8.56945 7.16667 8.33334 7.16667C8.09723 7.16667 7.89945 7.24639 7.74001 7.40583C7.58001 7.56583 7.50001 7.76389 7.50001 8V13.8333ZM10.8333 13.8333C10.8333 14.0694 10.9133 14.2672 11.0733 14.4267C11.2328 14.5867 11.4306 14.6667 11.6667 14.6667C11.9028 14.6667 12.1008 14.5867 12.2608 14.4267C12.4203 14.2672 12.5 14.0694 12.5 13.8333V8C12.5 7.76389 12.4203 7.56583 12.2608 7.40583C12.1008 7.24639 11.9028 7.16667 11.6667 7.16667C11.4306 7.16667 11.2328 7.24639 11.0733 7.40583C10.9133 7.56583 10.8333 7.76389 10.8333 8V13.8333Z" fill="#64B4A3"/>
</svg>
