<svg width="60" height="60" viewBox="0 0 60 60" fill="none" xmlns="http://www.w3.org/2000/svg">
<path d="M18.2142 24.6429C17.6459 24.6429 17.1008 24.8686 16.699 25.2705C16.2971 25.6724 16.0713 26.2174 16.0713 26.7857C16.0713 27.3541 16.2971 27.8991 16.699 28.301C17.1008 28.7028 17.6459 28.9286 18.2142 28.9286C18.7825 28.9286 19.3275 28.7028 19.7294 28.301C20.1313 27.8991 20.357 27.3541 20.357 26.7857C20.357 26.2174 20.1313 25.6724 19.7294 25.2705C19.3275 24.8686 18.7825 24.6429 18.2142 24.6429ZM16.0713 41.7857C16.0713 41.2174 16.2971 40.6724 16.699 40.2705C17.1008 39.8686 17.6459 39.6429 18.2142 39.6429C18.7825 39.6429 19.3275 39.8686 19.7294 40.2705C20.1313 40.6724 20.357 41.2174 20.357 41.7857C20.357 42.3541 20.1313 42.8991 19.7294 43.301C19.3275 43.7028 18.7825 43.9286 18.2142 43.9286C17.6459 43.9286 17.1008 43.7028 16.699 43.301C16.2971 42.8991 16.0713 42.3541 16.0713 41.7857ZM6.42847 14.4643C6.42847 12.3331 7.27508 10.2892 8.78207 8.7822C10.2891 7.27521 12.333 6.42859 14.4642 6.42859H45.5356C47.6668 6.42859 49.7107 7.27521 51.2177 8.7822C52.7247 10.2892 53.5713 12.3331 53.5713 14.4643V45.5357C53.5713 47.6669 52.7247 49.7108 51.2177 51.2178C49.7107 52.7248 47.6668 53.5714 45.5356 53.5714H14.4642C12.333 53.5714 10.2891 52.7248 8.78207 51.2178C7.27508 49.7108 6.42847 47.6669 6.42847 45.5357V14.4643ZM12.857 26.7857C12.857 28.2065 13.4214 29.5691 14.4261 30.5738C15.4308 31.5785 16.7934 32.1429 18.2142 32.1429C19.635 32.1429 20.9976 31.5785 22.0023 30.5738C23.0069 29.5691 23.5713 28.2065 23.5713 26.7857C23.5713 25.3649 23.0069 24.0023 22.0023 22.9977C20.9976 21.993 19.635 21.4286 18.2142 21.4286C16.7934 21.4286 15.4308 21.993 14.4261 22.9977C13.4214 24.0023 12.857 25.3649 12.857 26.7857ZM18.2142 36.4286C16.7934 36.4286 15.4308 36.993 14.4261 37.9977C13.4214 39.0023 12.857 40.3649 12.857 41.7857C12.857 43.2065 13.4214 44.5691 14.4261 45.5738C15.4308 46.5785 16.7934 47.1429 18.2142 47.1429C19.635 47.1429 20.9976 46.5785 22.0023 45.5738C23.0069 44.5691 23.5713 43.2065 23.5713 41.7857C23.5713 40.3649 23.0069 39.0023 22.0023 37.9977C20.9976 36.993 19.635 36.4286 18.2142 36.4286ZM27.857 26.25C27.857 27.1372 28.577 27.8572 29.4642 27.8572H45.5356C45.9618 27.8572 46.3706 27.6878 46.672 27.3864C46.9734 27.085 47.1427 26.6763 47.1427 26.25C47.1427 25.8238 46.9734 25.415 46.672 25.1136C46.3706 24.8122 45.9618 24.6429 45.5356 24.6429H29.4642C29.0379 24.6429 28.6292 24.8122 28.3278 25.1136C28.0264 25.415 27.857 25.8238 27.857 26.25ZM29.4642 39.6429C29.0379 39.6429 28.6292 39.8122 28.3278 40.1136C28.0264 40.415 27.857 40.8238 27.857 41.25C27.857 41.6763 28.0264 42.085 28.3278 42.3864C28.6292 42.6878 29.0379 42.8572 29.4642 42.8572H45.5356C45.9618 42.8572 46.3706 42.6878 46.672 42.3864C46.9734 42.085 47.1427 41.6763 47.1427 41.25C47.1427 40.8238 46.9734 40.415 46.672 40.1136C46.3706 39.8122 45.9618 39.6429 45.5356 39.6429H29.4642ZM12.857 14.4643C12.857 15.3514 13.577 16.0714 14.4642 16.0714H45.5356C45.9618 16.0714 46.3706 15.9021 46.672 15.6007C46.9734 15.2993 47.1427 14.8905 47.1427 14.4643C47.1427 14.0381 46.9734 13.6293 46.672 13.3279C46.3706 13.0265 45.9618 12.8572 45.5356 12.8572H14.4642C14.0379 12.8572 13.6292 13.0265 13.3278 13.3279C13.0264 13.6293 12.857 14.0381 12.857 14.4643Z" fill="white"/>
</svg>
