<svg width="19" height="20" viewBox="0 0 19 20" fill="none" xmlns="http://www.w3.org/2000/svg">
<path d="M16.1919 19C16.1919 19.5523 16.6396 20 17.1919 20C17.7442 20 18.1919 19.5523 18.1919 19H16.1919ZM0.515137 19C0.515137 19.5523 0.962852 20 1.51514 20C2.06742 20 2.51514 19.5523 2.51514 19H0.515137ZM18.1919 19C18.1919 17.16 17.0244 15.636 15.4339 14.6214C13.8317 13.5994 11.6793 13 9.35352 13V15C11.3568 15 13.1235 15.5199 14.3583 16.3075C15.6047 17.1026 16.1919 18.0786 16.1919 19H18.1919ZM9.35352 13C7.02775 13 4.8753 13.5994 3.27316 14.6214C1.68259 15.636 0.515137 17.16 0.515137 19H2.51514C2.51514 18.0786 3.10236 17.1026 4.34874 16.3075C5.58353 15.5199 7.35027 15 9.35352 15V13ZM9.35352 10C7.21931 10 5.45453 8.22848 5.45453 6H3.45453C3.45453 9.29437 6.07646 12 9.35352 12V10ZM5.45453 6C5.45453 3.77152 7.21931 2 9.35352 2V0C6.07646 0 3.45453 2.70563 3.45453 6H5.45453ZM9.35352 2C11.4877 2 13.2525 3.77152 13.2525 6H15.2525C15.2525 2.70563 12.6306 0 9.35352 0V2ZM13.2525 6C13.2525 8.22848 11.4877 10 9.35352 10V12C12.6306 12 15.2525 9.29437 15.2525 6H13.2525Z" fill="white"/>
<path d="M16.1919 19C16.1919 19.5523 16.6396 20 17.1919 20C17.7442 20 18.1919 19.5523 18.1919 19H16.1919ZM0.515137 19C0.515137 19.5523 0.962852 20 1.51514 20C2.06742 20 2.51514 19.5523 2.51514 19H0.515137ZM18.1919 19C18.1919 17.16 17.0244 15.636 15.4339 14.6214C13.8317 13.5994 11.6793 13 9.35352 13V15C11.3568 15 13.1235 15.5199 14.3583 16.3075C15.6047 17.1026 16.1919 18.0786 16.1919 19H18.1919ZM9.35352 13C7.02775 13 4.8753 13.5994 3.27316 14.6214C1.68259 15.636 0.515137 17.16 0.515137 19H2.51514C2.51514 18.0786 3.10236 17.1026 4.34874 16.3075C5.58353 15.5199 7.35027 15 9.35352 15V13ZM9.35352 10C7.21931 10 5.45453 8.22848 5.45453 6H3.45453C3.45453 9.29437 6.07646 12 9.35352 12V10ZM5.45453 6C5.45453 3.77152 7.21931 2 9.35352 2V0C6.07646 0 3.45453 2.70563 3.45453 6H5.45453ZM9.35352 2C11.4877 2 13.2525 3.77152 13.2525 6H15.2525C15.2525 2.70563 12.6306 0 9.35352 0V2ZM13.2525 6C13.2525 8.22848 11.4877 10 9.35352 10V12C12.6306 12 15.2525 9.29437 15.2525 6H13.2525Z" fill="black"/>
</svg>
