<svg width="60" height="60" viewBox="0 0 60 60" fill="none" xmlns="http://www.w3.org/2000/svg">
<path d="M16.875 7.5C14.3886 7.5 12.004 8.48772 10.2459 10.2459C8.48772 12.004 7.5 14.3886 7.5 16.875V39.375C7.5 41.8614 8.48772 44.246 10.2459 46.0041C12.004 47.7623 14.3886 48.75 16.875 48.75H18.75V35.625C18.75 33.1386 19.7377 30.754 21.4959 28.9959C23.254 27.2377 25.6386 26.25 28.125 26.25H48.75V16.875C48.75 14.3886 47.7623 12.004 46.0041 10.2459C44.246 8.48772 41.8614 7.5 39.375 7.5H16.875ZM16.875 16.875C16.875 16.3777 17.0725 15.9008 17.4242 15.5492C17.7758 15.1975 18.2527 15 18.75 15H37.5C37.9973 15 38.4742 15.1975 38.8258 15.5492C39.1775 15.9008 39.375 16.3777 39.375 16.875C39.375 17.3723 39.1775 17.8492 38.8258 18.2008C38.4742 18.5525 37.9973 18.75 37.5 18.75H18.75C18.2527 18.75 17.7758 18.5525 17.4242 18.2008C17.0725 17.8492 16.875 17.3723 16.875 16.875ZM22.5075 35.3587C22.5759 33.9148 23.1976 32.5527 24.2436 31.5549C25.2895 30.5571 26.6795 30.0003 28.125 30H50.625C52.0705 30.0003 53.4605 30.5571 54.5064 31.5549C55.5524 32.5527 56.1741 33.9148 56.2425 35.3587L39.375 44.73L22.5075 35.355V35.3587ZM40.2825 48.5138L56.25 39.645V50.625C56.25 52.1168 55.6574 53.5476 54.6025 54.6025C53.5476 55.6574 52.1168 56.25 50.625 56.25H28.125C26.6332 56.25 25.2024 55.6574 24.1475 54.6025C23.0926 53.5476 22.5 52.1168 22.5 50.625V39.645L38.4637 48.5138C38.7425 48.6687 39.0561 48.7501 39.375 48.7501C39.6939 48.7501 40.0075 48.6687 40.2863 48.5138H40.2825Z" fill="white"/>
</svg>
