<svg width="104" height="96" viewBox="0 0 104 96" fill="none" xmlns="http://www.w3.org/2000/svg">
<path d="M73.1481 3.179C85.1786 4.88311 100.273 11.3564 103.013 20.8919C105.756 30.4521 96.1504 43.0512 87.0068 53.1313C77.866 63.2348 69.1954 70.8208 58.5726 75.9317C47.9512 81.0206 35.4009 83.671 26.9537 78.8711C18.5299 74.1049 14.2384 61.9016 9.24019 51.1541C4.22591 40.3833 -1.50531 31.045 1.20917 24.4987C3.9295 17.9772 15.0955 14.2462 23.4945 11.8996C31.8935 9.553 37.5006 8.56441 44.8132 6.56386C52.101 4.53703 61.0928 1.47488 73.1481 3.179Z" fill="#F2F2F2"/>
<path d="M34.8634 6.06006C32.9345 6.06006 32.3314 9.07402 32.3314 10.2787C32.3314 12.3231 34.5013 20.7663 36.5499 20.7663C38.5985 20.7663 40.7698 12.4428 40.7698 11.4849C40.7698 10.527 38.2379 6.06006 34.8634 6.06006Z" fill="#DE8E68"/>
<path d="M72.7464 6.63112L43.7509 0.942158C41.7448 0.548564 39.7995 1.85581 39.4059 3.86198L28.3414 60.2608C27.9478 62.267 29.255 64.2124 31.2611 64.606L60.2566 70.295C62.2627 70.6886 64.208 69.3813 64.6016 67.3751L75.6661 10.9763C76.0597 8.9701 74.7525 7.02471 72.7464 6.63112Z" fill="#52AB98"/>
<path d="M66.1026 5.34147L65.7361 7.20914C65.6454 7.66605 65.3773 8.06842 64.9907 8.32814C64.604 8.58786 64.1301 8.68379 63.6729 8.59491L51.1707 6.14169C50.714 6.05062 50.3119 5.78249 50.0523 5.39588C49.7926 5.00926 49.6966 4.53559 49.785 4.07836L50.1588 2.21069" fill="#FED385"/>
<path d="M30 58L66 65" stroke="#FED385" stroke-width="0.377204" stroke-miterlimit="10"/>
<path d="M45.8761 65.7799C46.6849 65.7799 47.3406 65.1241 47.3406 64.3152C47.3406 63.5063 46.6849 62.8506 45.8761 62.8506C45.0672 62.8506 44.4115 63.5063 44.4115 64.3152C44.4115 65.1241 45.0672 65.7799 45.8761 65.7799Z" fill="#FED385"/>
<path d="M32.5739 22.3403C30.042 22.3403 28.354 24.2679 28.354 26.3181C28.354 33.0673 32.2118 38.6119 33.9027 38.6119C37.5181 38.6119 38.844 36.6829 38.844 35.357C38.8411 34.386 38.3592 22.3403 32.5739 22.3403Z" fill="#DE8E68"/>
<path d="M31.2481 40.0518C31.9709 40.7747 37.5152 46.6814 37.5152 50.7789C37.5152 53.5533 36.9122 55.7203 31.8497 55.7203C29.4389 55.7203 22.6899 46.198 22.6899 42.3415C22.6899 40.1716 24.0158 35.1089 27.7524 35.1089C28.8373 35.1089 31.2481 37.0379 31.6088 37.5198C31.9802 37.9045 32.3742 38.2668 32.7886 38.6047C32.6367 39.3889 31.7986 43.5141 31.7986 43.5141" fill="#DE8E68"/>
<path d="M30.347 64.3007C29.9864 65.2659 29.7411 74.5852 30.826 79.7677C30.0959 83.5045 27.2091 95.6844 27.2091 95.6844H53.3713L56.023 85.0771C56.023 85.0771 72.1668 70.9667 73.7335 68.4376C75.3003 65.9084 78.9771 51.1409 78.9245 49.7551C78.8822 48.7913 61.3263 33.9639 60.8445 33.3609C60.3626 32.7578 51.8848 41.2462 65.9873 51.0153C65.8661 52.22 65.8734 57.5412 65.8734 57.5412C65.8734 57.5412 56.0638 60.9129 55.068 61.6401C54.0721 62.3673 52.1666 67.4913 51.822 68.6406C50.4888 68.3806 30.347 64.3007 30.347 64.3007Z" fill="#DE8E68"/>
</svg>
