<svg width="58" height="9" viewBox="0 0 58 9" fill="none" xmlns="http://www.w3.org/2000/svg">
<path d="M5.61 3.12C5.61 3.47333 5.52667 3.80667 5.36 4.12C5.19333 4.43333 4.92667 4.69 4.56 4.89C4.19333 5.08333 3.72333 5.18 3.15 5.18H1.89V8H0.75V1.05H3.15C3.68333 1.05 4.13333 1.14333 4.5 1.33C4.87333 1.51 5.15 1.75667 5.33 2.07C5.51667 2.38333 5.61 2.73333 5.61 3.12ZM3.15 4.25C3.58333 4.25 3.90667 4.15333 4.12 3.96C4.33333 3.76 4.44 3.48 4.44 3.12C4.44 2.36 4.01 1.98 3.15 1.98H1.89V4.25H3.15ZM7.83727 3.29C8.00393 3.01 8.22393 2.79333 8.49727 2.64C8.77727 2.48 9.10727 2.4 9.48727 2.4V3.58H9.19727C8.7506 3.58 8.4106 3.69333 8.17727 3.92C7.9506 4.14667 7.83727 4.54 7.83727 5.1V8H6.69727V2.49H7.83727V3.29ZM12.9252 8.09C12.4052 8.09 11.9352 7.97333 11.5152 7.74C11.0952 7.5 10.7652 7.16667 10.5252 6.74C10.2852 6.30667 10.1652 5.80667 10.1652 5.24C10.1652 4.68 10.2885 4.18333 10.5352 3.75C10.7818 3.31667 11.1185 2.98333 11.5452 2.75C11.9718 2.51667 12.4485 2.4 12.9752 2.4C13.5018 2.4 13.9785 2.51667 14.4052 2.75C14.8318 2.98333 15.1685 3.31667 15.4152 3.75C15.6618 4.18333 15.7852 4.68 15.7852 5.24C15.7852 5.8 15.6585 6.29667 15.4052 6.73C15.1518 7.16333 14.8052 7.5 14.3652 7.74C13.9318 7.97333 13.4518 8.09 12.9252 8.09ZM12.9252 7.1C13.2185 7.1 13.4918 7.03 13.7452 6.89C14.0052 6.75 14.2152 6.54 14.3752 6.26C14.5352 5.98 14.6152 5.64 14.6152 5.24C14.6152 4.84 14.5385 4.50333 14.3852 4.23C14.2318 3.95 14.0285 3.74 13.7752 3.6C13.5218 3.46 13.2485 3.39 12.9552 3.39C12.6618 3.39 12.3885 3.46 12.1352 3.6C11.8885 3.74 11.6918 3.95 11.5452 4.23C11.3985 4.50333 11.3252 4.84 11.3252 5.24C11.3252 5.83333 11.4752 6.29333 11.7752 6.62C12.0818 6.94 12.4652 7.1 12.9252 7.1ZM16.5321 5.22C16.5321 4.66667 16.6454 4.17667 16.8721 3.75C17.1054 3.32333 17.4188 2.99333 17.8121 2.76C18.2121 2.52 18.6554 2.4 19.1421 2.4C19.5021 2.4 19.8554 2.48 20.2021 2.64C20.5554 2.79333 20.8354 3 21.0421 3.26V0.6H22.1921V8H21.0421V7.17C20.8554 7.43667 20.5954 7.65667 20.2621 7.83C19.9354 8.00333 19.5588 8.09 19.1321 8.09C18.6521 8.09 18.2121 7.97 17.8121 7.73C17.4188 7.48333 17.1054 7.14333 16.8721 6.71C16.6454 6.27 16.5321 5.77333 16.5321 5.22ZM21.0421 5.24C21.0421 4.86 20.9621 4.53 20.8021 4.25C20.6488 3.97 20.4454 3.75667 20.1921 3.61C19.9388 3.46333 19.6654 3.39 19.3721 3.39C19.0788 3.39 18.8054 3.46333 18.5521 3.61C18.2988 3.75 18.0921 3.96 17.9321 4.24C17.7788 4.51333 17.7021 4.84 17.7021 5.22C17.7021 5.6 17.7788 5.93333 17.9321 6.22C18.0921 6.50667 18.2988 6.72667 18.5521 6.88C18.8121 7.02667 19.0854 7.1 19.3721 7.1C19.6654 7.1 19.9388 7.02667 20.1921 6.88C20.4454 6.73333 20.6488 6.52 20.8021 6.24C20.9621 5.95333 21.0421 5.62 21.0421 5.24ZM28.6795 2.49V8H27.5395V7.35C27.3595 7.57667 27.1228 7.75667 26.8295 7.89C26.5428 8.01667 26.2361 8.08 25.9095 8.08C25.4761 8.08 25.0861 7.99 24.7395 7.81C24.3995 7.63 24.1295 7.36333 23.9295 7.01C23.7361 6.65667 23.6395 6.23 23.6395 5.73V2.49H24.7695V5.56C24.7695 6.05333 24.8928 6.43333 25.1395 6.7C25.3861 6.96 25.7228 7.09 26.1495 7.09C26.5761 7.09 26.9128 6.96 27.1595 6.7C27.4128 6.43333 27.5395 6.05333 27.5395 5.56V2.49H28.6795ZM29.8036 5.24C29.8036 4.67333 29.9169 4.17667 30.1436 3.75C30.3769 3.31667 30.6969 2.98333 31.1036 2.75C31.5103 2.51667 31.9769 2.4 32.5036 2.4C33.1703 2.4 33.7203 2.56 34.1536 2.88C34.5936 3.19333 34.8903 3.64333 35.0436 4.23H33.8136C33.7136 3.95667 33.5536 3.74333 33.3336 3.59C33.1136 3.43667 32.8369 3.36 32.5036 3.36C32.0369 3.36 31.6636 3.52667 31.3836 3.86C31.1103 4.18667 30.9736 4.64667 30.9736 5.24C30.9736 5.83333 31.1103 6.29667 31.3836 6.63C31.6636 6.96333 32.0369 7.13 32.5036 7.13C33.1636 7.13 33.6003 6.84 33.8136 6.26H35.0436C34.8836 6.82 34.5836 7.26667 34.1436 7.6C33.7036 7.92667 33.1569 8.09 32.5036 8.09C31.9769 8.09 31.5103 7.97333 31.1036 7.74C30.6969 7.5 30.3769 7.16667 30.1436 6.74C29.9169 6.30667 29.8036 5.80667 29.8036 5.24ZM37.5097 3.42V6.47C37.5097 6.67667 37.5564 6.82667 37.6497 6.92C37.7497 7.00667 37.9164 7.05 38.1497 7.05H38.8497V8H37.9497C37.4364 8 37.043 7.88 36.7697 7.64C36.4964 7.4 36.3597 7.01 36.3597 6.47V3.42H35.7097V2.49H36.3597V1.12H37.5097V2.49H38.8497V3.42H37.5097ZM43.638 7.08H45.988V8H42.498V1.05H43.638V7.08ZM47.5214 1.76C47.3147 1.76 47.1414 1.69 47.0014 1.55C46.8614 1.41 46.7914 1.23667 46.7914 1.03C46.7914 0.823333 46.8614 0.65 47.0014 0.51C47.1414 0.37 47.3147 0.3 47.5214 0.3C47.7214 0.3 47.8914 0.37 48.0314 0.51C48.1714 0.65 48.2414 0.823333 48.2414 1.03C48.2414 1.23667 48.1714 1.41 48.0314 1.55C47.8914 1.69 47.7214 1.76 47.5214 1.76ZM48.0814 2.49V8H46.9414V2.49H48.0814ZM51.5781 8.09C51.1448 8.09 50.7548 8.01333 50.4081 7.86C50.0681 7.7 49.7981 7.48667 49.5981 7.22C49.3981 6.94667 49.2915 6.64333 49.2781 6.31H50.4581C50.4781 6.54333 50.5881 6.74 50.7881 6.9C50.9948 7.05333 51.2515 7.13 51.5581 7.13C51.8781 7.13 52.1248 7.07 52.2981 6.95C52.4781 6.82333 52.5681 6.66333 52.5681 6.47C52.5681 6.26333 52.4681 6.11 52.2681 6.01C52.0748 5.91 51.7648 5.8 51.3381 5.68C50.9248 5.56667 50.5881 5.45667 50.3281 5.35C50.0681 5.24333 49.8415 5.08 49.6481 4.86C49.4615 4.64 49.3681 4.35 49.3681 3.99C49.3681 3.69667 49.4548 3.43 49.6281 3.19C49.8015 2.94333 50.0481 2.75 50.3681 2.61C50.6948 2.47 51.0681 2.4 51.4881 2.4C52.1148 2.4 52.6181 2.56 52.9981 2.88C53.3848 3.19333 53.5915 3.62333 53.6181 4.17H52.4781C52.4581 3.92333 52.3581 3.72667 52.1781 3.58C51.9981 3.43333 51.7548 3.36 51.4481 3.36C51.1481 3.36 50.9181 3.41667 50.7581 3.53C50.5981 3.64333 50.5181 3.79333 50.5181 3.98C50.5181 4.12667 50.5715 4.25 50.6781 4.35C50.7848 4.45 50.9148 4.53 51.0681 4.59C51.2215 4.64333 51.4481 4.71333 51.7481 4.8C52.1481 4.90667 52.4748 5.01667 52.7281 5.13C52.9881 5.23667 53.2115 5.39667 53.3981 5.61C53.5848 5.82333 53.6815 6.10667 53.6881 6.46C53.6881 6.77333 53.6015 7.05333 53.4281 7.3C53.2548 7.54667 53.0081 7.74 52.6881 7.88C52.3748 8.02 52.0048 8.09 51.5781 8.09ZM56.2499 3.42V6.47C56.2499 6.67667 56.2966 6.82667 56.3899 6.92C56.4899 7.00667 56.6566 7.05 56.8899 7.05H57.5899V8H56.6899C56.1766 8 55.7833 7.88 55.5099 7.64C55.2366 7.4 55.0999 7.01 55.0999 6.47V3.42H54.4499V2.49H55.0999V1.12H56.2499V2.49H57.5899V3.42H56.2499Z" fill="white"/>
</svg>
